{"glyphs":{"0":{"ha":477,"x_min":43,"x_max":434,"o":"m 174 130 l 304 130 l 304 651 l 174 651 l 174 130 m 43 130 l 43 651 q 82 743 43 705 q 174 781 120 781 l 304 781 q 396 743 358 781 q 434 651 434 705 l 434 130 q 396 38 434 76 q 304 0 358 0 l 174 0 q 82 38 120 0 q 43 130 43 76 z "},"1":{"ha":347,"x_min":43,"x_max":304,"o":"m 109 651 l 43 651 l 43 694 l 109 781 l 239 781 l 239 130 l 304 130 l 304 0 l 43 0 l 43 130 l 109 130 l 109 651 z "},"2":{"ha":477,"x_min":43,"x_max":434,"o":"m 174 651 l 174 521 l 43 521 l 43 651 q 81 743 43 705 q 174 781 119 781 l 304 781 q 396 743 358 781 q 434 651 434 705 l 434 456 l 174 148 l 174 130 l 434 130 l 434 0 l 43 0 l 43 195 l 304 503 l 304 651 l 174 651 z "},"3":{"ha":477,"x_min":43,"x_max":434,"o":"m 434 521 q 396 429 434 467 q 304 391 358 391 q 396 353 358 391 q 434 260 434 315 l 434 130 q 396 38 434 76 q 304 0 358 0 l 174 0 q 82 38 120 0 q 43 130 43 76 l 43 217 l 174 217 l 174 130 l 304 130 l 304 326 l 174 326 l 174 456 l 304 456 l 304 651 l 174 651 l 174 564 l 43 564 l 43 651 q 82 743 43 705 q 174 781 120 781 l 304 781 q 396 743 358 781 q 434 651 434 705 l 434 521 z "},"4":{"ha":477,"x_min":43,"x_max":434,"o":"m 43 260 l 281 781 l 434 781 l 196 260 l 304 260 l 304 434 l 434 434 l 434 0 l 304 0 l 304 130 l 43 130 l 43 260 z "},"5":{"ha":477,"x_min":43,"x_max":434,"o":"m 391 781 l 391 651 l 218 651 l 187 462 q 199 483 193 473 q 260 521 224 521 l 304 521 q 396 483 358 521 q 434 391 434 445 l 434 130 q 396 38 434 76 q 304 0 357 0 l 174 0 q 81 38 119 0 q 43 130 43 76 l 43 217 l 174 217 l 174 130 l 304 130 l 304 391 l 43 391 l 108 781 l 391 781 z "},"6":{"ha":477,"x_min":43,"x_max":434,"o":"m 304 391 l 174 391 l 174 130 l 304 130 l 304 391 m 260 521 l 304 521 q 396 483 358 521 q 434 391 434 445 l 434 130 q 396 38 434 76 q 304 0 357 0 l 174 0 q 81 38 119 0 q 43 130 43 76 l 43 391 l 169 781 l 309 781 l 221 507 q 260 521 239 521 z "},"7":{"ha":477,"x_min":43,"x_max":434,"o":"m 434 781 l 184 0 l 43 0 l 252 651 l 43 651 l 43 781 l 434 781 z "},"8":{"ha":477,"x_min":43,"x_max":434,"o":"m 304 456 l 304 651 l 174 651 l 174 456 l 304 456 m 304 781 q 396 743 358 781 q 434 651 434 705 l 434 456 q 396 410 434 429 q 304 391 357 391 q 396 372 358 391 q 434 326 434 353 l 434 130 q 396 38 434 76 q 304 0 358 0 l 174 0 q 81 38 119 0 q 43 130 43 76 l 43 326 q 81 372 43 353 q 174 391 119 391 q 82 410 120 391 q 43 456 43 429 l 43 651 q 81 743 43 705 q 174 781 119 781 l 304 781 m 174 326 l 174 130 l 304 130 l 304 326 l 174 326 z "},"9":{"ha":477,"x_min":43,"x_max":434,"o":"m 174 391 l 304 391 l 304 651 l 174 651 l 174 391 m 217 260 l 174 260 q 81 298 119 260 q 43 391 43 336 l 43 651 q 82 743 43 705 q 174 781 120 781 l 304 781 q 396 743 358 781 q 434 651 434 705 l 434 391 l 309 0 l 168 0 l 256 274 q 217 260 239 260 z "},"\u0000":{"ha":477,"x_min":43,"x_max":434,"o":"m 304 651 l 174 651 l 174 130 l 304 130 l 304 651 m 434 781 l 434 0 l 43 0 l 43 781 l 434 781 z "},"\u001d":{"ha":477,"x_min":43,"x_max":434,"o":"m 304 651 l 174 651 l 174 130 l 304 130 l 304 651 m 434 781 l 434 0 l 43 0 l 43 781 l 434 781 z "}," ":{"ha":260,"x_min":0,"x_max":0,"o":""}," ":{"ha":260,"x_min":0,"x_max":0,"o":""},"a":{"ha":477,"x_min":43,"x_max":434,"o":"m 304 130 q 278 38 304 76 q 217 0 253 0 l 174 0 q 82 38 120 0 q 43 130 43 76 l 43 326 q 69 418 43 380 q 130 456 94 456 l 174 456 q 266 418 228 456 q 304 326 304 380 l 174 326 l 174 130 l 304 130 m 87 521 q 125 613 87 575 q 217 651 163 651 l 304 651 q 396 613 358 651 q 434 521 434 574 l 434 0 l 347 0 l 304 130 l 304 521 l 87 521 z "},"b":{"ha":477,"x_min":43,"x_max":434,"o":"m 260 0 q 199 38 224 0 q 174 130 174 76 l 304 130 l 304 521 l 174 521 q 199 613 174 574 q 260 651 224 651 l 304 651 q 396 613 357 651 q 434 521 434 574 l 434 130 q 396 38 434 76 q 304 0 357 0 l 260 0 m 43 781 l 174 781 l 174 130 l 130 0 l 43 0 l 43 781 z "},"c":{"ha":477,"x_min":43,"x_max":434,"o":"m 304 130 l 304 217 l 434 217 l 434 130 q 396 38 434 76 q 304 0 358 0 l 174 0 q 82 38 120 0 q 43 130 43 76 l 43 521 q 82 613 43 574 q 174 651 120 651 l 304 651 q 396 613 358 651 q 434 521 434 574 l 434 434 l 304 434 l 304 521 l 174 521 l 174 130 l 304 130 z "},"d":{"ha":477,"x_min":43,"x_max":434,"o":"m 304 130 q 278 38 304 76 q 217 0 253 0 l 174 0 q 82 38 120 0 q 43 130 43 76 l 43 521 q 82 613 43 574 q 174 651 120 651 l 217 651 q 278 613 253 651 q 304 521 304 574 l 174 521 l 174 130 l 304 130 m 304 781 l 434 781 l 434 0 l 347 0 l 304 130 l 304 781 z "},"e":{"ha":477,"x_min":43,"x_max":434,"o":"m 174 391 l 304 391 l 304 521 l 174 521 l 174 391 m 304 130 l 304 195 l 434 195 l 434 130 q 396 38 434 76 q 304 0 358 0 l 174 0 q 82 38 120 0 q 43 130 43 76 l 43 521 q 82 613 43 574 q 174 651 120 651 l 304 651 q 396 613 358 651 q 434 521 434 574 l 434 260 l 174 260 l 174 130 l 304 130 z "},"f":{"ha":347,"x_min":43,"x_max":304,"o":"m 239 0 l 109 0 l 109 456 l 43 456 l 43 586 l 109 586 l 109 651 q 147 743 109 705 q 239 781 185 781 l 304 781 l 304 651 l 239 651 l 239 586 l 304 586 l 304 456 l 239 456 l 239 0 z "},"g":{"ha":477,"x_min":43,"x_max":434,"o":"m 217 651 q 278 613 253 651 q 304 521 304 575 l 174 521 l 174 174 l 304 174 q 278 82 304 120 q 217 43 253 43 l 174 43 q 81 82 119 43 q 43 174 43 120 l 43 521 q 82 613 43 575 q 174 651 120 651 l 217 651 m 304 521 l 347 651 l 434 651 l 434 0 q 396 -92 434 -54 q 304 -130 358 -130 l 87 -130 l 174 0 l 304 0 l 304 521 z "},"h":{"ha":477,"x_min":43,"x_max":434,"o":"m 174 521 q 199 613 174 575 q 260 651 224 651 l 304 651 q 396 613 357 651 q 434 521 434 575 l 434 0 l 304 0 l 304 521 l 174 521 m 174 0 l 43 0 l 43 781 l 174 781 l 174 0 z "},"i":{"ha":217,"x_min":43,"x_max":174,"o":"m 174 0 l 43 0 l 43 651 l 174 651 l 174 0 m 43 781 l 174 781 l 174 716 l 43 716 l 43 781 z "},"j":{"ha":260,"x_min":-43,"x_max":217,"o":"m 87 781 l 217 781 l 217 716 l 87 716 l 87 781 m 87 651 l 217 651 l 217 0 q 179 -92 217 -54 q 87 -130 141 -130 l -43 -130 l 43 0 l 87 0 l 87 651 z "},"k":{"ha":477,"x_min":43,"x_max":434,"o":"m 43 781 l 174 781 l 174 338 l 294 651 l 434 651 l 281 252 l 434 0 l 281 0 l 174 177 l 174 0 l 43 0 l 43 781 z "},"l":{"ha":217,"x_min":43,"x_max":174,"o":"m 43 781 l 174 781 l 174 0 l 130 0 q 69 38 94 0 q 43 130 43 76 l 43 781 z "},"m":{"ha":608,"x_min":43,"x_max":564,"o":"m 564 521 l 564 0 l 434 0 l 434 521 l 369 521 q 388 613 369 575 q 434 651 407 651 q 526 613 488 651 q 564 521 564 575 m 369 0 l 239 0 l 239 521 l 174 521 q 193 613 174 575 q 239 651 212 651 q 331 613 293 651 q 369 521 369 575 l 369 0 m 43 651 l 130 651 l 174 521 l 174 0 l 43 0 l 43 651 z "},"n":{"ha":477,"x_min":43,"x_max":434,"o":"m 43 651 l 130 651 l 174 521 l 174 0 l 43 0 l 43 651 m 174 521 q 199 613 174 575 q 260 651 224 651 l 304 651 q 396 613 357 651 q 434 521 434 575 l 434 0 l 304 0 l 304 521 l 174 521 z "},"o":{"ha":477,"x_min":43,"x_max":434,"o":"m 174 130 l 304 130 l 304 521 l 174 521 l 174 130 m 43 130 l 43 521 q 82 613 43 574 q 174 651 120 651 l 304 651 q 396 613 358 651 q 434 521 434 574 l 434 130 q 396 38 434 76 q 304 0 358 0 l 174 0 q 82 38 120 0 q 43 130 43 76 z "},"p":{"ha":477,"x_min":43,"x_max":434,"o":"m 174 521 q 199 613 174 575 q 260 651 224 651 l 304 651 q 396 613 357 651 q 434 521 434 575 l 434 130 q 396 38 434 76 q 304 0 357 0 l 260 0 q 199 38 224 0 q 174 130 174 76 l 304 130 l 304 521 l 174 521 m 174 -130 l 43 -130 l 43 651 l 130 651 l 174 521 l 174 -130 z "},"q":{"ha":477,"x_min":43,"x_max":434,"o":"m 217 651 q 278 613 253 651 q 304 521 304 575 l 174 521 l 174 130 l 304 130 q 278 38 304 76 q 217 0 253 0 l 174 0 q 82 38 120 0 q 43 130 43 76 l 43 521 q 82 613 43 575 q 174 651 120 651 l 217 651 m 434 -130 l 304 -130 l 304 521 l 347 651 l 434 651 l 434 -130 z "},"r":{"ha":477,"x_min":43,"x_max":434,"o":"m 43 651 l 130 651 l 174 521 l 174 0 l 43 0 l 43 651 m 434 521 l 434 434 l 304 434 l 304 521 l 174 521 q 199 613 174 575 q 260 651 224 651 l 304 651 q 396 613 357 651 q 434 521 434 575 z "},"s":{"ha":477,"x_min":43,"x_max":434,"o":"m 174 0 q 82 38 120 0 q 43 130 43 76 l 44 130 l 44 217 l 174 217 l 174 130 l 304 130 l 304 148 l 43 456 l 43 521 q 82 613 43 575 q 174 651 120 651 l 304 651 q 396 613 358 651 q 434 521 434 575 l 434 434 l 304 434 l 304 521 l 174 521 l 174 503 l 434 195 l 434 130 q 396 38 434 76 q 304 0 358 0 l 174 0 z "},"t":{"ha":347,"x_min":43,"x_max":304,"o":"m 239 130 l 304 130 l 304 0 l 239 0 q 147 38 185 0 q 109 130 109 76 l 109 521 l 43 521 l 43 651 l 109 651 l 109 781 l 239 781 l 239 651 l 304 651 l 304 521 l 239 521 l 239 130 z "},"u":{"ha":477,"x_min":43,"x_max":434,"o":"m 304 651 l 434 651 l 434 0 l 347 0 l 304 130 l 304 651 m 304 130 q 278 38 304 76 q 217 0 253 0 l 174 0 q 82 38 120 0 q 43 130 43 76 l 43 651 l 174 651 l 174 130 l 304 130 z "},"v":{"ha":477,"x_min":43,"x_max":434,"o":"m 172 0 l 43 651 l 176 651 l 239 260 l 302 651 l 434 651 l 306 0 l 172 0 z "},"w":{"ha":738,"x_min":43,"x_max":694,"o":"m 172 0 l 43 651 l 176 651 l 239 260 l 302 651 l 436 651 l 499 260 l 562 651 l 694 651 l 566 0 l 432 0 l 369 391 l 306 0 l 172 0 z "},"x":{"ha":477,"x_min":43,"x_max":434,"o":"m 309 326 l 434 0 l 294 0 l 239 195 l 184 0 l 43 0 l 169 326 l 43 651 l 184 651 l 239 456 l 294 651 l 434 651 l 309 326 z "},"y":{"ha":477,"x_min":43,"x_max":434,"o":"m 43 -130 l 87 0 l 172 0 l 43 651 l 176 651 l 239 260 l 302 651 l 434 651 l 306 0 l 304 0 q 266 -92 304 -54 q 174 -130 228 -130 l 43 -130 z "},"z":{"ha":477,"x_min":43,"x_max":434,"o":"m 43 0 l 43 130 l 281 521 l 43 521 l 43 651 l 434 651 l 434 521 l 196 130 l 434 130 l 434 0 l 43 0 z "},"A":{"ha":477,"x_min":43,"x_max":434,"o":"m 275 260 l 239 651 l 202 260 l 275 260 m 434 0 l 304 0 l 290 130 l 188 130 l 174 0 l 43 0 l 129 781 l 349 781 l 434 0 z "},"B":{"ha":477,"x_min":43,"x_max":434,"o":"m 174 456 l 260 456 l 260 651 l 174 651 l 174 456 m 434 326 l 434 130 q 396 38 434 76 q 304 0 357 0 l 43 0 l 43 781 l 260 781 q 353 743 315 781 q 391 651 391 705 l 391 456 q 353 410 391 429 q 260 391 315 391 l 304 391 q 396 372 358 391 q 434 326 434 353 m 304 130 l 304 326 l 174 326 l 174 130 l 304 130 z "},"C":{"ha":477,"x_min":43,"x_max":434,"o":"m 304 130 l 304 260 l 434 260 l 434 130 q 396 38 434 76 q 304 0 358 0 l 174 0 q 82 38 120 0 q 43 130 43 76 l 43 651 q 82 743 43 705 q 174 781 120 781 l 304 781 q 396 743 358 781 q 434 651 434 705 l 434 521 l 304 521 l 304 651 l 174 651 l 174 130 l 304 130 z "},"D":{"ha":477,"x_min":43,"x_max":434,"o":"m 304 651 l 174 651 l 174 130 l 304 130 l 304 651 m 434 130 q 396 38 434 76 q 304 0 357 0 l 43 0 l 43 781 l 304 781 q 396 743 357 781 q 434 651 434 705 l 434 130 z "},"E":{"ha":477,"x_min":43,"x_max":434,"o":"m 434 781 l 434 651 l 174 651 l 174 456 l 391 456 l 391 326 l 174 326 l 174 130 l 434 130 l 434 0 l 43 0 l 43 781 l 434 781 z "},"F":{"ha":477,"x_min":43,"x_max":434,"o":"m 434 781 l 434 651 l 174 651 l 174 456 l 391 456 l 391 326 l 174 326 l 174 0 l 43 0 l 43 781 l 434 781 z "},"G":{"ha":477,"x_min":43,"x_max":434,"o":"m 434 651 l 434 564 l 304 564 l 304 651 l 174 651 l 174 130 l 304 130 q 278 38 304 76 q 217 0 253 0 l 174 0 q 82 38 120 0 q 43 130 43 76 l 43 651 q 82 743 43 705 q 174 781 120 781 l 304 781 q 396 743 358 781 q 434 651 434 705 m 304 326 l 260 326 l 260 456 l 434 456 l 434 0 l 347 0 l 304 130 l 304 326 z "},"H":{"ha":477,"x_min":43,"x_max":434,"o":"m 43 781 l 174 781 l 174 456 l 304 456 l 304 781 l 434 781 l 434 0 l 304 0 l 304 326 l 174 326 l 174 0 l 43 0 l 43 781 z "},"I":{"ha":217,"x_min":43,"x_max":174,"o":"m 174 0 l 43 0 l 43 781 l 174 781 l 174 0 z "},"J":{"ha":477,"x_min":43,"x_max":434,"o":"m 174 0 q 82 38 120 0 q 43 130 43 76 l 44 130 l 44 260 l 174 260 l 174 130 l 304 130 l 304 781 l 434 781 l 434 130 q 396 38 434 76 q 304 0 358 0 l 174 0 z "},"K":{"ha":477,"x_min":43,"x_max":434,"o":"m 174 260 l 174 0 l 43 0 l 43 781 l 174 781 l 174 391 l 294 781 l 434 781 l 281 302 l 434 0 l 281 0 l 174 260 z "},"L":{"ha":412,"x_min":43,"x_max":369,"o":"m 43 781 l 174 781 l 174 130 l 369 130 l 369 0 l 43 0 l 43 781 z "},"M":{"ha":738,"x_min":43,"x_max":694,"o":"m 174 391 l 174 0 l 43 0 l 43 781 l 184 781 l 369 195 l 554 781 l 694 781 l 694 0 l 564 0 l 564 391 l 444 0 l 294 0 l 174 391 z "},"N":{"ha":477,"x_min":43,"x_max":434,"o":"m 43 781 l 184 781 l 304 391 l 304 781 l 434 781 l 434 0 l 294 0 l 174 391 l 174 0 l 43 0 l 43 781 z "},"O":{"ha":477,"x_min":43,"x_max":434,"o":"m 174 130 l 304 130 l 304 651 l 174 651 l 174 130 m 43 130 l 43 651 q 82 743 43 705 q 174 781 120 781 l 304 781 q 396 743 358 781 q 434 651 434 705 l 434 130 q 396 38 434 76 q 304 0 358 0 l 174 0 q 82 38 120 0 q 43 130 43 76 z "},"P":{"ha":477,"x_min":43,"x_max":434,"o":"m 304 651 l 174 651 l 174 391 l 304 391 l 304 651 m 434 651 l 434 391 q 396 298 434 336 q 304 260 357 260 l 174 260 l 174 0 l 43 0 l 43 781 l 304 781 q 396 743 357 781 q 434 651 434 705 z "},"Q":{"ha":477,"x_min":43,"x_max":434,"o":"m 174 130 l 304 130 l 304 651 l 174 651 l 174 130 m 43 130 l 43 651 q 82 743 43 705 q 174 781 120 781 l 304 781 q 396 743 358 781 q 434 651 434 705 l 434 130 l 304 0 l 434 0 l 391 -130 l 260 -130 q 199 -92 224 -130 q 174 0 174 -54 q 82 38 120 0 q 43 130 43 76 z "},"R":{"ha":477,"x_min":43,"x_max":434,"o":"m 304 651 l 174 651 l 174 391 l 304 391 l 304 651 m 434 651 l 434 391 q 396 298 434 336 q 333 263 368 271 l 434 0 l 294 0 l 194 260 l 174 260 l 174 0 l 43 0 l 43 781 l 304 781 q 396 743 357 781 q 434 651 434 705 z "},"S":{"ha":477,"x_min":43,"x_max":434,"o":"m 174 0 q 82 38 120 0 q 43 130 43 76 l 44 130 l 44 260 l 174 260 l 174 130 l 304 130 l 304 213 l 43 521 l 43 651 q 82 743 43 705 q 174 781 120 781 l 304 781 q 396 743 358 781 q 434 651 434 705 l 434 521 l 304 521 l 304 651 l 174 651 l 174 568 l 434 260 l 434 130 q 396 38 434 76 q 304 0 358 0 l 174 0 z "},"T":{"ha":477,"x_min":43,"x_max":434,"o":"m 304 0 l 174 0 l 174 651 l 43 651 l 43 781 l 434 781 l 434 651 l 304 651 l 304 0 z "},"U":{"ha":477,"x_min":43,"x_max":434,"o":"m 304 781 l 434 781 l 434 130 q 396 38 434 76 q 304 0 358 0 l 174 0 q 82 38 120 0 q 43 130 43 76 l 43 781 l 174 781 l 174 130 l 304 130 l 304 781 z "},"V":{"ha":477,"x_min":43,"x_max":434,"o":"m 172 0 l 43 781 l 176 781 l 239 260 l 302 781 l 434 781 l 306 0 l 172 0 z "},"W":{"ha":738,"x_min":43,"x_max":694,"o":"m 566 0 l 432 0 l 369 391 l 306 0 l 172 0 l 43 781 l 176 781 l 239 260 l 302 781 l 436 781 l 499 260 l 562 781 l 694 781 l 566 0 z "},"X":{"ha":477,"x_min":43,"x_max":434,"o":"m 309 391 l 434 0 l 294 0 l 239 260 l 184 0 l 43 0 l 169 391 l 43 781 l 184 781 l 239 521 l 294 781 l 434 781 l 309 391 z "},"Y":{"ha":477,"x_min":43,"x_max":434,"o":"m 239 391 l 302 781 l 434 781 l 304 260 l 304 0 l 174 0 l 174 260 l 43 781 l 176 781 l 239 391 z "},"Z":{"ha":477,"x_min":43,"x_max":434,"o":"m 43 0 l 43 130 l 281 651 l 43 651 l 43 781 l 434 781 l 434 651 l 196 130 l 434 130 l 434 0 l 43 0 z "},".":{"ha":217,"x_min":43,"x_max":174,"o":"m 43 130 l 174 130 l 174 0 l 43 0 l 43 130 z "},":":{"ha":217,"x_min":43,"x_max":174,"o":"m 43 130 l 174 130 l 174 0 l 43 0 l 43 130 m 43 651 l 174 651 l 174 521 l 43 521 l 43 651 z "},",":{"ha":217,"x_min":43,"x_max":174,"o":"m 43 130 l 174 130 l 174 -43 l 43 -130 l 43 130 z "},";":{"ha":217,"x_min":43,"x_max":174,"o":"m 43 130 l 174 130 l 174 -43 l 43 -130 l 43 130 m 43 651 l 174 651 l 174 521 l 43 521 l 43 651 z "},"'":{"ha":217,"x_min":43,"x_max":174,"o":"m 87 521 l 43 651 l 43 781 l 174 781 l 174 651 l 130 521 l 87 521 z "},"\"":{"ha":412,"x_min":43,"x_max":369,"o":"m 87 521 l 43 651 l 43 781 l 174 781 l 174 651 l 130 521 l 87 521 m 282 521 l 239 651 l 239 781 l 369 781 l 369 651 l 326 521 l 282 521 z "},"(":{"ha":347,"x_min":43,"x_max":304,"o":"m 43 391 l 172 911 l 304 911 l 176 391 l 304 -130 l 172 -130 l 43 391 z "},"!":{"ha":217,"x_min":43,"x_max":174,"o":"m 174 0 l 43 0 l 43 130 l 174 130 l 174 0 m 174 391 l 130 217 l 87 217 l 43 391 l 43 781 l 174 781 l 174 391 z "},"?":{"ha":477,"x_min":43,"x_max":434,"o":"m 304 0 l 174 0 l 174 130 l 304 130 l 304 0 m 304 260 l 304 217 l 174 217 l 174 260 l 304 521 l 304 651 l 174 651 l 174 521 l 43 521 l 43 651 q 81 743 43 705 q 174 781 119 781 l 304 781 q 396 743 358 781 q 434 651 434 705 l 434 521 l 304 260 z "},")":{"ha":347,"x_min":43,"x_max":304,"o":"m 172 391 l 43 911 l 176 911 l 304 391 l 176 -130 l 43 -130 l 172 391 z "},"+":{"ha":477,"x_min":43,"x_max":434,"o":"m 174 391 l 174 521 l 304 521 l 304 391 l 434 391 l 434 260 l 304 260 l 304 130 l 174 130 l 174 260 l 43 260 l 43 391 l 174 391 z "},"-":{"ha":347,"x_min":43,"x_max":304,"o":"m 304 391 l 304 260 l 43 260 l 43 391 l 304 391 z "},"*":{"ha":477,"x_min":43,"x_max":434,"o":"m 317 553 l 400 471 l 354 425 l 271 507 l 271 391 l 206 391 l 206 507 l 123 425 l 77 471 l 160 553 l 43 553 l 43 618 l 160 618 l 77 701 l 123 747 l 206 665 l 206 781 l 271 781 l 271 665 l 354 747 l 400 701 l 317 618 l 434 618 l 434 553 l 317 553 z "},"/":{"ha":347,"x_min":43,"x_max":304,"o":"m 176 -130 l 43 -130 l 172 781 l 304 781 l 176 -130 z "},"=":{"ha":347,"x_min":43,"x_max":304,"o":"m 43 174 l 43 260 l 304 260 l 304 174 l 43 174 m 43 391 l 43 477 l 304 477 l 304 391 l 43 391 z "},"\\":{"ha":347,"x_min":43,"x_max":304,"o":"m 172 -130 l 43 781 l 176 781 l 304 -130 l 172 -130 z "},"#":{"ha":608,"x_min":43,"x_max":564,"o":"m 283 456 l 262 326 l 325 326 l 346 456 l 283 456 m 130 326 l 151 456 l 43 456 l 43 586 l 172 586 l 204 781 l 336 781 l 304 586 l 368 586 l 399 781 l 532 781 l 500 586 l 564 586 l 564 456 l 478 456 l 457 326 l 564 326 l 564 195 l 435 195 l 404 0 l 271 0 l 303 195 l 240 195 l 208 0 l 76 0 l 108 195 l 43 195 l 43 326 l 130 326 z "},"☡":{"ha":477,"x_min":43,"x_max":434,"o":"m 239 521 l 176 0 l 43 0 l 172 781 l 369 781 l 369 130 l 434 130 l 434 0 l 239 0 l 239 521 z "},"�":{"ha":608,"x_min":43,"x_max":564,"o":"m 353 195 l 255 195 l 255 98 l 353 98 l 353 195 m 353 293 l 450 488 l 450 586 q 422 655 450 627 q 353 684 393 684 l 255 684 q 186 655 214 684 q 157 586 157 627 l 157 488 l 255 488 l 255 586 l 353 586 l 353 488 l 255 293 l 255 260 l 353 260 l 353 293 m 393 -130 l 214 -130 l 43 391 l 214 911 l 393 911 l 564 391 l 393 -130 z "},"￼":{"ha":738,"x_min":43,"x_max":694,"o":"m 336 423 l 380 423 l 380 521 l 336 521 l 336 423 m 467 358 l 467 260 q 448 214 467 233 q 401 195 429 195 l 271 195 l 271 586 l 380 586 q 426 567 407 586 q 445 521 445 548 l 445 423 q 426 400 445 410 q 380 391 407 391 l 401 391 q 448 381 429 391 q 467 358 467 372 m 401 260 l 401 358 l 336 358 l 336 260 l 401 260 m 109 260 l 174 260 l 174 521 l 109 521 l 109 260 m 43 260 l 43 521 q 63 567 43 548 q 109 586 82 586 l 174 586 q 220 567 201 586 q 239 521 239 548 l 239 260 q 220 214 239 233 q 174 195 201 195 l 109 195 q 63 214 82 195 q 43 260 43 233 m 564 195 q 518 214 538 195 q 499 260 499 233 l 500 260 l 500 326 l 565 326 l 565 260 l 629 260 l 629 586 l 694 586 l 694 260 q 675 214 694 233 q 629 195 656 195 l 564 195 z "},"[":{"ha":347,"x_min":43,"x_max":304,"o":"m 304 911 l 304 781 l 174 781 l 174 0 l 304 0 l 304 -130 l 43 -130 l 43 911 l 304 911 z "},"]":{"ha":347,"x_min":43,"x_max":304,"o":"m 174 781 l 43 781 l 43 911 l 304 911 l 304 -130 l 43 -130 l 43 0 l 174 0 l 174 781 z "},"{":{"ha":347,"x_min":43,"x_max":304,"o":"m 109 781 q 147 873 109 836 q 239 911 185 911 l 304 911 l 304 781 l 239 781 l 239 521 q 201 429 239 467 q 174 408 188 416 l 174 374 q 201 353 188 366 q 239 260 239 315 l 239 0 l 304 0 l 304 -130 l 239 -130 q 147 -92 185 -130 q 109 0 109 -54 l 109 277 q 82 298 94 286 q 43 391 43 336 q 82 483 43 445 q 109 504 94 495 l 109 781 z "},"}":{"ha":347,"x_min":43,"x_max":304,"o":"m 239 781 l 239 504 q 265 483 253 495 q 304 391 304 445 q 265 298 304 336 q 239 277 253 286 l 239 0 q 200 -92 239 -54 q 109 -130 162 -130 l 43 -130 l 43 0 l 109 0 l 109 260 q 146 353 109 315 q 174 374 159 366 l 174 408 q 146 429 159 416 q 109 521 109 467 l 109 781 l 43 781 l 43 911 l 109 911 q 200 873 162 911 q 239 781 239 836 z "},"_":{"ha":477,"x_min":43,"x_max":434,"o":"m 434 0 l 434 -130 l 43 -130 l 43 0 l 434 0 z "},"‾":{"ha":477,"x_min":43,"x_max":434,"o":"m 434 911 l 434 781 l 43 781 l 43 911 l 434 911 z "},"…":{"ha":608,"x_min":43,"x_max":564,"o":"m 43 130 l 174 130 l 174 0 l 43 0 l 43 130 m 239 130 l 369 130 l 369 0 l 239 0 l 239 130 m 434 130 l 564 130 l 564 0 l 434 0 l 434 130 z "},"­":{"ha":347,"x_min":43,"x_max":304,"o":"m 304 391 l 304 260 l 43 260 l 43 391 l 304 391 z "},"−":{"ha":477,"x_min":43,"x_max":434,"o":"m 434 391 l 434 260 l 43 260 l 43 391 l 434 391 z "},"‐":{"ha":347,"x_min":43,"x_max":304,"o":"m 304 391 l 304 260 l 43 260 l 43 391 l 304 391 z "},"‑":{"ha":391,"x_min":0,"x_max":391,"o":"m 391 391 l 391 260 l 0 260 l 0 391 l 391 391 z "},"‒":{"ha":477,"x_min":43,"x_max":434,"o":"m 434 391 l 434 260 l 43 260 l 43 391 l 434 391 z "},"–":{"ha":477,"x_min":43,"x_max":434,"o":"m 434 391 l 434 260 l 43 260 l 43 391 l 434 391 z "},"—":{"ha":608,"x_min":43,"x_max":564,"o":"m 564 391 l 564 260 l 43 260 l 43 391 l 564 391 z "},"―":{"ha":868,"x_min":43,"x_max":825,"o":"m 825 391 l 825 260 l 43 260 l 43 391 l 825 391 z "},"|":{"ha":217,"x_min":43,"x_max":174,"o":"m 43 911 l 174 911 l 174 -130 l 43 -130 l 43 911 z "},"¦":{"ha":217,"x_min":43,"x_max":174,"o":"m 174 -130 l 43 -130 l 43 260 l 174 260 l 174 -130 m 43 911 l 174 911 l 174 521 l 43 521 l 43 911 z "},"⁄":{"ha":347,"x_min":43,"x_max":304,"o":"m 176 0 l 43 0 l 172 781 l 304 781 l 176 0 z "},"∕":{"ha":347,"x_min":43,"x_max":304,"o":"m 176 0 l 43 0 l 172 781 l 304 781 l 176 0 z "},"·":{"ha":217,"x_min":43,"x_max":174,"o":"m 43 456 l 174 456 l 174 326 l 43 326 l 43 456 z "},"∙":{"ha":217,"x_min":43,"x_max":174,"o":"m 43 391 l 174 391 l 174 260 l 43 260 l 43 391 z "},"•":{"ha":347,"x_min":43,"x_max":304,"o":"m 174 260 q 81 298 119 260 q 43 391 43 336 q 81 483 43 445 q 174 521 119 521 q 266 483 228 521 q 304 391 304 445 q 266 298 304 336 q 174 260 228 260 z "},"‣":{"ha":347,"x_min":43,"x_max":304,"o":"m 304 391 l 43 260 l 43 521 l 304 391 z "},"‥":{"ha":412,"x_min":43,"x_max":369,"o":"m 43 130 l 174 130 l 174 0 l 43 0 l 43 130 m 239 130 l 369 130 l 369 0 l 239 0 l 239 130 z "},"․":{"ha":217,"x_min":43,"x_max":174,"o":"m 43 130 l 174 130 l 174 0 l 43 0 l 43 130 z "},"¬":{"ha":477,"x_min":43,"x_max":434,"o":"m 434 195 l 304 195 l 304 326 l 43 326 l 43 456 l 434 456 l 434 195 z "},"⌐":{"ha":477,"x_min":43,"x_max":434,"o":"m 174 326 l 174 195 l 43 195 l 43 456 l 434 456 l 434 326 l 174 326 z "},"ʹ":{"ha":217,"x_min":43,"x_max":174,"o":"m 87 521 l 43 651 l 43 781 l 174 781 l 174 651 l 130 521 l 87 521 z "},"ʺ":{"ha":412,"x_min":43,"x_max":369,"o":"m 87 521 l 43 651 l 43 781 l 174 781 l 174 651 l 130 521 l 87 521 m 282 521 l 239 651 l 239 781 l 369 781 l 369 651 l 326 521 l 282 521 z "},"ʻ":{"ha":217,"x_min":43,"x_max":174,"o":"m 87 521 l 43 651 l 43 781 l 174 781 l 174 651 l 130 521 l 87 521 z "},"ʼ":{"ha":217,"x_min":43,"x_max":174,"o":"m 87 521 l 43 651 l 43 781 l 174 781 l 174 651 l 130 521 l 87 521 z "},"ʽ":{"ha":217,"x_min":43,"x_max":174,"o":"m 87 521 l 43 651 l 43 781 l 174 781 l 174 651 l 130 521 l 87 521 z "},"‘":{"ha":217,"x_min":43,"x_max":174,"o":"m 87 521 l 43 651 l 43 781 l 174 781 l 174 651 l 130 521 l 87 521 z "},"’":{"ha":217,"x_min":43,"x_max":174,"o":"m 87 521 l 43 651 l 43 781 l 174 781 l 174 651 l 130 521 l 87 521 z "},"‚":{"ha":217,"x_min":43,"x_max":174,"o":"m 87 -130 l 43 0 l 43 130 l 174 130 l 174 0 l 130 -130 l 87 -130 z "},"‛":{"ha":217,"x_min":43,"x_max":174,"o":"m 87 521 l 43 651 l 43 781 l 174 781 l 174 651 l 130 521 l 87 521 z "},"“":{"ha":412,"x_min":43,"x_max":369,"o":"m 87 521 l 43 651 l 43 781 l 174 781 l 174 651 l 130 521 l 87 521 m 282 521 l 239 651 l 239 781 l 369 781 l 369 651 l 326 521 l 282 521 z "},"”":{"ha":412,"x_min":43,"x_max":369,"o":"m 87 521 l 43 651 l 43 781 l 174 781 l 174 651 l 130 521 l 87 521 m 282 521 l 239 651 l 239 781 l 369 781 l 369 651 l 326 521 l 282 521 z "},"„":{"ha":412,"x_min":43,"x_max":369,"o":"m 87 -130 l 43 0 l 43 130 l 174 130 l 174 0 l 130 -130 l 87 -130 m 282 -130 l 239 0 l 239 130 l 369 130 l 369 0 l 326 -130 l 282 -130 z "},"‟":{"ha":412,"x_min":43,"x_max":369,"o":"m 87 521 l 43 651 l 43 781 l 174 781 l 174 651 l 130 521 l 87 521 m 282 521 l 239 651 l 239 781 l 369 781 l 369 651 l 326 521 l 282 521 z "},"′":{"ha":217,"x_min":43,"x_max":174,"o":"m 87 521 l 43 651 l 43 781 l 174 781 l 174 651 l 130 521 l 87 521 z "},"″":{"ha":412,"x_min":43,"x_max":369,"o":"m 87 521 l 43 651 l 43 781 l 174 781 l 174 651 l 130 521 l 87 521 m 282 521 l 239 651 l 239 781 l 369 781 l 369 651 l 326 521 l 282 521 z "},"%":{"ha":738,"x_min":43,"x_max":694,"o":"m 217 694 l 130 694 l 130 608 l 217 608 l 217 694 m 314 0 l 174 0 l 424 781 l 564 781 l 314 0 m 608 260 q 669 235 644 260 q 694 174 694 210 l 694 87 q 669 25 694 50 q 608 0 644 0 l 521 0 q 459 25 485 0 q 434 87 434 50 l 434 174 q 459 235 434 210 q 521 260 485 260 l 608 260 m 608 174 l 521 174 l 521 87 l 608 87 l 608 174 m 217 781 q 278 756 253 781 q 304 694 304 730 l 304 608 q 278 546 304 571 q 217 521 253 521 l 130 521 q 69 546 94 521 q 43 608 43 571 l 43 694 q 69 756 43 730 q 130 781 94 781 l 217 781 z "},"‰":{"ha":1042,"x_min":43,"x_max":998,"o":"m 911 174 l 825 174 l 825 87 l 911 87 l 911 174 m 314 0 l 174 0 l 424 781 l 564 781 l 314 0 m 608 260 q 669 235 644 260 q 694 174 694 210 l 694 87 q 669 25 694 50 q 608 0 644 0 l 521 0 q 459 25 485 0 q 434 87 434 50 l 434 174 q 459 235 434 210 q 521 260 485 260 l 608 260 m 608 174 l 521 174 l 521 87 l 608 87 l 608 174 m 217 781 q 278 756 253 781 q 304 694 304 730 l 304 608 q 278 546 304 571 q 217 521 253 521 l 130 521 q 69 546 94 521 q 43 608 43 571 l 43 694 q 69 756 43 730 q 130 781 94 781 l 217 781 m 217 694 l 130 694 l 130 608 l 217 608 l 217 694 m 911 260 q 973 235 947 260 q 998 174 998 210 l 998 87 q 973 25 998 51 q 911 0 947 0 l 825 0 q 763 25 789 0 q 738 87 738 51 l 738 174 q 763 235 738 210 q 825 260 789 260 l 911 260 z "},"℅":{"ha":738,"x_min":43,"x_max":694,"o":"m 217 608 l 217 629 l 304 629 l 304 608 q 278 546 304 571 q 217 521 253 521 l 130 521 q 69 546 94 521 q 43 608 43 571 l 43 694 q 69 756 43 730 q 130 781 94 781 l 217 781 q 278 756 253 781 q 304 694 304 730 l 304 673 l 217 673 l 217 694 l 130 694 l 130 608 l 217 608 m 314 0 l 174 0 l 424 781 l 564 781 l 314 0 m 608 260 q 669 235 644 260 q 694 174 694 210 l 694 87 q 669 25 694 50 q 608 0 644 0 l 521 0 q 459 25 485 0 q 434 87 434 50 l 434 174 q 459 235 434 210 q 521 260 485 260 l 608 260 m 608 174 l 521 174 l 521 87 l 608 87 l 608 174 z "},"⁒":{"ha":477,"x_min":43,"x_max":434,"o":"m 184 0 l 43 0 l 294 781 l 434 781 l 184 0 m 174 564 l 43 564 l 43 694 l 174 694 l 174 564 m 434 87 l 304 87 l 304 217 l 434 217 l 434 87 z "},"™":{"ha":673,"x_min":43,"x_max":629,"o":"m 174 391 l 109 391 l 109 716 l 43 716 l 43 781 l 239 781 l 239 716 l 174 716 l 174 391 m 369 578 l 369 391 l 304 391 l 304 781 l 374 781 l 467 492 l 559 781 l 629 781 l 629 391 l 564 391 l 564 578 l 505 391 l 429 391 l 369 578 z "},"℠":{"ha":673,"x_min":43,"x_max":629,"o":"m 369 578 l 369 391 l 304 391 l 304 781 l 374 781 l 467 492 l 559 781 l 629 781 l 629 391 l 564 391 l 564 578 l 505 391 l 429 391 l 369 578 m 109 391 q 63 410 82 391 q 43 456 43 429 l 44 456 l 44 521 l 109 521 l 109 456 l 174 456 l 174 497 l 43 651 l 43 716 q 63 762 43 743 q 109 781 82 781 l 174 781 q 220 762 201 781 q 239 716 239 743 l 239 651 l 174 651 l 174 716 l 109 716 l 109 675 l 239 521 l 239 456 q 220 410 239 429 q 174 391 201 391 l 109 391 z "},"ↄ":{"ha":477,"x_min":43,"x_max":434,"o":"m 174 130 l 304 130 l 304 521 l 174 521 l 174 434 l 43 434 l 43 521 q 81 613 43 574 q 174 651 119 651 l 304 651 q 396 613 357 651 q 434 521 434 574 l 434 130 q 396 38 434 76 q 304 0 357 0 l 174 0 q 81 38 119 0 q 43 130 43 76 l 43 217 l 174 217 l 174 130 z "},"@":{"ha":608,"x_min":43,"x_max":564,"o":"m 347 87 q 255 125 294 87 q 217 217 217 163 l 347 217 l 347 87 m 347 218 l 217 218 l 217 412 l 347 412 l 347 218 m 521 0 l 477 -130 l 174 -130 q 82 -92 120 -130 q 43 0 43 -54 l 43 651 q 82 743 43 705 q 174 781 120 781 l 434 781 q 526 743 488 781 q 564 651 564 705 l 564 87 l 477 87 l 435 215 q 410 125 434 162 q 348 87 384 87 l 348 217 l 434 217 l 434 412 l 348 412 l 348 543 q 410 505 384 543 q 434 429 431 473 l 434 651 l 174 651 l 174 0 l 521 0 m 347 413 l 217 413 q 255 505 217 467 q 347 543 294 543 l 347 413 z "},"©":{"ha":608,"x_min":43,"x_max":564,"o":"m 336 293 l 336 336 l 401 336 l 401 293 q 382 247 401 266 q 336 228 363 228 l 271 228 q 225 247 245 228 q 206 293 206 266 l 206 488 q 225 534 206 515 q 271 553 245 553 l 336 553 q 382 534 363 553 q 401 488 401 515 l 401 445 l 336 445 l 336 488 l 271 488 l 271 293 l 336 293 m 304 65 q 120 160 196 65 q 43 391 43 256 q 120 621 43 526 q 304 716 196 716 q 488 621 412 716 q 564 391 564 526 q 488 160 564 256 q 304 65 412 65 m 304 130 q 442 207 385 130 q 499 391 499 283 q 442 575 499 498 q 304 651 385 651 q 166 575 223 651 q 109 391 109 498 q 166 207 109 283 q 304 130 223 130 z "},"®":{"ha":608,"x_min":43,"x_max":564,"o":"m 304 65 q 120 160 196 65 q 43 391 43 256 q 120 621 43 526 q 304 716 196 716 q 488 621 412 716 q 564 391 564 526 q 488 160 564 256 q 304 65 412 65 m 304 130 q 442 207 385 130 q 499 391 499 283 q 442 575 499 498 q 304 651 385 651 q 166 575 223 651 q 109 391 109 498 q 166 207 109 283 q 304 130 223 130 m 410 488 l 410 423 q 391 377 410 396 q 359 359 377 363 l 410 228 l 340 228 l 290 358 l 279 358 l 279 228 l 214 228 l 214 553 l 345 553 q 391 534 372 553 q 410 488 410 515 m 345 423 l 345 488 l 279 488 l 279 423 l 345 423 z "},"℗":{"ha":608,"x_min":43,"x_max":564,"o":"m 304 65 q 120 160 196 65 q 43 391 43 256 q 120 621 43 526 q 304 716 196 716 q 488 621 412 716 q 564 391 564 526 q 488 160 564 256 q 304 65 412 65 m 304 130 q 442 207 385 130 q 499 391 499 283 q 442 575 499 498 q 304 651 385 651 q 166 575 223 651 q 109 391 109 498 q 166 207 109 283 q 304 130 223 130 m 410 488 l 410 423 q 391 377 410 396 q 345 358 372 358 l 279 358 l 279 228 l 214 228 l 214 553 l 345 553 q 391 534 372 553 q 410 488 410 515 m 345 423 l 345 488 l 279 488 l 279 423 l 345 423 z "},"¡":{"ha":217,"x_min":43,"x_max":174,"o":"m 174 -130 l 43 -130 l 43 260 l 87 433 l 130 433 l 174 260 l 174 -130 m 174 521 l 43 521 l 43 651 l 174 651 l 174 521 z "},"¿":{"ha":477,"x_min":43,"x_max":434,"o":"m 304 521 l 174 521 l 174 651 l 304 651 l 304 521 m 174 391 l 174 434 l 304 434 l 304 391 l 174 130 l 174 0 l 304 0 l 304 130 l 434 130 l 434 0 q 396 -92 434 -54 q 304 -130 358 -130 l 174 -130 q 82 -92 120 -130 q 43 0 43 -54 l 43 130 l 174 391 z "},"±":{"ha":477,"x_min":43,"x_max":434,"o":"m 434 87 l 434 0 l 43 0 l 43 87 l 434 87 m 174 391 l 174 521 l 304 521 l 304 391 l 434 391 l 434 260 l 304 260 l 304 174 l 174 174 l 174 260 l 43 260 l 43 391 l 174 391 z "},"÷":{"ha":477,"x_min":43,"x_max":434,"o":"m 174 195 l 304 195 l 304 65 l 174 65 l 174 195 m 174 586 l 304 586 l 304 456 l 174 456 l 174 586 m 43 282 l 43 369 l 434 369 l 434 282 l 43 282 z "},"×":{"ha":477,"x_min":54,"x_max":423,"o":"m 146 326 l 54 417 l 146 509 l 239 417 l 331 509 l 423 417 l 331 326 l 423 233 l 331 141 l 239 233 l 146 141 l 54 233 l 146 326 z "},"$":{"ha":477,"x_min":43,"x_max":434,"o":"m 271 0 l 271 -130 l 206 -130 l 206 0 l 174 0 q 82 38 120 0 q 43 130 43 76 l 44 130 l 44 260 l 174 260 l 174 130 l 206 130 l 206 328 l 43 521 l 43 651 q 82 743 43 705 q 174 781 120 781 l 206 781 l 206 911 l 271 911 l 271 781 l 304 781 q 396 743 358 781 q 434 651 434 705 l 434 521 l 304 521 l 304 651 l 271 651 l 271 453 l 434 260 l 434 130 q 396 38 434 76 q 304 0 358 0 l 271 0 m 206 530 l 206 651 l 174 651 l 174 568 l 206 530 m 271 252 l 271 130 l 304 130 l 304 213 l 271 252 z "},"€":{"ha":477,"x_min":43,"x_max":434,"o":"m 369 521 l 304 434 l 239 434 l 239 347 l 369 347 l 304 260 l 239 260 l 239 130 l 304 130 l 304 195 l 434 195 l 434 130 q 396 38 434 76 q 304 0 358 0 l 239 0 q 147 38 185 0 q 109 130 109 76 l 109 260 l 43 260 l 43 347 l 109 347 l 109 434 l 43 434 l 43 521 l 109 521 l 109 651 q 147 743 109 705 q 239 781 185 781 l 304 781 q 396 743 358 781 q 434 651 434 705 l 434 586 l 304 586 l 304 651 l 239 651 l 239 521 l 369 521 z "},"⃀":{"ha":477,"x_min":43,"x_max":434,"o":"m 434 0 l 43 0 l 43 130 l 434 130 l 434 0 m 434 651 l 434 586 l 304 586 l 304 651 l 174 651 l 174 391 l 304 391 l 304 456 l 434 456 l 434 391 q 396 298 434 336 q 304 260 358 260 l 174 260 q 82 298 120 260 q 43 391 43 336 l 43 651 q 82 743 43 705 q 174 781 120 781 l 304 781 q 396 743 358 781 q 434 651 434 705 z "},"₸":{"ha":477,"x_min":43,"x_max":434,"o":"m 434 781 l 434 651 l 43 651 l 43 781 l 434 781 m 304 0 l 174 0 l 174 434 l 43 434 l 43 564 l 434 564 l 434 434 l 304 434 l 304 0 z "},"〒":{"ha":608,"x_min":43,"x_max":564,"o":"m 369 391 l 369 0 l 239 0 l 239 391 l 43 391 l 43 521 l 564 521 l 564 391 l 369 391 m 564 651 l 43 651 l 43 781 l 564 781 l 564 651 z "},"°":{"ha":477,"x_min":43,"x_max":434,"o":"m 304 651 l 174 651 l 174 521 l 304 521 l 304 651 m 304 781 q 396 743 358 781 q 434 651 434 705 l 434 521 q 396 429 434 467 q 304 391 358 391 l 174 391 q 82 429 120 391 q 43 521 43 467 l 43 651 q 82 743 43 705 q 174 781 120 781 l 304 781 z "},"µ":{"ha":477,"x_min":43,"x_max":434,"o":"m 434 0 l 347 0 l 304 130 l 304 651 l 434 651 l 434 0 m 43 651 l 174 651 l 174 130 l 304 130 q 278 38 304 76 q 217 0 253 0 l 174 0 l 174 -130 l 43 -130 l 43 651 z "},"<":{"ha":477,"x_min":43,"x_max":434,"o":"m 195 326 l 434 249 l 434 109 l 43 234 l 43 418 l 434 543 l 434 402 l 195 326 z "},">":{"ha":477,"x_min":43,"x_max":434,"o":"m 434 234 l 43 109 l 43 249 l 283 326 l 43 402 l 43 543 l 434 418 l 434 234 z "},"^":{"ha":477,"x_min":43,"x_max":434,"o":"m 239 562 l 184 391 l 43 391 l 169 781 l 309 781 l 434 391 l 294 391 l 239 562 z "},"≤":{"ha":477,"x_min":43,"x_max":434,"o":"m 434 0 l 43 0 l 43 87 l 434 87 l 434 0 m 195 326 l 434 249 l 434 109 l 43 234 l 43 418 l 434 543 l 434 402 l 195 326 z "},"≥":{"ha":477,"x_min":43,"x_max":434,"o":"m 434 0 l 43 0 l 43 87 l 434 87 l 434 0 m 434 234 l 43 109 l 43 249 l 283 326 l 43 402 l 43 543 l 434 418 l 434 234 z "},"₵":{"ha":477,"x_min":43,"x_max":434,"o":"m 271 0 l 271 -130 l 206 -130 l 206 0 l 174 0 q 82 38 120 0 q 43 130 43 76 l 43 651 q 82 743 43 705 q 174 781 120 781 l 206 781 l 206 911 l 271 911 l 271 781 l 304 781 q 396 743 358 781 q 434 651 434 705 l 434 521 l 304 521 l 304 651 l 271 651 l 271 130 l 304 130 l 304 260 l 434 260 l 434 130 q 396 38 434 76 q 304 0 358 0 l 271 0 m 206 130 l 206 651 l 174 651 l 174 130 l 206 130 z "},"¢":{"ha":477,"x_min":43,"x_max":434,"o":"m 271 0 l 271 -130 l 206 -130 l 206 0 l 174 0 q 82 38 120 0 q 43 130 43 76 l 43 521 q 82 613 43 574 q 174 651 120 651 l 206 651 l 206 781 l 271 781 l 271 651 l 304 651 q 396 613 358 651 q 434 521 434 574 l 434 434 l 304 434 l 304 521 l 271 521 l 271 130 l 304 130 l 304 217 l 434 217 l 434 130 q 396 38 434 76 q 304 0 358 0 l 271 0 m 206 130 l 206 521 l 174 521 l 174 130 l 206 130 z "},"¥":{"ha":477,"x_min":43,"x_max":434,"o":"m 336 391 l 434 391 l 434 304 l 315 304 l 304 260 l 304 217 l 434 217 l 434 130 l 304 130 l 304 0 l 174 0 l 174 130 l 43 130 l 43 217 l 174 217 l 174 260 l 163 304 l 43 304 l 43 391 l 141 391 l 43 781 l 176 781 l 239 525 l 302 781 l 434 781 l 336 391 z "},"円":{"ha":608,"x_min":43,"x_max":564,"o":"m 564 0 l 434 0 l 434 260 l 174 260 l 174 0 l 43 0 l 43 781 l 564 781 l 564 0 m 369 651 l 369 391 l 434 391 l 434 651 l 369 651 m 239 391 l 239 651 l 174 651 l 174 391 l 239 391 z "}," ":{"ha":217,"x_min":0,"x_max":0,"o":""},"​":{"ha":0,"x_min":0,"x_max":0,"o":""},"ℓ":{"ha":477,"x_min":43,"x_max":434,"o":"m 304 651 l 239 651 l 239 391 l 304 391 l 304 651 m 434 651 l 434 391 q 409 299 434 337 q 347 260 383 260 l 239 260 l 239 130 l 304 130 l 304 174 l 434 174 l 434 130 q 409 38 434 76 q 347 0 383 0 l 195 0 q 134 38 159 0 q 109 130 109 76 l 109 260 l 43 260 l 43 391 l 109 391 l 109 651 q 134 743 109 705 q 195 781 159 781 l 347 781 q 409 743 383 781 q 434 651 434 705 z "},"℮":{"ha":608,"x_min":43,"x_max":564,"o":"m 564 521 l 564 260 l 239 260 l 239 130 l 434 130 l 434 195 l 564 195 l 564 130 q 526 38 564 76 q 434 0 488 0 l 174 0 q 82 38 120 0 q 43 130 43 76 l 43 521 q 82 613 43 574 q 174 651 120 651 l 434 651 q 526 613 488 651 q 564 521 564 575 m 369 391 l 369 521 l 239 521 l 239 391 l 369 391 z "},"≠":{"ha":347,"x_min":43,"x_max":304,"o":"m 175 477 l 201 586 l 271 586 l 245 477 l 304 477 l 304 391 l 224 391 l 193 260 l 304 260 l 304 174 l 172 174 l 146 65 l 76 65 l 102 174 l 43 174 l 43 260 l 123 260 l 155 391 l 43 391 l 43 477 l 175 477 z "},"≡":{"ha":347,"x_min":43,"x_max":304,"o":"m 43 65 l 43 152 l 304 152 l 304 65 l 43 65 m 43 282 l 43 369 l 304 369 l 304 282 l 43 282 m 43 499 l 43 586 l 304 586 l 304 499 l 43 499 z "},"¶":{"ha":608,"x_min":43,"x_max":564,"o":"m 499 651 l 499 -130 l 369 -130 l 369 651 l 304 651 l 304 -130 l 174 -130 l 174 260 q 82 298 120 260 q 43 391 43 336 l 43 651 q 82 743 43 705 q 174 781 120 781 l 564 781 l 564 651 l 499 651 z "},"⁋":{"ha":608,"x_min":43,"x_max":564,"o":"m 239 651 l 239 -130 l 109 -130 l 109 651 l 43 651 l 43 781 l 434 781 q 526 743 488 781 q 564 651 564 705 l 564 391 q 526 298 564 336 q 434 260 488 260 l 434 -130 l 304 -130 l 304 651 l 239 651 z "},"‼":{"ha":412,"x_min":43,"x_max":369,"o":"m 369 0 l 239 0 l 239 130 l 369 130 l 369 0 m 174 391 l 130 217 l 87 217 l 43 391 l 43 781 l 174 781 l 174 391 m 174 0 l 43 0 l 43 130 l 174 130 l 174 0 m 369 391 l 326 217 l 282 217 l 239 391 l 239 781 l 369 781 l 369 391 z "},"†":{"ha":477,"x_min":43,"x_max":434,"o":"m 304 -130 l 174 -130 l 174 456 l 43 456 l 43 586 l 174 586 l 174 781 l 304 781 l 304 586 l 434 586 l 434 456 l 304 456 l 304 -130 z "},"‡":{"ha":477,"x_min":43,"x_max":434,"o":"m 174 65 l 43 65 l 43 195 l 174 195 l 174 456 l 43 456 l 43 586 l 174 586 l 174 781 l 304 781 l 304 586 l 434 586 l 434 456 l 304 456 l 304 195 l 434 195 l 434 65 l 304 65 l 304 -130 l 174 -130 l 174 65 z "},"‖":{"ha":347,"x_min":43,"x_max":304,"o":"m 130 0 l 43 0 l 43 781 l 130 781 l 130 0 m 304 0 l 217 0 l 217 781 l 304 781 l 304 0 z "},"‗":{"ha":477,"x_min":43,"x_max":434,"o":"m 43 -87 l 43 0 l 434 0 l 434 -87 l 43 -87 m 43 -260 l 43 -174 l 434 -174 l 434 -260 l 43 -260 z "},"⁅":{"ha":347,"x_min":43,"x_max":304,"o":"m 304 -130 l 43 -130 l 43 911 l 304 911 l 304 781 l 174 781 l 174 423 l 304 423 l 304 358 l 174 358 l 174 0 l 304 0 l 304 -130 z "},"⁆":{"ha":347,"x_min":43,"x_max":304,"o":"m 304 -130 l 43 -130 l 43 0 l 174 0 l 174 358 l 43 358 l 43 423 l 174 423 l 174 781 l 43 781 l 43 911 l 304 911 l 304 -130 z "},"⁃":{"ha":347,"x_min":43,"x_max":304,"o":"m 43 326 l 43 456 l 304 456 l 304 326 l 43 326 z "},"⁇":{"ha":933,"x_min":43,"x_max":890,"o":"m 174 130 l 304 130 l 304 0 l 174 0 l 174 130 m 174 651 l 174 521 l 43 521 l 43 651 q 81 743 43 705 q 174 781 119 781 l 304 781 q 396 743 358 781 q 434 651 434 705 l 434 521 l 304 260 l 304 217 l 174 217 l 174 260 l 304 521 l 304 651 l 174 651 m 629 130 l 760 130 l 760 0 l 629 0 l 629 130 m 629 651 l 629 521 l 499 521 l 499 651 q 537 743 499 705 q 629 781 575 781 l 760 781 q 852 743 814 781 q 890 651 890 705 l 890 521 l 760 260 l 760 217 l 629 217 l 629 260 l 760 521 l 760 651 l 629 651 z "},"⁈":{"ha":673,"x_min":43,"x_max":629,"o":"m 174 130 l 304 130 l 304 0 l 174 0 l 174 130 m 174 651 l 174 521 l 43 521 l 43 651 q 81 743 43 705 q 174 781 119 781 l 304 781 q 396 743 358 781 q 434 651 434 705 l 434 521 l 304 260 l 304 217 l 174 217 l 174 260 l 304 521 l 304 651 l 174 651 m 499 130 l 629 130 l 629 0 l 499 0 l 499 130 m 499 781 l 629 781 l 629 391 l 586 217 l 543 217 l 499 391 l 499 781 z "},"⁉":{"ha":673,"x_min":43,"x_max":629,"o":"m 369 130 l 499 130 l 499 0 l 369 0 l 369 130 m 369 651 l 369 521 l 239 521 l 239 651 q 277 743 239 705 q 369 781 315 781 l 499 781 q 591 743 553 781 q 629 651 629 705 l 629 521 l 499 260 l 499 217 l 369 217 l 369 260 l 499 521 l 499 651 l 369 651 m 43 130 l 174 130 l 174 0 l 43 0 l 43 130 m 43 781 l 174 781 l 174 391 l 130 217 l 87 217 l 43 391 l 43 781 z "},"ﬁ":{"ha":543,"x_min":43,"x_max":499,"o":"m 499 716 l 369 716 l 369 781 l 499 781 l 499 716 m 369 586 l 369 651 l 499 651 l 499 0 l 369 0 l 369 456 l 239 456 l 239 0 l 109 0 l 109 456 l 43 456 l 43 586 l 109 586 l 109 651 q 147 743 109 705 q 239 781 185 781 l 304 781 l 304 651 l 239 651 l 239 586 l 369 586 z "},"ﬂ":{"ha":543,"x_min":43,"x_max":499,"o":"m 499 781 l 499 0 l 456 0 q 394 38 420 0 q 369 130 369 76 l 369 651 l 239 651 l 239 586 l 304 586 l 304 456 l 239 456 l 239 0 l 109 0 l 109 456 l 43 456 l 43 586 l 109 586 l 109 651 q 147 743 109 705 q 239 781 185 781 l 499 781 z "},"&":{"ha":543,"x_min":43,"x_max":499,"o":"m 434 651 l 434 521 l 304 521 l 304 651 l 174 651 l 174 456 l 260 456 l 260 326 l 174 326 l 174 130 l 304 130 l 304 326 q 342 418 304 380 q 434 456 380 456 l 499 456 l 499 326 l 434 326 l 434 130 q 396 38 434 76 q 304 0 358 0 l 174 0 q 82 38 120 0 q 43 130 43 76 l 43 260 q 82 353 43 315 q 159 391 115 386 q 82 429 115 395 q 43 521 43 467 l 43 651 q 82 743 43 705 q 174 781 120 781 l 304 781 q 396 743 358 781 q 434 651 434 705 z "},"~":{"ha":608,"x_min":43,"x_max":564,"o":"m 434 391 q 472 437 434 418 q 564 456 510 456 l 564 326 q 526 234 564 272 q 434 195 488 195 l 369 195 q 277 234 315 195 q 239 326 239 272 l 174 326 l 174 260 q 136 214 174 233 q 43 195 98 195 l 43 326 q 82 417 43 379 q 174 456 120 456 l 239 456 q 331 418 293 456 q 369 326 369 380 l 434 326 l 434 391 z "},"≈":{"ha":608,"x_min":43,"x_max":564,"o":"m 174 434 q 136 388 174 407 q 43 369 98 369 l 43 499 q 82 591 43 553 q 174 629 120 629 l 239 629 q 331 591 293 629 q 369 499 369 553 l 434 499 l 434 564 q 472 610 434 591 q 564 629 510 629 l 564 499 q 526 407 564 446 q 434 369 488 369 l 369 369 q 277 407 315 369 q 239 499 239 446 l 174 499 l 174 434 m 174 109 q 136 62 174 81 q 43 43 98 43 l 43 174 q 82 266 43 227 q 174 304 120 304 l 239 304 q 331 266 293 304 q 369 174 369 228 l 434 174 l 434 239 q 472 285 434 266 q 564 304 510 304 l 564 174 q 526 82 564 120 q 434 43 488 43 l 369 43 q 277 82 315 43 q 239 174 239 120 l 174 174 l 174 109 z "},"§":{"ha":477,"x_min":43,"x_max":434,"o":"m 174 438 l 304 284 l 304 343 l 174 497 l 174 438 m 304 65 l 304 83 l 43 391 l 43 456 q 82 548 43 510 q 111 570 96 562 l 43 651 l 43 716 q 82 808 43 770 q 174 846 120 846 l 304 846 q 396 808 358 846 q 434 716 434 770 l 434 629 l 304 629 l 304 716 l 174 716 l 174 699 l 434 391 l 434 326 q 396 233 434 271 q 366 211 382 219 l 434 130 l 434 65 q 396 -27 434 11 q 304 -65 358 -65 l 174 -65 q 82 -27 120 -65 q 43 65 43 11 l 44 65 l 44 152 l 174 152 l 174 65 l 304 65 z "},"«":{"ha":543,"x_min":43,"x_max":499,"o":"m 109 260 l 239 130 l 239 0 l 43 178 l 43 343 l 239 521 l 239 391 l 109 260 m 369 260 l 499 130 l 499 0 l 304 178 l 304 343 l 499 521 l 499 391 l 369 260 z "},"»":{"ha":543,"x_min":43,"x_max":499,"o":"m 434 260 l 304 391 l 304 521 l 499 343 l 499 178 l 304 0 l 304 130 l 434 260 m 174 260 l 43 391 l 43 521 l 239 343 l 239 178 l 43 0 l 43 130 l 174 260 z "},"‹":{"ha":282,"x_min":43,"x_max":239,"o":"m 109 260 l 239 130 l 239 0 l 43 178 l 43 343 l 239 521 l 239 391 l 109 260 z "},"›":{"ha":282,"x_min":43,"x_max":239,"o":"m 174 260 l 43 391 l 43 521 l 239 343 l 239 178 l 43 0 l 43 130 l 174 260 z "},"¤":{"ha":651,"x_min":50,"x_max":602,"o":"m 391 326 l 391 456 l 260 456 l 260 326 l 391 326 m 226 199 l 141 115 l 50 206 l 134 291 q 130 326 130 307 l 130 456 q 134 490 130 474 l 50 575 l 141 667 l 226 582 q 260 586 242 586 l 391 586 q 425 582 409 586 l 510 667 l 602 575 l 517 490 q 521 456 521 474 l 521 326 q 517 291 521 307 l 602 206 l 510 115 l 425 199 q 391 195 409 195 l 260 195 q 226 199 242 195 z "},"£":{"ha":477,"x_min":43,"x_max":434,"o":"m 43 0 l 43 130 l 109 130 l 109 347 l 43 347 l 43 434 l 109 434 l 109 651 q 147 743 109 705 q 239 781 185 781 l 304 781 q 396 743 358 781 q 434 651 434 705 l 434 521 l 304 521 l 304 651 l 239 651 l 239 434 l 369 434 l 369 347 l 239 347 l 239 130 l 434 130 l 434 0 l 43 0 z "},"₽":{"ha":608,"x_min":43,"x_max":564,"o":"m 304 260 l 499 260 l 499 130 l 304 130 l 304 0 l 174 0 l 174 130 l 43 130 l 43 260 l 174 260 l 174 326 l 43 326 l 43 456 l 174 456 l 174 781 l 434 781 q 526 743 488 781 q 564 651 564 705 l 564 456 q 526 364 564 402 q 434 326 488 326 l 304 326 l 304 260 m 304 456 l 434 456 l 434 651 l 304 651 l 304 456 z "},"₿":{"ha":608,"x_min":43,"x_max":564,"o":"m 260 456 l 391 456 l 391 651 l 260 651 l 260 456 m 434 130 l 434 326 l 260 326 l 260 130 l 434 130 m 391 781 q 483 743 445 781 q 521 651 521 705 l 521 456 q 483 410 521 429 q 391 391 445 391 l 434 391 q 526 372 488 391 q 564 326 564 353 l 564 130 q 526 38 564 76 q 434 0 488 0 l 391 0 l 391 -130 l 304 -130 l 304 0 l 217 0 l 217 -130 l 130 -130 l 130 0 l 43 0 l 43 87 l 130 87 l 130 694 l 43 694 l 43 781 l 130 781 l 130 911 l 217 911 l 217 781 l 304 781 l 304 911 l 391 911 l 391 781 z "},"₴":{"ha":543,"x_min":43,"x_max":499,"o":"m 330 358 l 499 358 l 499 271 l 270 271 l 206 180 l 206 130 l 336 130 l 336 174 l 466 174 l 466 130 l 467 130 q 428 38 467 76 q 336 0 390 0 l 206 0 q 114 38 152 0 q 76 130 76 76 l 76 228 l 106 271 l 43 271 l 43 358 l 167 358 l 212 423 l 43 423 l 43 510 l 273 510 l 336 601 l 336 651 l 206 651 l 206 608 l 76 608 l 76 651 q 114 743 76 705 q 206 781 152 781 l 336 781 q 428 743 390 781 q 467 651 467 705 l 467 553 l 436 510 l 499 510 l 499 423 l 376 423 l 330 358 z "},"₮":{"ha":608,"x_min":43,"x_max":564,"o":"m 369 294 l 369 0 l 239 0 l 239 241 l 110 187 l 77 268 l 239 335 l 239 393 l 110 339 l 77 420 l 239 487 l 239 651 l 43 651 l 43 781 l 564 781 l 564 651 l 369 651 l 369 541 l 498 594 l 531 513 l 369 446 l 369 389 l 498 442 l 531 361 l 369 294 z "},"₲":{"ha":477,"x_min":43,"x_max":434,"o":"m 271 651 l 271 456 l 434 456 l 434 130 q 396 38 434 76 q 304 0 358 0 l 271 0 l 271 -130 l 206 -130 l 206 0 l 174 0 q 82 38 120 0 q 43 130 43 76 l 43 651 q 82 743 43 705 q 174 781 120 781 l 206 781 l 206 911 l 271 911 l 271 781 l 304 781 q 396 743 358 781 q 434 651 434 705 l 434 564 l 304 564 l 304 651 l 271 651 m 271 326 l 271 130 l 304 130 l 304 326 l 271 326 m 206 130 l 206 651 l 174 651 l 174 130 l 206 130 z "},"₩":{"ha":738,"x_min":43,"x_max":694,"o":"m 515 456 l 475 456 l 499 260 l 515 456 m 271 521 l 278 586 l 213 586 l 218 521 l 271 521 m 223 456 l 239 260 l 262 456 l 223 456 m 520 521 l 525 586 l 460 586 l 468 521 l 520 521 m 646 586 l 637 521 l 694 521 l 694 456 l 629 456 l 566 0 l 432 0 l 369 391 l 306 0 l 172 0 l 109 456 l 43 456 l 43 521 l 100 521 l 92 586 l 43 586 l 43 651 l 83 651 l 65 781 l 197 781 l 208 651 l 286 651 l 302 781 l 436 781 l 452 651 l 530 651 l 541 781 l 673 781 l 655 651 l 694 651 l 694 586 l 646 586 z "},"₱":{"ha":608,"x_min":43,"x_max":564,"o":"m 499 488 l 564 488 l 564 423 l 499 423 l 499 391 q 461 298 499 336 q 369 260 422 260 l 239 260 l 239 0 l 109 0 l 109 423 l 43 423 l 43 488 l 109 488 l 109 553 l 43 553 l 43 618 l 109 618 l 109 781 l 369 781 q 461 743 422 781 q 499 651 499 705 l 499 618 l 564 618 l 564 553 l 499 553 l 499 488 m 239 618 l 369 618 l 369 651 l 239 651 l 239 618 m 239 488 l 369 488 l 369 553 l 239 553 l 239 488 m 369 423 l 239 423 l 239 391 l 369 391 l 369 423 z "},"₺":{"ha":608,"x_min":43,"x_max":564,"o":"m 174 292 l 77 252 l 43 333 l 174 387 l 174 444 l 77 404 l 43 485 l 174 538 l 174 781 l 304 781 l 304 593 l 465 659 l 498 578 l 304 498 l 304 441 l 465 507 l 498 427 l 304 347 l 304 130 l 434 130 l 434 326 l 564 326 l 564 130 q 526 38 564 76 q 434 0 488 0 l 174 0 l 174 292 z "},"₹":{"ha":543,"x_min":43,"x_max":499,"o":"m 268 263 l 369 0 l 229 0 l 79 391 l 239 391 l 239 499 l 43 499 l 43 586 l 239 586 l 239 694 l 43 694 l 43 781 l 499 781 l 434 694 l 369 694 l 369 586 l 499 586 l 434 499 l 369 499 l 369 391 q 331 298 369 336 q 268 263 303 271 z "},"֏":{"ha":608,"x_min":43,"x_max":564,"o":"m 434 282 l 564 282 l 564 195 l 434 195 l 434 0 l 304 0 l 304 195 l 174 195 l 174 282 l 304 282 l 304 369 l 174 369 l 174 456 l 304 456 l 304 651 l 174 651 l 174 521 l 43 521 l 43 651 q 82 743 43 705 q 174 781 120 781 l 304 781 q 396 743 358 781 q 434 651 434 705 l 434 456 l 564 456 l 564 369 l 434 369 l 434 282 z "},"ẞ":{"ha":477,"x_min":43,"x_max":434,"o":"m 174 0 l 43 0 l 43 651 q 81 743 43 705 q 174 781 119 781 l 391 781 l 391 456 q 353 410 391 429 q 304 394 331 399 l 304 391 q 396 372 358 391 q 434 326 434 353 l 434 130 q 396 38 434 76 q 304 0 357 0 l 239 0 l 239 130 l 304 130 l 304 326 l 239 326 l 239 456 l 260 456 l 260 651 l 174 651 l 174 0 z "},"ß":{"ha":477,"x_min":43,"x_max":434,"o":"m 174 -130 l 43 -87 l 43 651 q 81 743 43 705 q 174 781 119 781 l 260 781 q 353 743 315 781 q 391 651 391 705 l 391 456 q 353 410 391 429 q 304 394 331 399 l 304 391 q 396 372 358 391 q 434 326 434 353 l 434 130 q 396 38 434 76 q 304 0 357 0 l 239 0 l 239 130 l 304 130 l 304 326 l 239 326 l 239 456 l 260 456 l 260 651 l 174 651 l 174 -130 z "},"Þ":{"ha":477,"x_min":43,"x_max":434,"o":"m 174 130 l 174 0 l 43 0 l 43 781 l 174 781 l 174 651 l 304 651 q 396 613 357 651 q 434 521 434 575 l 434 260 q 396 168 434 206 q 304 130 357 130 l 174 130 m 174 260 l 304 260 l 304 521 l 174 521 l 174 260 z "},"þ":{"ha":477,"x_min":43,"x_max":434,"o":"m 174 -130 l 43 -130 l 43 781 l 174 781 l 174 -130 m 260 0 q 199 38 224 0 q 174 130 174 76 l 304 130 l 304 521 l 174 521 q 199 613 174 575 q 260 651 224 651 l 304 651 q 396 613 357 651 q 434 521 434 575 l 434 130 q 396 38 434 76 q 304 0 357 0 l 260 0 z "},"Æ":{"ha":738,"x_min":43,"x_max":694,"o":"m 202 260 l 304 260 l 304 651 l 245 651 l 202 260 m 304 130 l 188 130 l 174 0 l 43 0 l 129 781 l 694 781 l 694 651 l 434 651 l 434 456 l 651 456 l 651 326 l 434 326 l 434 130 l 694 130 l 694 0 l 304 0 l 304 130 z "},"æ":{"ha":738,"x_min":43,"x_max":694,"o":"m 369 634 q 434 651 398 651 l 564 651 q 656 613 618 651 q 694 521 694 574 l 694 260 l 434 260 l 434 130 l 564 130 l 564 195 l 694 195 l 694 130 q 656 38 694 76 q 564 0 618 0 l 347 0 l 304 130 l 304 521 l 87 521 q 125 613 87 575 q 217 651 163 651 l 304 651 q 369 634 340 651 m 217 0 l 174 0 q 82 38 120 0 q 43 130 43 76 l 43 326 q 69 418 43 380 q 130 456 94 456 l 174 456 q 266 418 228 456 q 304 326 304 380 l 174 326 l 174 130 l 304 130 q 278 38 304 76 q 217 0 253 0 m 434 391 l 564 391 l 564 521 l 434 521 l 434 391 z "},"Œ":{"ha":738,"x_min":43,"x_max":694,"o":"m 304 130 q 278 38 304 76 q 217 0 253 0 l 174 0 q 82 38 120 0 q 43 130 43 76 l 43 651 q 82 743 43 705 q 174 781 120 781 l 217 781 q 278 743 253 781 q 304 651 304 705 l 174 651 l 174 130 l 304 130 m 304 651 l 347 781 l 694 781 l 694 651 l 434 651 l 434 456 l 651 456 l 651 326 l 434 326 l 434 130 l 694 130 l 694 0 l 347 0 l 304 130 l 304 651 z "},"œ":{"ha":738,"x_min":43,"x_max":694,"o":"m 564 391 l 564 521 l 434 521 l 434 391 l 564 391 m 304 521 l 174 521 l 174 130 l 304 130 l 304 521 m 304 521 q 342 613 304 574 q 434 651 380 651 l 564 651 q 656 613 618 651 q 694 521 694 574 l 694 260 l 434 260 l 434 130 l 564 130 l 564 195 l 694 195 l 694 130 q 656 38 694 76 q 564 0 618 0 l 434 0 q 342 38 380 0 q 307 57 323 57 q 272 28 292 57 q 217 0 253 0 l 174 0 q 82 38 120 0 q 43 130 43 76 l 43 521 q 82 613 43 574 q 174 651 120 651 l 217 651 q 278 613 253 651 q 304 521 304 575 z "},"Ɔ":{"ha":477,"x_min":43,"x_max":434,"o":"m 43 304 l 174 304 l 174 130 l 304 130 l 304 651 l 174 651 l 174 477 l 43 477 l 43 651 q 81 743 43 705 q 174 781 119 781 l 304 781 q 396 743 358 781 q 434 651 434 705 l 434 130 q 396 38 434 76 q 304 0 358 0 l 174 0 q 81 38 119 0 q 43 130 43 76 l 43 304 z "},"ɔ":{"ha":477,"x_min":43,"x_max":434,"o":"m 174 521 l 174 391 l 43 391 l 43 521 q 81 613 43 574 q 174 651 119 651 l 304 651 q 396 613 358 651 q 434 521 434 574 l 434 130 q 396 38 434 76 q 304 0 358 0 l 174 0 q 81 38 119 0 q 43 130 43 76 l 43 260 l 174 260 l 174 130 l 304 130 l 304 521 l 174 521 z "},"Ɛ":{"ha":477,"x_min":43,"x_max":434,"o":"m 43 521 l 43 651 q 81 743 43 705 q 174 781 119 781 l 304 781 q 396 743 357 781 q 434 651 434 705 l 434 564 l 304 564 l 304 651 l 174 651 l 174 456 l 304 456 l 304 326 l 174 326 l 174 130 l 304 130 l 304 217 l 434 217 l 434 130 q 396 38 434 76 q 304 0 357 0 l 174 0 q 81 38 119 0 q 43 130 43 76 l 43 260 q 81 353 43 315 q 174 391 119 391 q 81 429 119 391 q 43 521 43 467 z "},"ɛ":{"ha":477,"x_min":43,"x_max":434,"o":"m 43 456 l 43 521 q 81 613 43 574 q 174 651 119 651 l 304 651 q 396 613 357 651 q 434 521 434 574 l 434 434 l 304 434 l 304 521 l 174 521 l 174 391 l 282 391 l 282 260 l 174 260 l 174 130 l 304 130 l 304 217 l 434 217 l 434 130 q 396 38 434 76 q 304 0 357 0 l 174 0 q 81 38 119 0 q 43 130 43 76 l 43 195 q 81 288 43 250 q 174 326 119 326 q 81 363 119 326 q 43 456 43 401 z "},"Ə":{"ha":477,"x_min":43,"x_max":434,"o":"m 304 326 l 174 326 l 174 130 l 304 130 l 304 326 m 434 130 q 396 38 434 76 q 304 0 358 0 l 174 0 q 81 38 119 0 q 43 130 43 76 l 43 456 l 304 456 l 304 651 l 174 651 l 174 586 l 43 586 l 43 651 q 81 743 43 705 q 174 781 119 781 l 304 781 q 396 743 358 781 q 434 651 434 705 l 434 130 z "},"ə":{"ha":477,"x_min":43,"x_max":434,"o":"m 174 260 l 174 130 l 304 130 l 304 260 l 174 260 m 43 130 l 43 391 l 304 391 l 304 521 l 174 521 l 174 477 l 43 477 l 43 521 q 81 613 43 575 q 174 651 119 651 l 304 651 q 396 613 358 651 q 434 521 434 575 l 434 130 q 396 38 434 76 q 304 0 358 0 l 174 0 q 81 38 119 0 q 43 130 43 76 z "},"Ɣ":{"ha":477,"x_min":43,"x_max":434,"o":"m 239 -174 q 270 -155 257 -174 q 282 -109 282 -136 q 270 -62 282 -81 q 239 -43 257 -43 q 208 -62 220 -43 q 195 -109 195 -81 q 208 -155 195 -136 q 239 -174 220 -174 m 239 -260 q 146 -222 184 -260 q 109 -130 109 -184 l 173 175 l 43 781 l 176 781 l 239 326 l 302 781 l 434 781 l 304 175 l 369 -130 q 331 -222 369 -184 q 239 -260 293 -260 z "},"ɣ":{"ha":477,"x_min":43,"x_max":434,"o":"m 239 -260 q 146 -222 184 -260 q 109 -130 109 -184 l 173 132 l 43 651 l 176 651 l 239 326 l 302 651 l 434 651 l 304 132 l 369 -130 q 331 -222 369 -184 q 239 -260 293 -260 m 197 -130 q 208 -155 201 -144 q 239 -174 220 -174 q 270 -155 257 -174 q 280 -130 277 -144 q 282 -109 282 -120 q 270 -62 282 -81 q 239 -43 257 -43 q 208 -62 220 -43 q 195 -109 195 -81 q 197 -130 195 -120 z "},"Ƣ":{"ha":673,"x_min":43,"x_max":629,"o":"m 304 651 l 174 651 l 174 130 l 304 130 l 304 651 m 629 781 l 629 0 l 499 0 l 499 651 l 434 651 l 434 0 l 174 0 q 82 38 120 0 q 43 130 43 76 l 43 651 q 82 743 43 705 q 174 781 120 781 l 629 781 z "},"ƣ":{"ha":673,"x_min":43,"x_max":629,"o":"m 304 521 l 174 521 l 174 130 l 304 130 l 304 521 m 629 651 l 629 -130 l 499 -130 l 499 521 l 434 521 l 434 0 l 174 0 q 82 38 120 0 q 43 130 43 76 l 43 521 q 82 613 43 574 q 174 651 120 651 l 629 651 z "},"Ŋ":{"ha":477,"x_min":43,"x_max":434,"o":"m 304 130 l 304 391 l 184 0 l 43 0 l 43 781 l 174 781 l 174 391 l 294 781 l 434 781 l 434 130 q 396 38 434 76 q 304 0 358 0 l 260 0 l 260 130 l 304 130 z "},"ŋ":{"ha":477,"x_min":43,"x_max":434,"o":"m 304 -130 l 239 -130 l 239 0 l 304 0 l 304 521 l 174 521 q 199 613 174 575 q 260 651 224 651 l 304 651 q 396 613 357 651 q 434 521 434 575 l 434 0 q 396 -92 434 -54 q 304 -130 358 -130 m 174 0 l 43 0 l 43 651 l 130 651 l 174 521 l 174 0 z "},"Ɲ":{"ha":477,"x_min":0,"x_max":434,"o":"m 43 0 l 43 781 l 184 781 l 304 391 l 304 781 l 434 781 l 434 0 l 294 0 l 174 391 l 174 0 q 136 -92 174 -54 q 43 -130 98 -130 l 0 -130 l 0 0 l 43 0 z "},"ɲ":{"ha":477,"x_min":0,"x_max":434,"o":"m 434 0 l 304 0 l 304 521 l 174 521 q 199 613 174 575 q 260 651 224 651 l 304 651 q 396 613 357 651 q 434 521 434 575 l 434 0 m 43 -130 l 0 -130 l 0 0 l 43 0 l 43 651 l 130 651 l 174 521 l 174 0 q 136 -92 174 -54 q 43 -130 98 -130 z "},"Ʋ":{"ha":477,"x_min":43,"x_max":434,"o":"m 304 651 l 239 651 l 239 781 l 304 781 q 396 743 358 781 q 434 651 434 705 l 434 130 q 396 38 434 76 q 304 0 358 0 l 174 0 q 82 38 120 0 q 43 130 43 76 l 43 781 l 174 781 l 174 130 l 304 130 l 304 651 z "},"ʋ":{"ha":477,"x_min":43,"x_max":434,"o":"m 304 521 l 239 521 l 239 651 l 304 651 q 396 613 358 651 q 434 521 434 574 l 434 130 q 396 38 434 76 q 304 0 358 0 l 174 0 q 82 38 120 0 q 43 130 43 76 l 43 651 l 174 651 l 174 130 l 304 130 l 304 521 z "},"ǀ":{"ha":217,"x_min":43,"x_max":174,"o":"m 43 781 l 174 781 l 174 0 l 43 0 l 43 781 z "},"ǁ":{"ha":412,"x_min":43,"x_max":369,"o":"m 239 781 l 369 781 l 369 0 l 239 0 l 239 781 m 43 781 l 174 781 l 174 0 l 43 0 l 43 781 z "},"ǂ":{"ha":477,"x_min":43,"x_max":434,"o":"m 174 456 l 43 456 l 43 521 l 174 521 l 174 781 l 304 781 l 304 521 l 434 521 l 434 456 l 304 456 l 304 326 l 434 326 l 434 260 l 304 260 l 304 0 l 174 0 l 174 260 l 43 260 l 43 326 l 174 326 l 174 456 z "},"ǃ":{"ha":217,"x_min":43,"x_max":174,"o":"m 174 0 l 43 0 l 43 130 l 174 130 l 174 0 m 174 217 l 43 217 l 43 781 l 174 781 l 174 217 z "},"`":{"ha":477,"x_min":123,"x_max":285,"o":"m 239 798 l 123 913 l 170 960 l 285 844 l 239 798 z "},"ˋ":{"ha":477,"x_min":123,"x_max":285,"o":"m 239 798 l 123 913 l 170 960 l 285 844 l 239 798 z "},"´":{"ha":477,"x_min":193,"x_max":354,"o":"m 239 798 l 193 844 l 308 960 l 354 913 l 239 798 z "},"ˊ":{"ha":477,"x_min":193,"x_max":354,"o":"m 239 798 l 193 844 l 308 960 l 354 913 l 239 798 z "},"¯":{"ha":477,"x_min":109,"x_max":369,"o":"m 369 846 l 109 846 l 109 911 l 369 911 l 369 846 z "},"ˉ":{"ha":477,"x_min":109,"x_max":369,"o":"m 369 846 l 109 846 l 109 911 l 369 911 l 369 846 z "},"¨":{"ha":477,"x_min":109,"x_max":369,"o":"m 369 846 l 282 846 l 282 911 l 369 911 l 369 846 m 195 846 l 109 846 l 109 911 l 195 911 l 195 846 z "},"˙":{"ha":477,"x_min":195,"x_max":282,"o":"m 282 846 l 195 846 l 195 911 l 282 911 l 282 846 z "},"˚":{"ha":477,"x_min":141,"x_max":336,"o":"m 206 841 l 271 841 l 271 917 l 206 917 l 206 841 m 141 863 l 141 895 q 160 941 141 922 q 206 960 179 960 l 271 960 q 317 941 298 960 q 336 895 336 922 l 336 863 q 317 817 336 836 q 271 798 298 798 l 206 798 q 160 817 179 798 q 141 863 141 836 z "},"ˇ":{"ha":477,"x_min":123,"x_max":354,"o":"m 239 798 l 123 913 l 170 960 l 239 890 l 308 960 l 354 913 l 239 798 z "},"ˆ":{"ha":477,"x_min":123,"x_max":354,"o":"m 308 798 l 239 867 l 170 798 l 123 844 l 239 960 l 354 844 l 308 798 z "},"˘":{"ha":477,"x_min":130,"x_max":347,"o":"m 282 879 l 282 944 l 347 944 l 347 879 q 328 833 347 852 q 282 814 309 814 l 195 814 q 149 833 168 814 q 130 879 130 852 l 130 944 l 195 944 l 195 879 l 282 879 z "},"˜":{"ha":477,"x_min":109,"x_max":369,"o":"m 174 846 q 155 823 174 833 q 109 814 136 814 l 109 879 q 128 925 109 906 q 174 944 147 944 l 206 944 q 252 925 233 944 q 271 879 271 906 l 304 879 l 304 911 q 323 935 304 925 q 369 944 342 944 l 369 879 q 350 833 369 852 q 304 814 331 814 l 271 814 q 225 833 244 814 q 206 879 206 852 l 174 879 l 174 846 z "},"˝":{"ha":477,"x_min":123,"x_max":423,"o":"m 308 798 l 262 844 l 377 960 l 423 913 l 308 798 m 170 798 l 123 844 l 239 960 l 285 913 l 170 798 z "},"¸":{"ha":477,"x_min":158,"x_max":319,"o":"m 204 -178 l 158 -132 l 227 -63 l 319 -63 l 204 -178 z "},"˛":{"ha":477,"x_min":239,"x_max":434,"o":"m 304 65 l 326 65 l 326 0 l 304 0 l 304 -65 l 369 -65 l 369 -43 l 434 -43 l 434 -65 q 415 -111 434 -92 q 369 -130 396 -130 l 304 -130 q 258 -111 277 -130 q 239 -65 239 -92 l 239 0 q 258 46 239 27 q 304 65 277 65 z "},"ˈ":{"ha":477,"x_min":206,"x_max":271,"o":"m 271 911 l 271 781 l 206 781 l 206 911 l 271 911 z "},"ˌ":{"ha":477,"x_min":206,"x_max":271,"o":"m 271 -130 l 206 -130 l 206 0 l 271 0 l 271 -130 z "},"ˍ":{"ha":477,"x_min":109,"x_max":369,"o":"m 369 -65 l 369 -130 l 109 -130 l 109 -65 l 369 -65 z "},"Ā":{"ha":477,"x_min":43,"x_max":434,"o":"m 369 846 l 109 846 l 109 911 l 369 911 l 369 846 m 275 260 l 239 651 l 202 260 l 275 260 m 434 0 l 304 0 l 290 130 l 188 130 l 174 0 l 43 0 l 129 781 l 349 781 l 434 0 z "},"ā":{"ha":477,"x_min":43,"x_max":434,"o":"m 304 130 q 278 38 304 76 q 217 0 253 0 l 174 0 q 82 38 120 0 q 43 130 43 76 l 43 326 q 69 418 43 380 q 130 456 94 456 l 174 456 q 266 418 228 456 q 304 326 304 380 l 174 326 l 174 130 l 304 130 m 87 521 q 125 613 87 575 q 217 651 163 651 l 304 651 q 396 613 358 651 q 434 521 434 574 l 434 0 l 347 0 l 304 130 l 304 521 l 87 521 m 369 716 l 109 716 l 109 781 l 369 781 l 369 716 z "},"Ē":{"ha":477,"x_min":43,"x_max":434,"o":"m 434 781 l 434 651 l 174 651 l 174 456 l 391 456 l 391 326 l 174 326 l 174 130 l 434 130 l 434 0 l 43 0 l 43 781 l 434 781 m 369 846 l 109 846 l 109 911 l 369 911 l 369 846 z "},"ē":{"ha":477,"x_min":43,"x_max":434,"o":"m 174 391 l 304 391 l 304 521 l 174 521 l 174 391 m 304 130 l 304 195 l 434 195 l 434 130 q 396 38 434 76 q 304 0 358 0 l 174 0 q 82 38 120 0 q 43 130 43 76 l 43 521 q 82 613 43 574 q 174 651 120 651 l 304 651 q 396 613 358 651 q 434 521 434 574 l 434 260 l 174 260 l 174 130 l 304 130 m 369 716 l 109 716 l 109 781 l 369 781 l 369 716 z "},"Ī":{"ha":217,"x_min":0,"x_max":217,"o":"m 174 0 l 43 0 l 43 781 l 174 781 l 174 0 m 217 846 l 0 846 l 0 911 l 217 911 l 217 846 z "},"ī":{"ha":217,"x_min":0,"x_max":217,"o":"m 174 0 l 43 0 l 43 651 l 174 651 l 174 0 m 0 781 l 217 781 l 217 716 l 0 716 l 0 781 z "},"Ō":{"ha":477,"x_min":43,"x_max":434,"o":"m 174 130 l 304 130 l 304 651 l 174 651 l 174 130 m 43 130 l 43 651 q 82 743 43 705 q 174 781 120 781 l 304 781 q 396 743 358 781 q 434 651 434 705 l 434 130 q 396 38 434 76 q 304 0 358 0 l 174 0 q 82 38 120 0 q 43 130 43 76 m 369 846 l 109 846 l 109 911 l 369 911 l 369 846 z "},"ō":{"ha":477,"x_min":43,"x_max":434,"o":"m 174 130 l 304 130 l 304 521 l 174 521 l 174 130 m 43 130 l 43 521 q 82 613 43 574 q 174 651 120 651 l 304 651 q 396 613 358 651 q 434 521 434 574 l 434 130 q 396 38 434 76 q 304 0 358 0 l 174 0 q 82 38 120 0 q 43 130 43 76 m 369 716 l 109 716 l 109 781 l 369 781 l 369 716 z "},"Ū":{"ha":477,"x_min":43,"x_max":434,"o":"m 304 781 l 434 781 l 434 130 q 396 38 434 76 q 304 0 358 0 l 174 0 q 82 38 120 0 q 43 130 43 76 l 43 781 l 174 781 l 174 130 l 304 130 l 304 781 m 369 846 l 109 846 l 109 911 l 369 911 l 369 846 z "},"ū":{"ha":477,"x_min":43,"x_max":434,"o":"m 304 651 l 434 651 l 434 0 l 347 0 l 304 130 l 304 651 m 304 130 q 278 38 304 76 q 217 0 253 0 l 174 0 q 82 38 120 0 q 43 130 43 76 l 43 651 l 174 651 l 174 130 l 304 130 m 369 716 l 109 716 l 109 781 l 369 781 l 369 716 z "},"Ǣ":{"ha":738,"x_min":43,"x_max":694,"o":"m 499 846 l 239 846 l 239 911 l 499 911 l 499 846 m 304 130 l 188 130 l 174 0 l 43 0 l 129 781 l 694 781 l 694 651 l 434 651 l 434 456 l 651 456 l 651 326 l 434 326 l 434 130 l 694 130 l 694 0 l 304 0 l 304 130 m 202 260 l 304 260 l 304 651 l 245 651 l 202 260 z "},"ǣ":{"ha":738,"x_min":43,"x_max":694,"o":"m 499 716 l 239 716 l 239 781 l 499 781 l 499 716 m 217 0 l 174 0 q 82 38 120 0 q 43 130 43 76 l 43 326 q 69 418 43 380 q 130 456 94 456 l 174 456 q 266 418 228 456 q 304 326 304 380 l 174 326 l 174 130 l 304 130 q 278 38 304 76 q 217 0 253 0 m 434 391 l 564 391 l 564 521 l 434 521 l 434 391 m 369 634 q 434 651 398 651 l 564 651 q 656 613 618 651 q 694 521 694 574 l 694 260 l 434 260 l 434 130 l 564 130 l 564 195 l 694 195 l 694 130 q 656 38 694 76 q 564 0 618 0 l 347 0 l 304 130 l 304 521 l 87 521 q 125 613 87 575 q 217 651 163 651 l 304 651 q 369 634 340 651 z "},"Ȳ":{"ha":477,"x_min":43,"x_max":434,"o":"m 369 846 l 109 846 l 109 911 l 369 911 l 369 846 m 239 391 l 302 781 l 434 781 l 304 260 l 304 0 l 174 0 l 174 260 l 43 781 l 176 781 l 239 391 z "},"ȳ":{"ha":477,"x_min":43,"x_max":434,"o":"m 369 716 l 109 716 l 109 781 l 369 781 l 369 716 m 43 -130 l 87 0 l 172 0 l 43 651 l 176 651 l 239 260 l 302 651 l 434 651 l 306 0 l 304 0 q 266 -92 304 -54 q 174 -130 228 -130 l 43 -130 z "},"Ḡ":{"ha":477,"x_min":43,"x_max":434,"o":"m 434 651 l 434 564 l 304 564 l 304 651 l 174 651 l 174 130 l 304 130 q 278 38 304 76 q 217 0 253 0 l 174 0 q 82 38 120 0 q 43 130 43 76 l 43 651 q 82 743 43 705 q 174 781 120 781 l 304 781 q 396 743 358 781 q 434 651 434 705 m 304 326 l 260 326 l 260 456 l 434 456 l 434 0 l 347 0 l 304 130 l 304 326 m 369 846 l 109 846 l 109 911 l 369 911 l 369 846 z "},"ḡ":{"ha":477,"x_min":43,"x_max":434,"o":"m 217 651 q 278 613 253 651 q 304 521 304 575 l 174 521 l 174 174 l 304 174 q 278 82 304 120 q 217 43 253 43 l 174 43 q 81 82 119 43 q 43 174 43 120 l 43 521 q 82 613 43 575 q 174 651 120 651 l 217 651 m 304 521 l 347 651 l 434 651 l 434 0 q 396 -92 434 -54 q 304 -130 358 -130 l 87 -130 l 174 0 l 304 0 l 304 521 m 369 716 l 109 716 l 109 781 l 369 781 l 369 716 z "},"Ä":{"ha":477,"x_min":43,"x_max":434,"o":"m 369 846 l 282 846 l 282 911 l 369 911 l 369 846 m 195 846 l 109 846 l 109 911 l 195 911 l 195 846 m 275 260 l 239 651 l 202 260 l 275 260 m 434 0 l 304 0 l 290 130 l 188 130 l 174 0 l 43 0 l 129 781 l 349 781 l 434 0 z "},"ä":{"ha":477,"x_min":43,"x_max":434,"o":"m 304 130 q 278 38 304 76 q 217 0 253 0 l 174 0 q 82 38 120 0 q 43 130 43 76 l 43 326 q 69 418 43 380 q 130 456 94 456 l 174 456 q 266 418 228 456 q 304 326 304 380 l 174 326 l 174 130 l 304 130 m 87 521 q 125 613 87 575 q 217 651 163 651 l 304 651 q 396 613 358 651 q 434 521 434 574 l 434 0 l 347 0 l 304 130 l 304 521 l 87 521 m 369 716 l 282 716 l 282 781 l 369 781 l 369 716 m 195 716 l 109 716 l 109 781 l 195 781 l 195 716 z "},"Ë":{"ha":477,"x_min":43,"x_max":434,"o":"m 434 781 l 434 651 l 174 651 l 174 456 l 391 456 l 391 326 l 174 326 l 174 130 l 434 130 l 434 0 l 43 0 l 43 781 l 434 781 m 369 846 l 282 846 l 282 911 l 369 911 l 369 846 m 195 846 l 109 846 l 109 911 l 195 911 l 195 846 z "},"ë":{"ha":477,"x_min":43,"x_max":434,"o":"m 174 391 l 304 391 l 304 521 l 174 521 l 174 391 m 304 130 l 304 195 l 434 195 l 434 130 q 396 38 434 76 q 304 0 358 0 l 174 0 q 82 38 120 0 q 43 130 43 76 l 43 521 q 82 613 43 574 q 174 651 120 651 l 304 651 q 396 613 358 651 q 434 521 434 574 l 434 260 l 174 260 l 174 130 l 304 130 m 369 716 l 282 716 l 282 781 l 369 781 l 369 716 m 195 716 l 109 716 l 109 781 l 195 781 l 195 716 z "},"Ï":{"ha":217,"x_min":0,"x_max":217,"o":"m 174 0 l 43 0 l 43 781 l 174 781 l 174 0 m 217 846 l 130 846 l 130 911 l 217 911 l 217 846 m 87 846 l 0 846 l 0 911 l 87 911 l 87 846 z "},"ï":{"ha":217,"x_min":0,"x_max":217,"o":"m 174 0 l 43 0 l 43 651 l 174 651 l 174 0 m 217 716 l 130 716 l 130 781 l 217 781 l 217 716 m 87 716 l 0 716 l 0 781 l 87 781 l 87 716 z "},"Ö":{"ha":477,"x_min":43,"x_max":434,"o":"m 174 130 l 304 130 l 304 651 l 174 651 l 174 130 m 43 130 l 43 651 q 82 743 43 705 q 174 781 120 781 l 304 781 q 396 743 358 781 q 434 651 434 705 l 434 130 q 396 38 434 76 q 304 0 358 0 l 174 0 q 82 38 120 0 q 43 130 43 76 m 369 846 l 282 846 l 282 911 l 369 911 l 369 846 m 195 846 l 109 846 l 109 911 l 195 911 l 195 846 z "},"ö":{"ha":477,"x_min":43,"x_max":434,"o":"m 174 130 l 304 130 l 304 521 l 174 521 l 174 130 m 43 130 l 43 521 q 82 613 43 574 q 174 651 120 651 l 304 651 q 396 613 358 651 q 434 521 434 574 l 434 130 q 396 38 434 76 q 304 0 358 0 l 174 0 q 82 38 120 0 q 43 130 43 76 m 369 716 l 282 716 l 282 781 l 369 781 l 369 716 m 195 716 l 109 716 l 109 781 l 195 781 l 195 716 z "},"Ü":{"ha":477,"x_min":43,"x_max":434,"o":"m 304 781 l 434 781 l 434 130 q 396 38 434 76 q 304 0 358 0 l 174 0 q 82 38 120 0 q 43 130 43 76 l 43 781 l 174 781 l 174 130 l 304 130 l 304 781 m 369 846 l 282 846 l 282 911 l 369 911 l 369 846 m 195 846 l 109 846 l 109 911 l 195 911 l 195 846 z "},"ü":{"ha":477,"x_min":43,"x_max":434,"o":"m 304 651 l 434 651 l 434 0 l 347 0 l 304 130 l 304 651 m 304 130 q 278 38 304 76 q 217 0 253 0 l 174 0 q 82 38 120 0 q 43 130 43 76 l 43 651 l 174 651 l 174 130 l 304 130 m 369 716 l 282 716 l 282 781 l 369 781 l 369 716 m 195 716 l 109 716 l 109 781 l 195 781 l 195 716 z "},"Ÿ":{"ha":477,"x_min":43,"x_max":434,"o":"m 369 846 l 282 846 l 282 911 l 369 911 l 369 846 m 195 846 l 109 846 l 109 911 l 195 911 l 195 846 m 239 391 l 302 781 l 434 781 l 304 260 l 304 0 l 174 0 l 174 260 l 43 781 l 176 781 l 239 391 z "},"ÿ":{"ha":477,"x_min":43,"x_max":434,"o":"m 369 716 l 282 716 l 282 781 l 369 781 l 369 716 m 195 716 l 109 716 l 109 781 l 195 781 l 195 716 m 43 -130 l 87 0 l 172 0 l 43 651 l 176 651 l 239 260 l 302 651 l 434 651 l 306 0 l 304 0 q 266 -92 304 -54 q 174 -130 228 -130 l 43 -130 z "},"Ḧ":{"ha":477,"x_min":43,"x_max":434,"o":"m 43 781 l 174 781 l 174 456 l 304 456 l 304 781 l 434 781 l 434 0 l 304 0 l 304 326 l 174 326 l 174 0 l 43 0 l 43 781 m 369 846 l 282 846 l 282 911 l 369 911 l 369 846 m 195 846 l 109 846 l 109 911 l 195 911 l 195 846 z "},"ḧ":{"ha":477,"x_min":0,"x_max":434,"o":"m 174 521 q 199 613 174 575 q 260 651 224 651 l 304 651 q 396 613 357 651 q 434 521 434 575 l 434 0 l 304 0 l 304 521 l 174 521 m 174 0 l 43 0 l 43 781 l 174 781 l 174 0 m 217 846 l 130 846 l 130 911 l 217 911 l 217 846 m 87 846 l 0 846 l 0 911 l 87 911 l 87 846 z "},"Ẅ":{"ha":738,"x_min":43,"x_max":694,"o":"m 499 846 l 412 846 l 412 911 l 499 911 l 499 846 m 326 846 l 239 846 l 239 911 l 326 911 l 326 846 m 566 0 l 432 0 l 369 391 l 306 0 l 172 0 l 43 781 l 176 781 l 239 260 l 302 781 l 436 781 l 499 260 l 562 781 l 694 781 l 566 0 z "},"ẅ":{"ha":738,"x_min":43,"x_max":694,"o":"m 499 716 l 412 716 l 412 781 l 499 781 l 499 716 m 326 716 l 239 716 l 239 781 l 326 781 l 326 716 m 172 0 l 43 651 l 176 651 l 239 260 l 302 651 l 436 651 l 499 260 l 562 651 l 694 651 l 566 0 l 432 0 l 369 391 l 306 0 l 172 0 z "},"Ẍ":{"ha":477,"x_min":43,"x_max":434,"o":"m 369 846 l 282 846 l 282 911 l 369 911 l 369 846 m 195 846 l 109 846 l 109 911 l 195 911 l 195 846 m 309 391 l 434 0 l 294 0 l 239 260 l 184 0 l 43 0 l 169 391 l 43 781 l 184 781 l 239 521 l 294 781 l 434 781 l 309 391 z "},"ẍ":{"ha":477,"x_min":43,"x_max":434,"o":"m 369 716 l 282 716 l 282 781 l 369 781 l 369 716 m 195 716 l 109 716 l 109 781 l 195 781 l 195 716 m 309 326 l 434 0 l 294 0 l 239 195 l 184 0 l 43 0 l 169 326 l 43 651 l 184 651 l 239 456 l 294 651 l 434 651 l 309 326 z "},"ẗ":{"ha":347,"x_min":43,"x_max":304,"o":"m 239 130 l 304 130 l 304 0 l 239 0 q 147 38 185 0 q 109 130 109 76 l 109 521 l 43 521 l 43 651 l 109 651 l 109 781 l 239 781 l 239 651 l 304 651 l 304 521 l 239 521 l 239 130 m 304 846 l 217 846 l 217 911 l 304 911 l 304 846 m 130 846 l 43 846 l 43 911 l 130 911 l 130 846 z "},"Ċ":{"ha":477,"x_min":43,"x_max":434,"o":"m 304 130 l 304 260 l 434 260 l 434 130 q 396 38 434 76 q 304 0 358 0 l 174 0 q 82 38 120 0 q 43 130 43 76 l 43 651 q 82 743 43 705 q 174 781 120 781 l 304 781 q 396 743 358 781 q 434 651 434 705 l 434 521 l 304 521 l 304 651 l 174 651 l 174 130 l 304 130 m 282 846 l 195 846 l 195 911 l 282 911 l 282 846 z "},"ċ":{"ha":477,"x_min":43,"x_max":434,"o":"m 304 130 l 304 217 l 434 217 l 434 130 q 396 38 434 76 q 304 0 358 0 l 174 0 q 82 38 120 0 q 43 130 43 76 l 43 521 q 82 613 43 574 q 174 651 120 651 l 304 651 q 396 613 358 651 q 434 521 434 574 l 434 434 l 304 434 l 304 521 l 174 521 l 174 130 l 304 130 m 282 716 l 195 716 l 195 781 l 282 781 l 282 716 z "},"Ė":{"ha":477,"x_min":43,"x_max":434,"o":"m 434 781 l 434 651 l 174 651 l 174 456 l 391 456 l 391 326 l 174 326 l 174 130 l 434 130 l 434 0 l 43 0 l 43 781 l 434 781 m 282 846 l 195 846 l 195 911 l 282 911 l 282 846 z "},"ė":{"ha":477,"x_min":43,"x_max":434,"o":"m 174 391 l 304 391 l 304 521 l 174 521 l 174 391 m 304 130 l 304 195 l 434 195 l 434 130 q 396 38 434 76 q 304 0 358 0 l 174 0 q 82 38 120 0 q 43 130 43 76 l 43 521 q 82 613 43 574 q 174 651 120 651 l 304 651 q 396 613 358 651 q 434 521 434 574 l 434 260 l 174 260 l 174 130 l 304 130 m 282 716 l 195 716 l 195 781 l 282 781 l 282 716 z "},"Ġ":{"ha":477,"x_min":43,"x_max":434,"o":"m 434 651 l 434 564 l 304 564 l 304 651 l 174 651 l 174 130 l 304 130 q 278 38 304 76 q 217 0 253 0 l 174 0 q 82 38 120 0 q 43 130 43 76 l 43 651 q 82 743 43 705 q 174 781 120 781 l 304 781 q 396 743 358 781 q 434 651 434 705 m 304 326 l 260 326 l 260 456 l 434 456 l 434 0 l 347 0 l 304 130 l 304 326 m 282 846 l 195 846 l 195 911 l 282 911 l 282 846 z "},"ġ":{"ha":477,"x_min":43,"x_max":434,"o":"m 217 651 q 278 613 253 651 q 304 521 304 575 l 174 521 l 174 174 l 304 174 q 278 82 304 120 q 217 43 253 43 l 174 43 q 81 82 119 43 q 43 174 43 120 l 43 521 q 82 613 43 575 q 174 651 120 651 l 217 651 m 304 521 l 347 651 l 434 651 l 434 0 q 396 -92 434 -54 q 304 -130 358 -130 l 87 -130 l 174 0 l 304 0 l 304 521 m 282 716 l 195 716 l 195 781 l 282 781 l 282 716 z "},"İ":{"ha":217,"x_min":43,"x_max":174,"o":"m 174 0 l 43 0 l 43 781 l 174 781 l 174 0 m 152 846 l 65 846 l 65 911 l 152 911 l 152 846 z "},"ı":{"ha":217,"x_min":43,"x_max":174,"o":"m 174 0 l 43 0 l 43 651 l 174 651 l 174 0 z "},"Ż":{"ha":477,"x_min":43,"x_max":434,"o":"m 43 0 l 43 130 l 281 651 l 43 651 l 43 781 l 434 781 l 434 651 l 196 130 l 434 130 l 434 0 l 43 0 m 282 846 l 195 846 l 195 911 l 282 911 l 282 846 z "},"ż":{"ha":477,"x_min":43,"x_max":434,"o":"m 43 0 l 43 130 l 281 521 l 43 521 l 43 651 l 434 651 l 434 521 l 196 130 l 434 130 l 434 0 l 43 0 m 282 716 l 195 716 l 195 781 l 282 781 l 282 716 z "},"Ȧ":{"ha":477,"x_min":43,"x_max":434,"o":"m 282 846 l 195 846 l 195 911 l 282 911 l 282 846 m 275 260 l 239 651 l 202 260 l 275 260 m 434 0 l 304 0 l 290 130 l 188 130 l 174 0 l 43 0 l 129 781 l 349 781 l 434 0 z "},"ȧ":{"ha":477,"x_min":43,"x_max":434,"o":"m 304 130 q 278 38 304 76 q 217 0 253 0 l 174 0 q 82 38 120 0 q 43 130 43 76 l 43 326 q 69 418 43 380 q 130 456 94 456 l 174 456 q 266 418 228 456 q 304 326 304 380 l 174 326 l 174 130 l 304 130 m 87 521 q 125 613 87 575 q 217 651 163 651 l 304 651 q 396 613 358 651 q 434 521 434 574 l 434 0 l 347 0 l 304 130 l 304 521 l 87 521 m 304 716 l 217 716 l 217 781 l 304 781 l 304 716 z "},"Ȯ":{"ha":477,"x_min":43,"x_max":434,"o":"m 174 130 l 304 130 l 304 651 l 174 651 l 174 130 m 43 130 l 43 651 q 82 743 43 705 q 174 781 120 781 l 304 781 q 396 743 358 781 q 434 651 434 705 l 434 130 q 396 38 434 76 q 304 0 358 0 l 174 0 q 82 38 120 0 q 43 130 43 76 m 282 846 l 195 846 l 195 911 l 282 911 l 282 846 z "},"ȯ":{"ha":477,"x_min":43,"x_max":434,"o":"m 174 130 l 304 130 l 304 521 l 174 521 l 174 130 m 43 130 l 43 521 q 82 613 43 574 q 174 651 120 651 l 304 651 q 396 613 358 651 q 434 521 434 574 l 434 130 q 396 38 434 76 q 304 0 358 0 l 174 0 q 82 38 120 0 q 43 130 43 76 m 282 716 l 195 716 l 195 781 l 282 781 l 282 716 z "},"Ḃ":{"ha":477,"x_min":43,"x_max":434,"o":"m 174 456 l 260 456 l 260 651 l 174 651 l 174 456 m 434 326 l 434 130 q 396 38 434 76 q 304 0 357 0 l 43 0 l 43 781 l 260 781 q 353 743 315 781 q 391 651 391 705 l 391 456 q 353 410 391 429 q 260 391 315 391 l 304 391 q 396 372 358 391 q 434 326 434 353 m 304 130 l 304 326 l 174 326 l 174 130 l 304 130 m 260 846 l 174 846 l 174 911 l 260 911 l 260 846 z "},"ḃ":{"ha":477,"x_min":43,"x_max":434,"o":"m 260 0 q 199 38 224 0 q 174 130 174 76 l 304 130 l 304 521 l 174 521 q 199 613 174 574 q 260 651 224 651 l 304 651 q 396 613 357 651 q 434 521 434 574 l 434 130 q 396 38 434 76 q 304 0 357 0 l 260 0 m 43 781 l 174 781 l 174 130 l 130 0 l 43 0 l 43 781 m 152 846 l 65 846 l 65 911 l 152 911 l 152 846 z "},"Ḋ":{"ha":477,"x_min":43,"x_max":434,"o":"m 304 651 l 174 651 l 174 130 l 304 130 l 304 651 m 434 130 q 396 38 434 76 q 304 0 357 0 l 43 0 l 43 781 l 304 781 q 396 743 357 781 q 434 651 434 705 l 434 130 m 260 846 l 174 846 l 174 911 l 260 911 l 260 846 z "},"ḋ":{"ha":477,"x_min":43,"x_max":434,"o":"m 304 130 q 278 38 304 76 q 217 0 253 0 l 174 0 q 82 38 120 0 q 43 130 43 76 l 43 521 q 82 613 43 574 q 174 651 120 651 l 217 651 q 278 613 253 651 q 304 521 304 574 l 174 521 l 174 130 l 304 130 m 304 781 l 434 781 l 434 0 l 347 0 l 304 130 l 304 781 m 412 846 l 326 846 l 326 911 l 412 911 l 412 846 z "},"Ḟ":{"ha":477,"x_min":43,"x_max":434,"o":"m 434 781 l 434 651 l 174 651 l 174 456 l 391 456 l 391 326 l 174 326 l 174 0 l 43 0 l 43 781 l 434 781 m 282 846 l 195 846 l 195 911 l 282 911 l 282 846 z "},"ḟ":{"ha":347,"x_min":43,"x_max":304,"o":"m 239 0 l 109 0 l 109 456 l 43 456 l 43 586 l 109 586 l 109 651 q 147 743 109 705 q 239 781 185 781 l 304 781 l 304 651 l 239 651 l 239 586 l 304 586 l 304 456 l 239 456 l 239 0 m 282 846 l 195 846 l 195 911 l 282 911 l 282 846 z "},"Ḣ":{"ha":477,"x_min":43,"x_max":434,"o":"m 43 781 l 174 781 l 174 456 l 304 456 l 304 781 l 434 781 l 434 0 l 304 0 l 304 326 l 174 326 l 174 0 l 43 0 l 43 781 m 282 846 l 195 846 l 195 911 l 282 911 l 282 846 z "},"ḣ":{"ha":477,"x_min":43,"x_max":434,"o":"m 174 521 q 199 613 174 575 q 260 651 224 651 l 304 651 q 396 613 357 651 q 434 521 434 575 l 434 0 l 304 0 l 304 521 l 174 521 m 174 0 l 43 0 l 43 781 l 174 781 l 174 0 m 152 846 l 65 846 l 65 911 l 152 911 l 152 846 z "},"Ṁ":{"ha":738,"x_min":43,"x_max":694,"o":"m 412 846 l 326 846 l 326 911 l 412 911 l 412 846 m 174 391 l 174 0 l 43 0 l 43 781 l 184 781 l 369 195 l 554 781 l 694 781 l 694 0 l 564 0 l 564 391 l 444 0 l 294 0 l 174 391 z "},"ṁ":{"ha":608,"x_min":43,"x_max":564,"o":"m 564 521 l 564 0 l 434 0 l 434 521 l 369 521 q 388 613 369 575 q 434 651 407 651 q 526 613 488 651 q 564 521 564 575 m 369 0 l 239 0 l 239 521 l 174 521 q 193 613 174 575 q 239 651 212 651 q 331 613 293 651 q 369 521 369 575 l 369 0 m 43 651 l 130 651 l 174 521 l 174 0 l 43 0 l 43 651 m 347 716 l 260 716 l 260 781 l 347 781 l 347 716 z "},"Ṅ":{"ha":477,"x_min":43,"x_max":434,"o":"m 282 846 l 195 846 l 195 911 l 282 911 l 282 846 m 43 781 l 184 781 l 304 391 l 304 781 l 434 781 l 434 0 l 294 0 l 174 391 l 174 0 l 43 0 l 43 781 z "},"ṅ":{"ha":477,"x_min":43,"x_max":434,"o":"m 43 651 l 130 651 l 174 521 l 174 0 l 43 0 l 43 651 m 174 521 q 199 613 174 575 q 260 651 224 651 l 304 651 q 396 613 357 651 q 434 521 434 575 l 434 0 l 304 0 l 304 521 l 174 521 m 282 716 l 195 716 l 195 781 l 282 781 l 282 716 z "},"Ṗ":{"ha":477,"x_min":43,"x_max":434,"o":"m 304 651 l 174 651 l 174 391 l 304 391 l 304 651 m 434 651 l 434 391 q 396 298 434 336 q 304 260 357 260 l 174 260 l 174 0 l 43 0 l 43 781 l 304 781 q 396 743 357 781 q 434 651 434 705 m 260 846 l 174 846 l 174 911 l 260 911 l 260 846 z "},"ṗ":{"ha":477,"x_min":43,"x_max":434,"o":"m 174 521 q 199 613 174 575 q 260 651 224 651 l 304 651 q 396 613 357 651 q 434 521 434 575 l 434 130 q 396 38 434 76 q 304 0 357 0 l 260 0 q 199 38 224 0 q 174 130 174 76 l 304 130 l 304 521 l 174 521 m 174 -130 l 43 -130 l 43 651 l 130 651 l 174 521 l 174 -130 m 282 716 l 195 716 l 195 781 l 282 781 l 282 716 z "},"Ṙ":{"ha":477,"x_min":43,"x_max":434,"o":"m 304 651 l 174 651 l 174 391 l 304 391 l 304 651 m 434 651 l 434 391 q 396 298 434 336 q 333 263 368 271 l 434 0 l 294 0 l 194 260 l 174 260 l 174 0 l 43 0 l 43 781 l 304 781 q 396 743 357 781 q 434 651 434 705 m 260 846 l 174 846 l 174 911 l 260 911 l 260 846 z "},"ṙ":{"ha":477,"x_min":43,"x_max":434,"o":"m 43 651 l 130 651 l 174 521 l 174 0 l 43 0 l 43 651 m 434 521 l 434 434 l 304 434 l 304 521 l 174 521 q 199 613 174 575 q 260 651 224 651 l 304 651 q 396 613 357 651 q 434 521 434 575 m 282 716 l 195 716 l 195 781 l 282 781 l 282 716 z "},"Ṡ":{"ha":477,"x_min":43,"x_max":434,"o":"m 174 0 q 82 38 120 0 q 43 130 43 76 l 44 130 l 44 260 l 174 260 l 174 130 l 304 130 l 304 213 l 43 521 l 43 651 q 82 743 43 705 q 174 781 120 781 l 304 781 q 396 743 358 781 q 434 651 434 705 l 434 521 l 304 521 l 304 651 l 174 651 l 174 568 l 434 260 l 434 130 q 396 38 434 76 q 304 0 358 0 l 174 0 m 282 846 l 195 846 l 195 911 l 282 911 l 282 846 z "},"ṡ":{"ha":477,"x_min":43,"x_max":434,"o":"m 174 0 q 82 38 120 0 q 43 130 43 76 l 44 130 l 44 217 l 174 217 l 174 130 l 304 130 l 304 148 l 43 456 l 43 521 q 82 613 43 575 q 174 651 120 651 l 304 651 q 396 613 358 651 q 434 521 434 575 l 434 434 l 304 434 l 304 521 l 174 521 l 174 503 l 434 195 l 434 130 q 396 38 434 76 q 304 0 358 0 l 174 0 m 282 716 l 195 716 l 195 781 l 282 781 l 282 716 z "},"Ṫ":{"ha":477,"x_min":43,"x_max":434,"o":"m 304 0 l 174 0 l 174 651 l 43 651 l 43 781 l 434 781 l 434 651 l 304 651 l 304 0 m 282 846 l 195 846 l 195 911 l 282 911 l 282 846 z "},"ṫ":{"ha":347,"x_min":43,"x_max":304,"o":"m 239 130 l 304 130 l 304 0 l 239 0 q 147 38 185 0 q 109 130 109 76 l 109 521 l 43 521 l 43 651 l 109 651 l 109 781 l 239 781 l 239 651 l 304 651 l 304 521 l 239 521 l 239 130 m 217 846 l 130 846 l 130 911 l 217 911 l 217 846 z "},"Ẇ":{"ha":738,"x_min":43,"x_max":694,"o":"m 412 846 l 326 846 l 326 911 l 412 911 l 412 846 m 566 0 l 432 0 l 369 391 l 306 0 l 172 0 l 43 781 l 176 781 l 239 260 l 302 781 l 436 781 l 499 260 l 562 781 l 694 781 l 566 0 z "},"ẇ":{"ha":738,"x_min":43,"x_max":694,"o":"m 412 716 l 326 716 l 326 781 l 412 781 l 412 716 m 172 0 l 43 651 l 176 651 l 239 260 l 302 651 l 436 651 l 499 260 l 562 651 l 694 651 l 566 0 l 432 0 l 369 391 l 306 0 l 172 0 z "},"Ẋ":{"ha":477,"x_min":43,"x_max":434,"o":"m 282 846 l 195 846 l 195 911 l 282 911 l 282 846 m 309 391 l 434 0 l 294 0 l 239 260 l 184 0 l 43 0 l 169 391 l 43 781 l 184 781 l 239 521 l 294 781 l 434 781 l 309 391 z "},"ẋ":{"ha":477,"x_min":43,"x_max":434,"o":"m 282 716 l 195 716 l 195 781 l 282 781 l 282 716 m 309 326 l 434 0 l 294 0 l 239 195 l 184 0 l 43 0 l 169 326 l 43 651 l 184 651 l 239 456 l 294 651 l 434 651 l 309 326 z "},"Ẏ":{"ha":477,"x_min":43,"x_max":434,"o":"m 282 846 l 195 846 l 195 911 l 282 911 l 282 846 m 239 391 l 302 781 l 434 781 l 304 260 l 304 0 l 174 0 l 174 260 l 43 781 l 176 781 l 239 391 z "},"ẏ":{"ha":477,"x_min":43,"x_max":434,"o":"m 282 716 l 195 716 l 195 781 l 282 781 l 282 716 m 43 -130 l 87 0 l 172 0 l 43 651 l 176 651 l 239 260 l 302 651 l 434 651 l 306 0 l 304 0 q 266 -92 304 -54 q 174 -130 228 -130 l 43 -130 z "},"Å":{"ha":477,"x_min":43,"x_max":434,"o":"m 275 260 l 239 651 l 202 260 l 275 260 m 434 0 l 304 0 l 290 130 l 188 130 l 174 0 l 43 0 l 129 781 l 349 781 l 434 0 m 206 841 l 271 841 l 271 917 l 206 917 l 206 841 m 141 863 l 141 895 q 160 941 141 922 q 206 960 179 960 l 271 960 q 317 941 298 960 q 336 895 336 922 l 336 863 q 317 817 336 836 q 271 798 298 798 l 206 798 q 160 817 179 798 q 141 863 141 836 z "},"å":{"ha":477,"x_min":43,"x_max":434,"o":"m 304 130 q 278 38 304 76 q 217 0 253 0 l 174 0 q 82 38 120 0 q 43 130 43 76 l 43 326 q 69 418 43 380 q 130 456 94 456 l 174 456 q 266 418 228 456 q 304 326 304 380 l 174 326 l 174 130 l 304 130 m 163 732 l 163 765 q 182 811 163 792 q 228 830 201 830 l 293 830 q 339 811 320 830 q 358 765 358 792 l 358 732 q 339 686 358 705 q 293 667 320 667 l 228 667 q 182 686 201 667 q 163 732 163 705 m 228 711 l 293 711 l 293 787 l 228 787 l 228 711 m 87 521 q 125 613 87 575 q 217 651 163 651 l 304 651 q 396 613 358 651 q 434 521 434 574 l 434 0 l 347 0 l 304 130 l 304 521 l 87 521 z "},"Ů":{"ha":477,"x_min":43,"x_max":434,"o":"m 304 781 l 434 781 l 434 130 q 396 38 434 76 q 304 0 358 0 l 174 0 q 82 38 120 0 q 43 130 43 76 l 43 781 l 174 781 l 174 130 l 304 130 l 304 781 m 141 863 l 141 895 q 160 941 141 922 q 206 960 179 960 l 271 960 q 317 941 298 960 q 336 895 336 922 l 336 863 q 317 817 336 836 q 271 798 298 798 l 206 798 q 160 817 179 798 q 141 863 141 836 m 206 841 l 271 841 l 271 917 l 206 917 l 206 841 z "},"ů":{"ha":477,"x_min":43,"x_max":434,"o":"m 304 651 l 434 651 l 434 0 l 347 0 l 304 130 l 304 651 m 141 732 l 141 765 q 160 811 141 792 q 206 830 179 830 l 271 830 q 317 811 298 830 q 336 765 336 792 l 336 732 q 317 686 336 705 q 271 667 298 667 l 206 667 q 160 686 179 667 q 141 732 141 705 m 206 711 l 271 711 l 271 787 l 206 787 l 206 711 m 304 130 q 278 38 304 76 q 217 0 253 0 l 174 0 q 82 38 120 0 q 43 130 43 76 l 43 651 l 174 651 l 174 130 l 304 130 z "},"ẘ":{"ha":738,"x_min":43,"x_max":694,"o":"m 336 711 l 401 711 l 401 787 l 336 787 l 336 711 m 172 0 l 43 651 l 176 651 l 239 260 l 302 651 l 436 651 l 499 260 l 562 651 l 694 651 l 566 0 l 432 0 l 369 391 l 306 0 l 172 0 m 271 732 l 271 765 q 290 811 271 792 q 336 830 309 830 l 401 830 q 448 811 429 830 q 467 765 467 792 l 467 732 q 448 686 467 705 q 401 667 429 667 l 336 667 q 290 686 309 667 q 271 732 271 705 z "},"ẙ":{"ha":477,"x_min":43,"x_max":434,"o":"m 206 711 l 271 711 l 271 787 l 206 787 l 206 711 m 43 -130 l 87 0 l 172 0 l 43 651 l 176 651 l 239 260 l 302 651 l 434 651 l 306 0 l 304 0 q 266 -92 304 -54 q 174 -130 228 -130 l 43 -130 m 141 732 l 141 765 q 160 811 141 792 q 206 830 179 830 l 271 830 q 317 811 298 830 q 336 765 336 792 l 336 732 q 317 686 336 705 q 271 667 298 667 l 206 667 q 160 686 179 667 q 141 732 141 705 z "},"Č":{"ha":477,"x_min":43,"x_max":434,"o":"m 304 130 l 304 260 l 434 260 l 434 130 q 396 38 434 76 q 304 0 358 0 l 174 0 q 82 38 120 0 q 43 130 43 76 l 43 651 q 82 743 43 705 q 174 781 120 781 l 304 781 q 396 743 358 781 q 434 651 434 705 l 434 521 l 304 521 l 304 651 l 174 651 l 174 130 l 304 130 m 239 890 l 308 960 l 354 913 l 239 798 l 123 913 l 170 960 l 239 890 z "},"č":{"ha":477,"x_min":43,"x_max":434,"o":"m 304 130 l 304 217 l 434 217 l 434 130 q 396 38 434 76 q 304 0 358 0 l 174 0 q 82 38 120 0 q 43 130 43 76 l 43 521 q 82 613 43 574 q 174 651 120 651 l 304 651 q 396 613 358 651 q 434 521 434 574 l 434 434 l 304 434 l 304 521 l 174 521 l 174 130 l 304 130 m 239 760 l 308 829 l 354 783 l 239 668 l 123 783 l 170 829 l 239 760 z "},"Ď":{"ha":477,"x_min":43,"x_max":434,"o":"m 304 651 l 174 651 l 174 130 l 304 130 l 304 651 m 434 130 q 396 38 434 76 q 304 0 357 0 l 43 0 l 43 781 l 304 781 q 396 743 357 781 q 434 651 434 705 l 434 130 m 217 890 l 286 960 l 332 913 l 217 798 l 102 913 l 148 960 l 217 890 z "},"ď":{"ha":477,"x_min":43,"x_max":521,"o":"m 304 130 q 278 38 304 76 q 217 0 253 0 l 174 0 q 82 38 120 0 q 43 130 43 76 l 43 521 q 82 613 43 574 q 174 651 120 651 l 217 651 q 278 613 253 651 q 304 521 304 574 l 174 521 l 174 130 l 304 130 m 304 781 l 434 781 l 434 0 l 347 0 l 304 130 l 304 781 m 456 781 l 521 781 l 521 651 l 456 586 l 456 781 z "},"Ě":{"ha":477,"x_min":43,"x_max":434,"o":"m 434 781 l 434 651 l 174 651 l 174 456 l 391 456 l 391 326 l 174 326 l 174 130 l 434 130 l 434 0 l 43 0 l 43 781 l 434 781 m 239 890 l 308 960 l 354 913 l 239 798 l 123 913 l 170 960 l 239 890 z "},"ě":{"ha":477,"x_min":43,"x_max":434,"o":"m 174 391 l 304 391 l 304 521 l 174 521 l 174 391 m 304 130 l 304 195 l 434 195 l 434 130 q 396 38 434 76 q 304 0 358 0 l 174 0 q 82 38 120 0 q 43 130 43 76 l 43 521 q 82 613 43 574 q 174 651 120 651 l 304 651 q 396 613 358 651 q 434 521 434 574 l 434 260 l 174 260 l 174 130 l 304 130 m 239 760 l 308 829 l 354 783 l 239 668 l 123 783 l 170 829 l 239 760 z "},"Ľ":{"ha":412,"x_min":43,"x_max":369,"o":"m 43 781 l 174 781 l 174 130 l 369 130 l 369 0 l 43 0 l 43 781 m 271 781 l 336 781 l 336 651 l 271 586 l 271 781 z "},"ľ":{"ha":217,"x_min":43,"x_max":260,"o":"m 43 781 l 174 781 l 174 0 l 130 0 q 69 38 94 0 q 43 130 43 76 l 43 781 m 195 781 l 260 781 l 260 651 l 195 586 l 195 781 z "},"Ň":{"ha":477,"x_min":43,"x_max":434,"o":"m 239 890 l 308 960 l 354 913 l 239 798 l 123 913 l 170 960 l 239 890 m 43 781 l 184 781 l 304 391 l 304 781 l 434 781 l 434 0 l 294 0 l 174 391 l 174 0 l 43 0 l 43 781 z "},"ň":{"ha":477,"x_min":43,"x_max":434,"o":"m 43 651 l 130 651 l 174 521 l 174 0 l 43 0 l 43 651 m 174 521 q 199 613 174 575 q 260 651 224 651 l 304 651 q 396 613 357 651 q 434 521 434 575 l 434 0 l 304 0 l 304 521 l 174 521 m 239 760 l 308 829 l 354 783 l 239 668 l 123 783 l 170 829 l 239 760 z "},"Ř":{"ha":477,"x_min":43,"x_max":434,"o":"m 304 651 l 174 651 l 174 391 l 304 391 l 304 651 m 434 651 l 434 391 q 396 298 434 336 q 333 263 368 271 l 434 0 l 294 0 l 194 260 l 174 260 l 174 0 l 43 0 l 43 781 l 304 781 q 396 743 357 781 q 434 651 434 705 m 217 890 l 286 960 l 332 913 l 217 798 l 102 913 l 148 960 l 217 890 z "},"ř":{"ha":477,"x_min":43,"x_max":434,"o":"m 43 651 l 130 651 l 174 521 l 174 0 l 43 0 l 43 651 m 434 521 l 434 434 l 304 434 l 304 521 l 174 521 q 199 613 174 575 q 260 651 224 651 l 304 651 q 396 613 357 651 q 434 521 434 575 m 239 760 l 308 829 l 354 783 l 239 668 l 123 783 l 170 829 l 239 760 z "},"Š":{"ha":477,"x_min":43,"x_max":434,"o":"m 174 0 q 82 38 120 0 q 43 130 43 76 l 44 130 l 44 260 l 174 260 l 174 130 l 304 130 l 304 213 l 43 521 l 43 651 q 82 743 43 705 q 174 781 120 781 l 304 781 q 396 743 358 781 q 434 651 434 705 l 434 521 l 304 521 l 304 651 l 174 651 l 174 568 l 434 260 l 434 130 q 396 38 434 76 q 304 0 358 0 l 174 0 m 239 890 l 308 960 l 354 913 l 239 798 l 123 913 l 170 960 l 239 890 z "},"š":{"ha":477,"x_min":43,"x_max":434,"o":"m 174 0 q 82 38 120 0 q 43 130 43 76 l 44 130 l 44 217 l 174 217 l 174 130 l 304 130 l 304 148 l 43 456 l 43 521 q 82 613 43 575 q 174 651 120 651 l 304 651 q 396 613 358 651 q 434 521 434 575 l 434 434 l 304 434 l 304 521 l 174 521 l 174 503 l 434 195 l 434 130 q 396 38 434 76 q 304 0 358 0 l 174 0 m 239 760 l 308 829 l 354 783 l 239 668 l 123 783 l 170 829 l 239 760 z "},"Ť":{"ha":477,"x_min":43,"x_max":434,"o":"m 304 0 l 174 0 l 174 651 l 43 651 l 43 781 l 434 781 l 434 651 l 304 651 l 304 0 m 239 890 l 308 960 l 354 913 l 239 798 l 123 913 l 170 960 l 239 890 z "},"ť":{"ha":347,"x_min":43,"x_max":347,"o":"m 239 130 l 304 130 l 304 0 l 239 0 q 147 38 185 0 q 109 130 109 76 l 109 521 l 43 521 l 43 651 l 109 651 l 109 781 l 239 781 l 239 651 l 304 651 l 304 521 l 239 521 l 239 130 m 282 911 l 347 911 l 347 781 l 282 716 l 282 911 z "},"Ž":{"ha":477,"x_min":43,"x_max":434,"o":"m 43 0 l 43 130 l 281 651 l 43 651 l 43 781 l 434 781 l 434 651 l 196 130 l 434 130 l 434 0 l 43 0 m 239 890 l 308 960 l 354 913 l 239 798 l 123 913 l 170 960 l 239 890 z "},"ž":{"ha":477,"x_min":43,"x_max":434,"o":"m 43 0 l 43 130 l 281 521 l 43 521 l 43 651 l 434 651 l 434 521 l 196 130 l 434 130 l 434 0 l 43 0 m 239 760 l 308 829 l 354 783 l 239 668 l 123 783 l 170 829 l 239 760 z "},"Ǎ":{"ha":477,"x_min":43,"x_max":434,"o":"m 239 890 l 308 960 l 354 913 l 239 798 l 123 913 l 170 960 l 239 890 m 275 260 l 239 651 l 202 260 l 275 260 m 434 0 l 304 0 l 290 130 l 188 130 l 174 0 l 43 0 l 129 781 l 349 781 l 434 0 z "},"ǎ":{"ha":477,"x_min":43,"x_max":434,"o":"m 304 130 q 278 38 304 76 q 217 0 253 0 l 174 0 q 82 38 120 0 q 43 130 43 76 l 43 326 q 69 418 43 380 q 130 456 94 456 l 174 456 q 266 418 228 456 q 304 326 304 380 l 174 326 l 174 130 l 304 130 m 87 521 q 125 613 87 575 q 217 651 163 651 l 304 651 q 396 613 358 651 q 434 521 434 574 l 434 0 l 347 0 l 304 130 l 304 521 l 87 521 m 260 760 l 330 829 l 376 783 l 260 668 l 145 783 l 191 829 l 260 760 z "},"Ǐ":{"ha":217,"x_min":-7,"x_max":224,"o":"m 174 0 l 43 0 l 43 781 l 174 781 l 174 0 m 109 890 l 178 960 l 224 913 l 109 798 l -7 913 l 39 960 l 109 890 z "},"ǐ":{"ha":217,"x_min":-7,"x_max":224,"o":"m 174 0 l 43 0 l 43 651 l 174 651 l 174 0 m 109 760 l 178 829 l 224 783 l 109 668 l -7 783 l 39 829 l 109 760 z "},"Ǒ":{"ha":477,"x_min":43,"x_max":434,"o":"m 174 130 l 304 130 l 304 651 l 174 651 l 174 130 m 43 130 l 43 651 q 82 743 43 705 q 174 781 120 781 l 304 781 q 396 743 358 781 q 434 651 434 705 l 434 130 q 396 38 434 76 q 304 0 358 0 l 174 0 q 82 38 120 0 q 43 130 43 76 m 239 890 l 308 960 l 354 913 l 239 798 l 123 913 l 170 960 l 239 890 z "},"ǒ":{"ha":477,"x_min":43,"x_max":434,"o":"m 174 130 l 304 130 l 304 521 l 174 521 l 174 130 m 43 130 l 43 521 q 82 613 43 574 q 174 651 120 651 l 304 651 q 396 613 358 651 q 434 521 434 574 l 434 130 q 396 38 434 76 q 304 0 358 0 l 174 0 q 82 38 120 0 q 43 130 43 76 m 239 760 l 308 829 l 354 783 l 239 668 l 123 783 l 170 829 l 239 760 z "},"Ǔ":{"ha":477,"x_min":43,"x_max":434,"o":"m 304 781 l 434 781 l 434 130 q 396 38 434 76 q 304 0 358 0 l 174 0 q 82 38 120 0 q 43 130 43 76 l 43 781 l 174 781 l 174 130 l 304 130 l 304 781 m 239 890 l 308 960 l 354 913 l 239 798 l 123 913 l 170 960 l 239 890 z "},"ǔ":{"ha":477,"x_min":43,"x_max":434,"o":"m 304 651 l 434 651 l 434 0 l 347 0 l 304 130 l 304 651 m 304 130 q 278 38 304 76 q 217 0 253 0 l 174 0 q 82 38 120 0 q 43 130 43 76 l 43 651 l 174 651 l 174 130 l 304 130 m 239 760 l 308 829 l 354 783 l 239 668 l 123 783 l 170 829 l 239 760 z "},"Ǧ":{"ha":477,"x_min":43,"x_max":434,"o":"m 434 651 l 434 564 l 304 564 l 304 651 l 174 651 l 174 130 l 304 130 q 278 38 304 76 q 217 0 253 0 l 174 0 q 82 38 120 0 q 43 130 43 76 l 43 651 q 82 743 43 705 q 174 781 120 781 l 304 781 q 396 743 358 781 q 434 651 434 705 m 304 326 l 260 326 l 260 456 l 434 456 l 434 0 l 347 0 l 304 130 l 304 326 m 239 890 l 308 960 l 354 913 l 239 798 l 123 913 l 170 960 l 239 890 z "},"ǧ":{"ha":477,"x_min":43,"x_max":434,"o":"m 217 651 q 278 613 253 651 q 304 521 304 575 l 174 521 l 174 174 l 304 174 q 278 82 304 120 q 217 43 253 43 l 174 43 q 81 82 119 43 q 43 174 43 120 l 43 521 q 82 613 43 575 q 174 651 120 651 l 217 651 m 304 521 l 347 651 l 434 651 l 434 0 q 396 -92 434 -54 q 304 -130 358 -130 l 87 -130 l 174 0 l 304 0 l 304 521 m 239 760 l 308 829 l 354 783 l 239 668 l 123 783 l 170 829 l 239 760 z "},"Ǩ":{"ha":477,"x_min":43,"x_max":434,"o":"m 239 890 l 308 960 l 354 913 l 239 798 l 123 913 l 170 960 l 239 890 m 174 260 l 174 0 l 43 0 l 43 781 l 174 781 l 174 391 l 294 781 l 434 781 l 281 302 l 434 0 l 281 0 l 174 260 z "},"ǩ":{"ha":477,"x_min":-7,"x_max":434,"o":"m 109 890 l 178 960 l 224 913 l 109 798 l -7 913 l 39 960 l 109 890 m 43 781 l 174 781 l 174 338 l 294 651 l 434 651 l 281 252 l 434 0 l 281 0 l 174 177 l 174 0 l 43 0 l 43 781 z "},"ǰ":{"ha":260,"x_min":-43,"x_max":267,"o":"m 87 651 l 217 651 l 217 0 q 179 -92 217 -54 q 87 -130 141 -130 l -43 -130 l 43 0 l 87 0 l 87 651 m 152 760 l 221 829 l 267 783 l 152 668 l 37 783 l 83 829 l 152 760 z "},"Ȟ":{"ha":477,"x_min":43,"x_max":434,"o":"m 43 781 l 174 781 l 174 456 l 304 456 l 304 781 l 434 781 l 434 0 l 304 0 l 304 326 l 174 326 l 174 0 l 43 0 l 43 781 m 239 890 l 308 960 l 354 913 l 239 798 l 123 913 l 170 960 l 239 890 z "},"ȟ":{"ha":477,"x_min":-7,"x_max":434,"o":"m 174 521 q 199 613 174 575 q 260 651 224 651 l 304 651 q 396 613 357 651 q 434 521 434 575 l 434 0 l 304 0 l 304 521 l 174 521 m 174 0 l 43 0 l 43 781 l 174 781 l 174 0 m 109 890 l 178 960 l 224 913 l 109 798 l -7 913 l 39 960 l 109 890 z "},"Â":{"ha":477,"x_min":43,"x_max":434,"o":"m 239 867 l 170 798 l 123 844 l 239 960 l 354 844 l 308 798 l 239 867 m 275 260 l 239 651 l 202 260 l 275 260 m 434 0 l 304 0 l 290 130 l 188 130 l 174 0 l 43 0 l 129 781 l 349 781 l 434 0 z "},"â":{"ha":477,"x_min":43,"x_max":434,"o":"m 304 130 q 278 38 304 76 q 217 0 253 0 l 174 0 q 82 38 120 0 q 43 130 43 76 l 43 326 q 69 418 43 380 q 130 456 94 456 l 174 456 q 266 418 228 456 q 304 326 304 380 l 174 326 l 174 130 l 304 130 m 87 521 q 125 613 87 575 q 217 651 163 651 l 304 651 q 396 613 358 651 q 434 521 434 574 l 434 0 l 347 0 l 304 130 l 304 521 l 87 521 m 260 737 l 191 668 l 145 714 l 260 829 l 376 714 l 330 668 l 260 737 z "},"Ê":{"ha":477,"x_min":43,"x_max":434,"o":"m 434 781 l 434 651 l 174 651 l 174 456 l 391 456 l 391 326 l 174 326 l 174 130 l 434 130 l 434 0 l 43 0 l 43 781 l 434 781 m 239 867 l 170 798 l 123 844 l 239 960 l 354 844 l 308 798 l 239 867 z "},"ê":{"ha":477,"x_min":43,"x_max":434,"o":"m 174 391 l 304 391 l 304 521 l 174 521 l 174 391 m 304 130 l 304 195 l 434 195 l 434 130 q 396 38 434 76 q 304 0 358 0 l 174 0 q 82 38 120 0 q 43 130 43 76 l 43 521 q 82 613 43 574 q 174 651 120 651 l 304 651 q 396 613 358 651 q 434 521 434 574 l 434 260 l 174 260 l 174 130 l 304 130 m 239 737 l 170 668 l 123 714 l 239 829 l 354 714 l 308 668 l 239 737 z "},"Î":{"ha":217,"x_min":-7,"x_max":224,"o":"m 174 0 l 43 0 l 43 781 l 174 781 l 174 0 m 109 867 l 39 798 l -7 844 l 109 960 l 224 844 l 178 798 l 109 867 z "},"î":{"ha":217,"x_min":-7,"x_max":224,"o":"m 174 0 l 43 0 l 43 651 l 174 651 l 174 0 m 109 737 l 39 668 l -7 714 l 109 829 l 224 714 l 178 668 l 109 737 z "},"Ô":{"ha":477,"x_min":43,"x_max":434,"o":"m 174 130 l 304 130 l 304 651 l 174 651 l 174 130 m 43 130 l 43 651 q 82 743 43 705 q 174 781 120 781 l 304 781 q 396 743 358 781 q 434 651 434 705 l 434 130 q 396 38 434 76 q 304 0 358 0 l 174 0 q 82 38 120 0 q 43 130 43 76 m 239 867 l 170 798 l 123 844 l 239 960 l 354 844 l 308 798 l 239 867 z "},"ô":{"ha":477,"x_min":43,"x_max":434,"o":"m 174 130 l 304 130 l 304 521 l 174 521 l 174 130 m 43 130 l 43 521 q 82 613 43 574 q 174 651 120 651 l 304 651 q 396 613 358 651 q 434 521 434 574 l 434 130 q 396 38 434 76 q 304 0 358 0 l 174 0 q 82 38 120 0 q 43 130 43 76 m 239 737 l 170 668 l 123 714 l 239 829 l 354 714 l 308 668 l 239 737 z "},"Û":{"ha":477,"x_min":43,"x_max":434,"o":"m 304 781 l 434 781 l 434 130 q 396 38 434 76 q 304 0 358 0 l 174 0 q 82 38 120 0 q 43 130 43 76 l 43 781 l 174 781 l 174 130 l 304 130 l 304 781 m 239 867 l 170 798 l 123 844 l 239 960 l 354 844 l 308 798 l 239 867 z "},"û":{"ha":477,"x_min":43,"x_max":434,"o":"m 304 651 l 434 651 l 434 0 l 347 0 l 304 130 l 304 651 m 304 130 q 278 38 304 76 q 217 0 253 0 l 174 0 q 82 38 120 0 q 43 130 43 76 l 43 651 l 174 651 l 174 130 l 304 130 m 239 737 l 170 668 l 123 714 l 239 829 l 354 714 l 308 668 l 239 737 z "},"Ĉ":{"ha":477,"x_min":43,"x_max":434,"o":"m 304 130 l 304 260 l 434 260 l 434 130 q 396 38 434 76 q 304 0 358 0 l 174 0 q 82 38 120 0 q 43 130 43 76 l 43 651 q 82 743 43 705 q 174 781 120 781 l 304 781 q 396 743 358 781 q 434 651 434 705 l 434 521 l 304 521 l 304 651 l 174 651 l 174 130 l 304 130 m 239 867 l 170 798 l 123 844 l 239 960 l 354 844 l 308 798 l 239 867 z "},"ĉ":{"ha":477,"x_min":43,"x_max":434,"o":"m 304 130 l 304 217 l 434 217 l 434 130 q 396 38 434 76 q 304 0 358 0 l 174 0 q 82 38 120 0 q 43 130 43 76 l 43 521 q 82 613 43 574 q 174 651 120 651 l 304 651 q 396 613 358 651 q 434 521 434 574 l 434 434 l 304 434 l 304 521 l 174 521 l 174 130 l 304 130 m 239 737 l 170 668 l 123 714 l 239 829 l 354 714 l 308 668 l 239 737 z "},"Ĝ":{"ha":477,"x_min":43,"x_max":434,"o":"m 434 651 l 434 564 l 304 564 l 304 651 l 174 651 l 174 130 l 304 130 q 278 38 304 76 q 217 0 253 0 l 174 0 q 82 38 120 0 q 43 130 43 76 l 43 651 q 82 743 43 705 q 174 781 120 781 l 304 781 q 396 743 358 781 q 434 651 434 705 m 304 326 l 260 326 l 260 456 l 434 456 l 434 0 l 347 0 l 304 130 l 304 326 m 239 867 l 170 798 l 123 844 l 239 960 l 354 844 l 308 798 l 239 867 z "},"ĝ":{"ha":477,"x_min":43,"x_max":434,"o":"m 217 651 q 278 613 253 651 q 304 521 304 575 l 174 521 l 174 174 l 304 174 q 278 82 304 120 q 217 43 253 43 l 174 43 q 81 82 119 43 q 43 174 43 120 l 43 521 q 82 613 43 575 q 174 651 120 651 l 217 651 m 304 521 l 347 651 l 434 651 l 434 0 q 396 -92 434 -54 q 304 -130 358 -130 l 87 -130 l 174 0 l 304 0 l 304 521 m 239 737 l 170 668 l 123 714 l 239 829 l 354 714 l 308 668 l 239 737 z "},"Ĥ":{"ha":477,"x_min":43,"x_max":434,"o":"m 43 781 l 174 781 l 174 456 l 304 456 l 304 781 l 434 781 l 434 0 l 304 0 l 304 326 l 174 326 l 174 0 l 43 0 l 43 781 m 239 867 l 170 798 l 123 844 l 239 960 l 354 844 l 308 798 l 239 867 z "},"ĥ":{"ha":477,"x_min":-7,"x_max":434,"o":"m 174 521 q 199 613 174 575 q 260 651 224 651 l 304 651 q 396 613 357 651 q 434 521 434 575 l 434 0 l 304 0 l 304 521 l 174 521 m 174 0 l 43 0 l 43 781 l 174 781 l 174 0 m 109 867 l 39 798 l -7 844 l 109 960 l 224 844 l 178 798 l 109 867 z "},"Ĵ":{"ha":477,"x_min":43,"x_max":484,"o":"m 369 867 l 300 798 l 254 844 l 369 960 l 484 844 l 438 798 l 369 867 m 174 0 q 82 38 120 0 q 43 130 43 76 l 44 130 l 44 260 l 174 260 l 174 130 l 304 130 l 304 781 l 434 781 l 434 130 q 396 38 434 76 q 304 0 358 0 l 174 0 z "},"ĵ":{"ha":260,"x_min":-43,"x_max":267,"o":"m 87 651 l 217 651 l 217 0 q 179 -92 217 -54 q 87 -130 141 -130 l -43 -130 l 43 0 l 87 0 l 87 651 m 152 737 l 83 668 l 37 714 l 152 829 l 267 714 l 221 668 l 152 737 z "},"Ŝ":{"ha":477,"x_min":43,"x_max":434,"o":"m 174 0 q 82 38 120 0 q 43 130 43 76 l 44 130 l 44 260 l 174 260 l 174 130 l 304 130 l 304 213 l 43 521 l 43 651 q 82 743 43 705 q 174 781 120 781 l 304 781 q 396 743 358 781 q 434 651 434 705 l 434 521 l 304 521 l 304 651 l 174 651 l 174 568 l 434 260 l 434 130 q 396 38 434 76 q 304 0 358 0 l 174 0 m 239 867 l 170 798 l 123 844 l 239 960 l 354 844 l 308 798 l 239 867 z "},"ŝ":{"ha":477,"x_min":43,"x_max":434,"o":"m 174 0 q 82 38 120 0 q 43 130 43 76 l 44 130 l 44 217 l 174 217 l 174 130 l 304 130 l 304 148 l 43 456 l 43 521 q 82 613 43 575 q 174 651 120 651 l 304 651 q 396 613 358 651 q 434 521 434 575 l 434 434 l 304 434 l 304 521 l 174 521 l 174 503 l 434 195 l 434 130 q 396 38 434 76 q 304 0 358 0 l 174 0 m 239 737 l 170 668 l 123 714 l 239 829 l 354 714 l 308 668 l 239 737 z "},"Ŵ":{"ha":738,"x_min":43,"x_max":694,"o":"m 369 867 l 300 798 l 254 844 l 369 960 l 484 844 l 438 798 l 369 867 m 566 0 l 432 0 l 369 391 l 306 0 l 172 0 l 43 781 l 176 781 l 239 260 l 302 781 l 436 781 l 499 260 l 562 781 l 694 781 l 566 0 z "},"ŵ":{"ha":738,"x_min":43,"x_max":694,"o":"m 369 737 l 300 668 l 254 714 l 369 829 l 484 714 l 438 668 l 369 737 m 172 0 l 43 651 l 176 651 l 239 260 l 302 651 l 436 651 l 499 260 l 562 651 l 694 651 l 566 0 l 432 0 l 369 391 l 306 0 l 172 0 z "},"Ŷ":{"ha":477,"x_min":43,"x_max":434,"o":"m 239 867 l 170 798 l 123 844 l 239 960 l 354 844 l 308 798 l 239 867 m 239 391 l 302 781 l 434 781 l 304 260 l 304 0 l 174 0 l 174 260 l 43 781 l 176 781 l 239 391 z "},"ŷ":{"ha":477,"x_min":43,"x_max":434,"o":"m 239 737 l 170 668 l 123 714 l 239 829 l 354 714 l 308 668 l 239 737 m 43 -130 l 87 0 l 172 0 l 43 651 l 176 651 l 239 260 l 302 651 l 434 651 l 306 0 l 304 0 q 266 -92 304 -54 q 174 -130 228 -130 l 43 -130 z "},"Ẑ":{"ha":477,"x_min":43,"x_max":434,"o":"m 43 0 l 43 130 l 281 651 l 43 651 l 43 781 l 434 781 l 434 651 l 196 130 l 434 130 l 434 0 l 43 0 m 239 867 l 170 798 l 123 844 l 239 960 l 354 844 l 308 798 l 239 867 z "},"ẑ":{"ha":477,"x_min":43,"x_max":434,"o":"m 43 0 l 43 130 l 281 521 l 43 521 l 43 651 l 434 651 l 434 521 l 196 130 l 434 130 l 434 0 l 43 0 m 239 737 l 170 668 l 123 714 l 239 829 l 354 714 l 308 668 l 239 737 z "},"Ă":{"ha":477,"x_min":43,"x_max":434,"o":"m 282 879 l 282 944 l 347 944 l 347 879 q 328 833 347 852 q 282 814 309 814 l 195 814 q 149 833 168 814 q 130 879 130 852 l 130 944 l 195 944 l 195 879 l 282 879 m 275 260 l 239 651 l 202 260 l 275 260 m 434 0 l 304 0 l 290 130 l 188 130 l 174 0 l 43 0 l 129 781 l 349 781 l 434 0 z "},"ă":{"ha":477,"x_min":43,"x_max":434,"o":"m 304 130 q 278 38 304 76 q 217 0 253 0 l 174 0 q 82 38 120 0 q 43 130 43 76 l 43 326 q 69 418 43 380 q 130 456 94 456 l 174 456 q 266 418 228 456 q 304 326 304 380 l 174 326 l 174 130 l 304 130 m 87 521 q 125 613 87 575 q 217 651 163 651 l 304 651 q 396 613 358 651 q 434 521 434 574 l 434 0 l 347 0 l 304 130 l 304 521 l 87 521 m 304 749 l 304 814 l 369 814 l 369 749 q 350 703 369 722 q 304 684 331 684 l 217 684 q 171 703 190 684 q 152 749 152 722 l 152 814 l 217 814 l 217 749 l 304 749 z "},"Ĕ":{"ha":477,"x_min":43,"x_max":434,"o":"m 434 781 l 434 651 l 174 651 l 174 456 l 391 456 l 391 326 l 174 326 l 174 130 l 434 130 l 434 0 l 43 0 l 43 781 l 434 781 m 282 879 l 282 944 l 347 944 l 347 879 q 328 833 347 852 q 282 814 309 814 l 195 814 q 149 833 168 814 q 130 879 130 852 l 130 944 l 195 944 l 195 879 l 282 879 z "},"ĕ":{"ha":477,"x_min":43,"x_max":434,"o":"m 174 391 l 304 391 l 304 521 l 174 521 l 174 391 m 304 130 l 304 195 l 434 195 l 434 130 q 396 38 434 76 q 304 0 358 0 l 174 0 q 82 38 120 0 q 43 130 43 76 l 43 521 q 82 613 43 574 q 174 651 120 651 l 304 651 q 396 613 358 651 q 434 521 434 574 l 434 260 l 174 260 l 174 130 l 304 130 m 282 749 l 282 814 l 347 814 l 347 749 q 328 703 347 722 q 282 684 309 684 l 195 684 q 149 703 168 684 q 130 749 130 722 l 130 814 l 195 814 l 195 749 l 282 749 z "},"Ğ":{"ha":477,"x_min":43,"x_max":434,"o":"m 434 651 l 434 564 l 304 564 l 304 651 l 174 651 l 174 130 l 304 130 q 278 38 304 76 q 217 0 253 0 l 174 0 q 82 38 120 0 q 43 130 43 76 l 43 651 q 82 743 43 705 q 174 781 120 781 l 304 781 q 396 743 358 781 q 434 651 434 705 m 304 326 l 260 326 l 260 456 l 434 456 l 434 0 l 347 0 l 304 130 l 304 326 m 282 879 l 282 944 l 347 944 l 347 879 q 328 833 347 852 q 282 814 309 814 l 195 814 q 149 833 168 814 q 130 879 130 852 l 130 944 l 195 944 l 195 879 l 282 879 z "},"ğ":{"ha":477,"x_min":43,"x_max":434,"o":"m 217 651 q 278 613 253 651 q 304 521 304 575 l 174 521 l 174 174 l 304 174 q 278 82 304 120 q 217 43 253 43 l 174 43 q 81 82 119 43 q 43 174 43 120 l 43 521 q 82 613 43 575 q 174 651 120 651 l 217 651 m 304 521 l 347 651 l 434 651 l 434 0 q 396 -92 434 -54 q 304 -130 358 -130 l 87 -130 l 174 0 l 304 0 l 304 521 m 282 749 l 282 814 l 347 814 l 347 749 q 328 703 347 722 q 282 684 309 684 l 195 684 q 149 703 168 684 q 130 749 130 722 l 130 814 l 195 814 l 195 749 l 282 749 z "},"Ĭ":{"ha":217,"x_min":0,"x_max":217,"o":"m 174 0 l 43 0 l 43 781 l 174 781 l 174 0 m 152 879 l 152 944 l 217 944 l 217 879 q 198 833 217 852 q 152 814 179 814 l 65 814 q 19 833 38 814 q 0 879 0 852 l 0 944 l 65 944 l 65 879 l 152 879 z "},"ĭ":{"ha":217,"x_min":0,"x_max":217,"o":"m 174 0 l 43 0 l 43 651 l 174 651 l 174 0 m 152 749 l 152 814 l 217 814 l 217 749 q 198 703 217 722 q 152 684 179 684 l 65 684 q 19 703 38 684 q 0 749 0 722 l 0 814 l 65 814 l 65 749 l 152 749 z "},"Ŏ":{"ha":477,"x_min":43,"x_max":434,"o":"m 174 130 l 304 130 l 304 651 l 174 651 l 174 130 m 43 130 l 43 651 q 82 743 43 705 q 174 781 120 781 l 304 781 q 396 743 358 781 q 434 651 434 705 l 434 130 q 396 38 434 76 q 304 0 358 0 l 174 0 q 82 38 120 0 q 43 130 43 76 m 282 879 l 282 944 l 347 944 l 347 879 q 328 833 347 852 q 282 814 309 814 l 195 814 q 149 833 168 814 q 130 879 130 852 l 130 944 l 195 944 l 195 879 l 282 879 z "},"ŏ":{"ha":477,"x_min":43,"x_max":434,"o":"m 174 130 l 304 130 l 304 521 l 174 521 l 174 130 m 43 130 l 43 521 q 82 613 43 574 q 174 651 120 651 l 304 651 q 396 613 358 651 q 434 521 434 574 l 434 130 q 396 38 434 76 q 304 0 358 0 l 174 0 q 82 38 120 0 q 43 130 43 76 m 282 749 l 282 814 l 347 814 l 347 749 q 328 703 347 722 q 282 684 309 684 l 195 684 q 149 703 168 684 q 130 749 130 722 l 130 814 l 195 814 l 195 749 l 282 749 z "},"Ŭ":{"ha":477,"x_min":43,"x_max":434,"o":"m 304 781 l 434 781 l 434 130 q 396 38 434 76 q 304 0 358 0 l 174 0 q 82 38 120 0 q 43 130 43 76 l 43 781 l 174 781 l 174 130 l 304 130 l 304 781 m 282 879 l 282 944 l 347 944 l 347 879 q 328 833 347 852 q 282 814 309 814 l 195 814 q 149 833 168 814 q 130 879 130 852 l 130 944 l 195 944 l 195 879 l 282 879 z "},"ŭ":{"ha":477,"x_min":43,"x_max":434,"o":"m 304 651 l 434 651 l 434 0 l 347 0 l 304 130 l 304 651 m 304 130 q 278 38 304 76 q 217 0 253 0 l 174 0 q 82 38 120 0 q 43 130 43 76 l 43 651 l 174 651 l 174 130 l 304 130 m 282 749 l 282 814 l 347 814 l 347 749 q 328 703 347 722 q 282 684 309 684 l 195 684 q 149 703 168 684 q 130 749 130 722 l 130 814 l 195 814 l 195 749 l 282 749 z "},"Ã":{"ha":477,"x_min":43,"x_max":434,"o":"m 174 846 q 155 823 174 833 q 109 814 136 814 l 109 879 q 128 925 109 906 q 174 944 147 944 l 206 944 q 252 925 233 944 q 271 879 271 906 l 304 879 l 304 911 q 323 935 304 925 q 369 944 342 944 l 369 879 q 350 833 369 852 q 304 814 331 814 l 271 814 q 225 833 244 814 q 206 879 206 852 l 174 879 l 174 846 m 275 260 l 239 651 l 202 260 l 275 260 m 434 0 l 304 0 l 290 130 l 188 130 l 174 0 l 43 0 l 129 781 l 349 781 l 434 0 z "},"ã":{"ha":477,"x_min":43,"x_max":434,"o":"m 304 130 q 278 38 304 76 q 217 0 253 0 l 174 0 q 82 38 120 0 q 43 130 43 76 l 43 326 q 69 418 43 380 q 130 456 94 456 l 174 456 q 266 418 228 456 q 304 326 304 380 l 174 326 l 174 130 l 304 130 m 87 521 q 125 613 87 575 q 217 651 163 651 l 304 651 q 396 613 358 651 q 434 521 434 574 l 434 0 l 347 0 l 304 130 l 304 521 l 87 521 m 195 716 q 176 693 195 703 q 130 684 157 684 l 130 749 q 150 795 130 776 q 195 814 169 814 l 228 814 q 274 795 255 814 q 293 749 293 776 l 326 749 l 326 781 q 345 804 326 795 q 391 814 363 814 l 391 749 q 372 703 391 722 q 326 684 353 684 l 293 684 q 247 703 266 684 q 228 749 228 722 l 195 749 l 195 716 z "},"Ñ":{"ha":477,"x_min":43,"x_max":434,"o":"m 174 846 q 155 823 174 833 q 109 814 136 814 l 109 879 q 128 925 109 906 q 174 944 147 944 l 206 944 q 252 925 233 944 q 271 879 271 906 l 304 879 l 304 911 q 323 935 304 925 q 369 944 342 944 l 369 879 q 350 833 369 852 q 304 814 331 814 l 271 814 q 225 833 244 814 q 206 879 206 852 l 174 879 l 174 846 m 43 781 l 184 781 l 304 391 l 304 781 l 434 781 l 434 0 l 294 0 l 174 391 l 174 0 l 43 0 l 43 781 z "},"ñ":{"ha":477,"x_min":43,"x_max":434,"o":"m 43 651 l 130 651 l 174 521 l 174 0 l 43 0 l 43 651 m 174 521 q 199 613 174 575 q 260 651 224 651 l 304 651 q 396 613 357 651 q 434 521 434 575 l 434 0 l 304 0 l 304 521 l 174 521 m 174 716 q 155 693 174 703 q 109 684 136 684 l 109 749 q 128 795 109 776 q 174 814 147 814 l 206 814 q 252 795 233 814 q 271 749 271 776 l 304 749 l 304 781 q 323 804 304 795 q 369 814 342 814 l 369 749 q 350 703 369 722 q 304 684 331 684 l 271 684 q 225 703 244 684 q 206 749 206 722 l 174 749 l 174 716 z "},"Õ":{"ha":477,"x_min":43,"x_max":434,"o":"m 174 130 l 304 130 l 304 651 l 174 651 l 174 130 m 43 130 l 43 651 q 82 743 43 705 q 174 781 120 781 l 304 781 q 396 743 358 781 q 434 651 434 705 l 434 130 q 396 38 434 76 q 304 0 358 0 l 174 0 q 82 38 120 0 q 43 130 43 76 m 174 846 q 155 823 174 833 q 109 814 136 814 l 109 879 q 128 925 109 906 q 174 944 147 944 l 206 944 q 252 925 233 944 q 271 879 271 906 l 304 879 l 304 911 q 323 935 304 925 q 369 944 342 944 l 369 879 q 350 833 369 852 q 304 814 331 814 l 271 814 q 225 833 244 814 q 206 879 206 852 l 174 879 l 174 846 z "},"õ":{"ha":477,"x_min":43,"x_max":434,"o":"m 174 130 l 304 130 l 304 521 l 174 521 l 174 130 m 43 130 l 43 521 q 82 613 43 574 q 174 651 120 651 l 304 651 q 396 613 358 651 q 434 521 434 574 l 434 130 q 396 38 434 76 q 304 0 358 0 l 174 0 q 82 38 120 0 q 43 130 43 76 m 174 716 q 155 693 174 703 q 109 684 136 684 l 109 749 q 128 795 109 776 q 174 814 147 814 l 206 814 q 252 795 233 814 q 271 749 271 776 l 304 749 l 304 781 q 323 804 304 795 q 369 814 342 814 l 369 749 q 350 703 369 722 q 304 684 331 684 l 271 684 q 225 703 244 684 q 206 749 206 722 l 174 749 l 174 716 z "},"Ĩ":{"ha":217,"x_min":-22,"x_max":239,"o":"m 174 0 l 43 0 l 43 781 l 174 781 l 174 0 m 43 846 q 24 823 43 833 q -22 814 5 814 l -22 879 q -2 925 -22 906 q 43 944 17 944 l 76 944 q 122 925 103 944 q 141 879 141 906 l 174 879 l 174 911 q 193 935 174 925 q 239 944 212 944 l 239 879 q 220 833 239 852 q 174 814 201 814 l 141 814 q 95 833 114 814 q 76 879 76 852 l 43 879 l 43 846 z "},"ĩ":{"ha":217,"x_min":-22,"x_max":239,"o":"m 174 0 l 43 0 l 43 651 l 174 651 l 174 0 m 43 716 q 24 693 43 703 q -22 684 5 684 l -22 749 q -2 795 -22 776 q 43 814 17 814 l 76 814 q 122 795 103 814 q 141 749 141 776 l 174 749 l 174 781 q 193 804 174 795 q 239 814 212 814 l 239 749 q 220 703 239 722 q 174 684 201 684 l 141 684 q 95 703 114 684 q 76 749 76 722 l 43 749 l 43 716 z "},"Ũ":{"ha":477,"x_min":43,"x_max":434,"o":"m 304 781 l 434 781 l 434 130 q 396 38 434 76 q 304 0 358 0 l 174 0 q 82 38 120 0 q 43 130 43 76 l 43 781 l 174 781 l 174 130 l 304 130 l 304 781 m 174 846 q 155 823 174 833 q 109 814 136 814 l 109 879 q 128 925 109 906 q 174 944 147 944 l 206 944 q 252 925 233 944 q 271 879 271 906 l 304 879 l 304 911 q 323 935 304 925 q 369 944 342 944 l 369 879 q 350 833 369 852 q 304 814 331 814 l 271 814 q 225 833 244 814 q 206 879 206 852 l 174 879 l 174 846 z "},"ũ":{"ha":477,"x_min":43,"x_max":434,"o":"m 304 651 l 434 651 l 434 0 l 347 0 l 304 130 l 304 651 m 304 130 q 278 38 304 76 q 217 0 253 0 l 174 0 q 82 38 120 0 q 43 130 43 76 l 43 651 l 174 651 l 174 130 l 304 130 m 174 716 q 155 693 174 703 q 109 684 136 684 l 109 749 q 128 795 109 776 q 174 814 147 814 l 206 814 q 252 795 233 814 q 271 749 271 776 l 304 749 l 304 781 q 323 804 304 795 q 369 814 342 814 l 369 749 q 350 703 369 722 q 304 684 331 684 l 271 684 q 225 703 244 684 q 206 749 206 722 l 174 749 l 174 716 z "},"Ṽ":{"ha":477,"x_min":43,"x_max":434,"o":"m 174 846 q 155 823 174 833 q 109 814 136 814 l 109 879 q 128 925 109 906 q 174 944 147 944 l 206 944 q 252 925 233 944 q 271 879 271 906 l 304 879 l 304 911 q 323 935 304 925 q 369 944 342 944 l 369 879 q 350 833 369 852 q 304 814 331 814 l 271 814 q 225 833 244 814 q 206 879 206 852 l 174 879 l 174 846 m 172 0 l 43 781 l 176 781 l 239 260 l 302 781 l 434 781 l 306 0 l 172 0 z "},"ṽ":{"ha":477,"x_min":43,"x_max":434,"o":"m 174 716 q 155 693 174 703 q 109 684 136 684 l 109 749 q 128 795 109 776 q 174 814 147 814 l 206 814 q 252 795 233 814 q 271 749 271 776 l 304 749 l 304 781 q 323 804 304 795 q 369 814 342 814 l 369 749 q 350 703 369 722 q 304 684 331 684 l 271 684 q 225 703 244 684 q 206 749 206 722 l 174 749 l 174 716 m 172 0 l 43 651 l 176 651 l 239 260 l 302 651 l 434 651 l 306 0 l 172 0 z "},"Ẽ":{"ha":477,"x_min":43,"x_max":434,"o":"m 434 781 l 434 651 l 174 651 l 174 456 l 391 456 l 391 326 l 174 326 l 174 130 l 434 130 l 434 0 l 43 0 l 43 781 l 434 781 m 174 846 q 155 823 174 833 q 109 814 136 814 l 109 879 q 128 925 109 906 q 174 944 147 944 l 206 944 q 252 925 233 944 q 271 879 271 906 l 304 879 l 304 911 q 323 935 304 925 q 369 944 342 944 l 369 879 q 350 833 369 852 q 304 814 331 814 l 271 814 q 225 833 244 814 q 206 879 206 852 l 174 879 l 174 846 z "},"ẽ":{"ha":477,"x_min":43,"x_max":434,"o":"m 174 391 l 304 391 l 304 521 l 174 521 l 174 391 m 304 130 l 304 195 l 434 195 l 434 130 q 396 38 434 76 q 304 0 358 0 l 174 0 q 82 38 120 0 q 43 130 43 76 l 43 521 q 82 613 43 574 q 174 651 120 651 l 304 651 q 396 613 358 651 q 434 521 434 574 l 434 260 l 174 260 l 174 130 l 304 130 m 174 716 q 155 693 174 703 q 109 684 136 684 l 109 749 q 128 795 109 776 q 174 814 147 814 l 206 814 q 252 795 233 814 q 271 749 271 776 l 304 749 l 304 781 q 323 804 304 795 q 369 814 342 814 l 369 749 q 350 703 369 722 q 304 684 331 684 l 271 684 q 225 703 244 684 q 206 749 206 722 l 174 749 l 174 716 z "},"Ỹ":{"ha":477,"x_min":43,"x_max":434,"o":"m 174 846 q 155 823 174 833 q 109 814 136 814 l 109 879 q 128 925 109 906 q 174 944 147 944 l 206 944 q 252 925 233 944 q 271 879 271 906 l 304 879 l 304 911 q 323 935 304 925 q 369 944 342 944 l 369 879 q 350 833 369 852 q 304 814 331 814 l 271 814 q 225 833 244 814 q 206 879 206 852 l 174 879 l 174 846 m 239 391 l 302 781 l 434 781 l 304 260 l 304 0 l 174 0 l 174 260 l 43 781 l 176 781 l 239 391 z "},"ỹ":{"ha":477,"x_min":43,"x_max":434,"o":"m 174 716 q 155 693 174 703 q 109 684 136 684 l 109 749 q 128 795 109 776 q 174 814 147 814 l 206 814 q 252 795 233 814 q 271 749 271 776 l 304 749 l 304 781 q 323 804 304 795 q 369 814 342 814 l 369 749 q 350 703 369 722 q 304 684 331 684 l 271 684 q 225 703 244 684 q 206 749 206 722 l 174 749 l 174 716 m 43 -130 l 87 0 l 172 0 l 43 651 l 176 651 l 239 260 l 302 651 l 434 651 l 306 0 l 304 0 q 266 -92 304 -54 q 174 -130 228 -130 l 43 -130 z "},"Ő":{"ha":477,"x_min":43,"x_max":446,"o":"m 174 130 l 304 130 l 304 651 l 174 651 l 174 130 m 43 130 l 43 651 q 82 743 43 705 q 174 781 120 781 l 304 781 q 396 743 358 781 q 434 651 434 705 l 434 130 q 396 38 434 76 q 304 0 358 0 l 174 0 q 82 38 120 0 q 43 130 43 76 m 400 960 l 446 913 l 331 798 l 285 844 l 400 960 m 216 960 l 262 913 l 146 798 l 100 844 l 216 960 z "},"ő":{"ha":477,"x_min":43,"x_max":446,"o":"m 174 130 l 304 130 l 304 521 l 174 521 l 174 130 m 43 130 l 43 521 q 82 613 43 574 q 174 651 120 651 l 304 651 q 396 613 358 651 q 434 521 434 574 l 434 130 q 396 38 434 76 q 304 0 358 0 l 174 0 q 82 38 120 0 q 43 130 43 76 m 400 829 l 446 783 l 331 668 l 285 714 l 400 829 m 216 829 l 262 783 l 146 668 l 100 714 l 216 829 z "},"Ű":{"ha":477,"x_min":43,"x_max":446,"o":"m 304 781 l 434 781 l 434 130 q 396 38 434 76 q 304 0 358 0 l 174 0 q 82 38 120 0 q 43 130 43 76 l 43 781 l 174 781 l 174 130 l 304 130 l 304 781 m 400 960 l 446 913 l 331 798 l 285 844 l 400 960 m 216 960 l 262 913 l 146 798 l 100 844 l 216 960 z "},"ű":{"ha":477,"x_min":43,"x_max":446,"o":"m 304 651 l 434 651 l 434 0 l 347 0 l 304 130 l 304 651 m 304 130 q 278 38 304 76 q 217 0 253 0 l 174 0 q 82 38 120 0 q 43 130 43 76 l 43 651 l 174 651 l 174 130 l 304 130 m 400 829 l 446 783 l 331 668 l 285 714 l 400 829 m 216 829 l 262 783 l 146 668 l 100 714 l 216 829 z "},"Ç":{"ha":477,"x_min":43,"x_max":434,"o":"m 304 0 l 304 -65 q 284 -111 304 -92 q 239 -130 265 -130 l 174 -130 q 127 -111 146 -130 q 109 -65 109 -92 l 239 -65 l 239 0 l 174 0 q 82 38 120 0 q 43 130 43 76 l 43 651 q 82 743 43 705 q 174 781 120 781 l 304 781 q 396 743 358 781 q 434 651 434 705 l 434 521 l 304 521 l 304 651 l 174 651 l 174 130 l 304 130 l 304 260 l 434 260 l 434 130 q 396 38 434 76 q 304 0 358 0 z "},"ç":{"ha":477,"x_min":43,"x_max":434,"o":"m 304 0 l 304 -65 q 284 -111 304 -92 q 239 -130 265 -130 l 174 -130 q 127 -111 146 -130 q 109 -65 109 -92 l 239 -65 l 239 0 l 174 0 q 82 38 120 0 q 43 130 43 76 l 43 521 q 82 613 43 574 q 174 651 120 651 l 304 651 q 396 613 358 651 q 434 521 434 574 l 434 434 l 304 434 l 304 521 l 174 521 l 174 130 l 304 130 l 304 217 l 434 217 l 434 130 q 396 38 434 76 q 304 0 358 0 z "},"Ģ":{"ha":477,"x_min":43,"x_max":434,"o":"m 434 651 l 434 564 l 304 564 l 304 651 l 174 651 l 174 130 l 304 130 q 278 38 304 76 q 217 0 253 0 l 174 0 q 82 38 120 0 q 43 130 43 76 l 43 651 q 82 743 43 705 q 174 781 120 781 l 304 781 q 396 743 358 781 q 434 651 434 705 m 304 326 l 260 326 l 260 456 l 434 456 l 434 0 l 347 0 l 304 130 l 304 326 m 159 -178 l 113 -132 l 182 -63 l 274 -63 l 159 -178 z "},"ģ":{"ha":477,"x_min":43,"x_max":434,"o":"m 301 829 l 347 783 l 278 714 l 186 714 l 301 829 m 217 651 q 278 613 253 651 q 304 521 304 575 l 174 521 l 174 174 l 304 174 q 278 82 304 120 q 217 43 253 43 l 174 43 q 81 82 119 43 q 43 174 43 120 l 43 521 q 82 613 43 575 q 174 651 120 651 l 217 651 m 304 521 l 347 651 l 434 651 l 434 0 q 396 -92 434 -54 q 304 -130 358 -130 l 87 -130 l 174 0 l 304 0 l 304 521 z "},"Ķ":{"ha":477,"x_min":43,"x_max":434,"o":"m 159 -178 l 113 -132 l 182 -63 l 274 -63 l 159 -178 m 174 260 l 174 0 l 43 0 l 43 781 l 174 781 l 174 391 l 294 781 l 434 781 l 281 302 l 434 0 l 281 0 l 174 260 z "},"ķ":{"ha":477,"x_min":43,"x_max":434,"o":"m 159 -178 l 113 -132 l 182 -63 l 274 -63 l 159 -178 m 43 781 l 174 781 l 174 338 l 294 651 l 434 651 l 281 252 l 434 0 l 281 0 l 174 177 l 174 0 l 43 0 l 43 781 z "},"Ļ":{"ha":412,"x_min":43,"x_max":369,"o":"m 43 781 l 174 781 l 174 130 l 369 130 l 369 0 l 43 0 l 43 781 m 159 -178 l 113 -132 l 182 -63 l 274 -63 l 159 -178 z "},"ļ":{"ha":217,"x_min":12,"x_max":174,"o":"m 43 781 l 174 781 l 174 0 l 130 0 q 69 38 94 0 q 43 130 43 76 l 43 781 m 58 -178 l 12 -132 l 81 -63 l 174 -63 l 58 -178 z "},"Ņ":{"ha":477,"x_min":43,"x_max":434,"o":"m 159 -178 l 113 -132 l 182 -63 l 274 -63 l 159 -178 m 43 781 l 184 781 l 304 391 l 304 781 l 434 781 l 434 0 l 294 0 l 174 391 l 174 0 l 43 0 l 43 781 z "},"ņ":{"ha":477,"x_min":43,"x_max":434,"o":"m 43 651 l 130 651 l 174 521 l 174 0 l 43 0 l 43 651 m 174 521 q 199 613 174 575 q 260 651 224 651 l 304 651 q 396 613 357 651 q 434 521 434 575 l 434 0 l 304 0 l 304 521 l 174 521 m 170 -178 l 123 -132 l 193 -63 l 285 -63 l 170 -178 z "},"Ŗ":{"ha":477,"x_min":43,"x_max":434,"o":"m 304 651 l 174 651 l 174 391 l 304 391 l 304 651 m 434 651 l 434 391 q 396 298 434 336 q 333 263 368 271 l 434 0 l 294 0 l 194 260 l 174 260 l 174 0 l 43 0 l 43 781 l 304 781 q 396 743 357 781 q 434 651 434 705 m 159 -178 l 113 -132 l 182 -63 l 274 -63 l 159 -178 z "},"ŗ":{"ha":477,"x_min":12,"x_max":434,"o":"m 43 651 l 130 651 l 174 521 l 174 0 l 43 0 l 43 651 m 434 521 l 434 434 l 304 434 l 304 521 l 174 521 q 199 613 174 575 q 260 651 224 651 l 304 651 q 396 613 357 651 q 434 521 434 575 m 58 -178 l 12 -132 l 81 -63 l 174 -63 l 58 -178 z "},"Ş":{"ha":477,"x_min":43,"x_max":434,"o":"m 304 0 l 304 -65 q 284 -111 304 -92 q 239 -130 265 -130 l 174 -130 q 127 -111 146 -130 q 109 -65 109 -92 l 239 -65 l 239 0 l 174 0 q 82 38 120 0 q 43 130 43 76 l 44 130 l 44 260 l 174 260 l 174 130 l 304 130 l 304 213 l 43 521 l 43 651 q 82 743 43 705 q 174 781 120 781 l 304 781 q 396 743 358 781 q 434 651 434 705 l 434 521 l 304 521 l 304 651 l 174 651 l 174 568 l 434 260 l 434 130 q 396 38 434 76 q 304 0 358 0 z "},"ş":{"ha":477,"x_min":43,"x_max":434,"o":"m 304 0 l 304 -65 q 284 -111 304 -92 q 239 -130 265 -130 l 174 -130 q 127 -111 146 -130 q 109 -65 109 -92 l 239 -65 l 239 0 l 174 0 q 82 38 120 0 q 43 130 43 76 l 44 130 l 44 217 l 174 217 l 174 130 l 304 130 l 304 148 l 43 456 l 43 521 q 82 613 43 575 q 174 651 120 651 l 304 651 q 396 613 358 651 q 434 521 434 575 l 434 434 l 304 434 l 304 521 l 174 521 l 174 503 l 434 195 l 434 130 q 396 38 434 76 q 304 0 358 0 z "},"Ţ":{"ha":477,"x_min":43,"x_max":434,"o":"m 304 -65 q 284 -111 304 -92 q 239 -130 265 -130 l 174 -130 q 127 -111 146 -130 q 109 -65 109 -92 l 239 -65 l 239 0 l 174 0 l 174 651 l 43 651 l 43 781 l 434 781 l 434 651 l 304 651 l 304 -65 z "},"ţ":{"ha":347,"x_min":43,"x_max":304,"o":"m 304 -65 q 284 -111 304 -92 q 239 -130 265 -130 l 174 -130 q 127 -111 146 -130 q 109 -65 109 -92 l 239 -65 l 239 0 q 147 38 185 0 q 109 130 109 76 l 109 521 l 43 521 l 43 651 l 109 651 l 109 781 l 239 781 l 239 651 l 304 651 l 304 521 l 239 521 l 239 130 l 304 130 l 304 -65 z "},"Ȩ":{"ha":477,"x_min":43,"x_max":434,"o":"m 304 0 l 304 -65 q 284 -111 304 -92 q 239 -130 265 -130 l 174 -130 q 127 -111 146 -130 q 109 -65 109 -92 l 239 -65 l 239 0 l 43 0 l 43 781 l 434 781 l 434 651 l 174 651 l 174 456 l 391 456 l 391 326 l 174 326 l 174 130 l 434 130 l 434 0 l 304 0 z "},"ȩ":{"ha":477,"x_min":43,"x_max":434,"o":"m 304 391 l 304 521 l 174 521 l 174 391 l 304 391 m 304 0 l 304 -65 q 284 -111 304 -92 q 239 -130 265 -130 l 174 -130 q 127 -111 146 -130 q 109 -65 109 -92 l 239 -65 l 239 0 l 174 0 q 82 38 120 0 q 43 130 43 76 l 43 521 q 82 613 43 574 q 174 651 120 651 l 304 651 q 396 613 358 651 q 434 521 434 574 l 434 260 l 174 260 l 174 130 l 304 130 l 304 195 l 434 195 l 434 130 q 396 38 434 76 q 304 0 358 0 z "},"Ḑ":{"ha":477,"x_min":43,"x_max":434,"o":"m 304 651 l 174 651 l 174 130 l 304 130 l 304 651 m 434 130 q 396 38 434 76 q 304 0 357 0 l 43 0 l 43 781 l 304 781 q 396 743 357 781 q 434 651 434 705 l 434 130 m 159 -178 l 113 -132 l 182 -63 l 274 -63 l 159 -178 z "},"ḑ":{"ha":477,"x_min":43,"x_max":434,"o":"m 304 130 q 278 38 304 76 q 217 0 253 0 l 174 0 q 82 38 120 0 q 43 130 43 76 l 43 521 q 82 613 43 574 q 174 651 120 651 l 217 651 q 278 613 253 651 q 304 521 304 574 l 174 521 l 174 130 l 304 130 m 304 781 l 434 781 l 434 0 l 347 0 l 304 130 l 304 781 m 159 -178 l 113 -132 l 182 -63 l 274 -63 l 159 -178 z "},"Ḩ":{"ha":477,"x_min":0,"x_max":434,"o":"m 174 -65 q 154 -111 174 -92 q 109 -130 135 -130 l 65 -130 q 19 -111 38 -130 q 0 -65 0 -92 l 109 -65 l 109 0 l 43 0 l 43 781 l 174 781 l 174 456 l 304 456 l 304 781 l 434 781 l 434 0 l 304 0 l 304 326 l 174 326 l 174 -65 z "},"ḩ":{"ha":477,"x_min":0,"x_max":434,"o":"m 174 -65 q 154 -111 174 -92 q 109 -130 135 -130 l 65 -130 q 19 -111 38 -130 q 0 -65 0 -92 l 109 -65 l 109 0 l 43 0 l 43 781 l 174 781 l 174 -65 m 434 0 l 304 0 l 304 521 l 174 521 q 199 613 174 575 q 260 651 224 651 l 304 651 q 396 613 357 651 q 434 521 434 575 l 434 0 z "},"Ą":{"ha":477,"x_min":43,"x_max":434,"o":"m 275 260 l 239 651 l 202 260 l 275 260 m 297 64 l 290 130 l 188 130 l 174 0 l 43 0 l 129 781 l 349 781 l 434 0 l 304 0 l 304 -65 l 369 -65 l 369 -43 l 434 -43 l 434 -65 q 415 -111 434 -92 q 369 -130 396 -130 l 304 -130 q 258 -111 277 -130 q 239 -65 239 -92 l 239 0 q 258 46 239 27 q 297 64 275 62 z "},"ą":{"ha":477,"x_min":43,"x_max":434,"o":"m 239 4 q 217 0 229 0 l 174 0 q 82 38 120 0 q 43 130 43 76 l 43 326 q 69 418 43 380 q 130 456 94 456 l 174 456 q 266 418 228 456 q 304 326 304 380 l 174 326 l 174 130 l 304 130 l 304 -65 l 369 -65 l 369 -43 l 434 -43 l 434 -65 q 415 -111 434 -92 q 369 -130 396 -130 l 304 -130 q 258 -111 277 -130 q 239 -65 239 -92 l 239 4 m 434 0 l 347 0 l 304 130 l 304 521 l 87 521 q 125 613 87 575 q 217 651 163 651 l 304 651 q 396 613 358 651 q 434 521 434 574 l 434 0 z "},"Ę":{"ha":477,"x_min":43,"x_max":434,"o":"m 304 0 l 304 -65 l 369 -65 l 369 -43 l 434 -43 l 434 -65 q 415 -111 434 -92 q 369 -130 396 -130 l 304 -130 q 258 -111 277 -130 q 239 -65 239 -92 l 239 0 l 43 0 l 43 781 l 434 781 l 434 651 l 174 651 l 174 456 l 391 456 l 391 326 l 174 326 l 174 130 l 434 130 l 434 0 l 304 0 z "},"ę":{"ha":477,"x_min":43,"x_max":434,"o":"m 304 391 l 304 521 l 174 521 l 174 391 l 304 391 m 304 0 l 304 -65 l 369 -65 l 369 -43 l 434 -43 l 434 -65 q 415 -111 434 -92 q 369 -130 396 -130 l 304 -130 q 258 -111 277 -130 q 239 -65 239 -92 l 239 0 l 174 0 q 82 38 120 0 q 43 130 43 76 l 43 521 q 82 613 43 574 q 174 651 120 651 l 304 651 q 396 613 358 651 q 434 521 434 574 l 434 260 l 174 260 l 174 130 l 304 130 l 304 195 l 434 195 l 434 130 q 396 38 434 76 q 326 1 366 8 l 326 0 l 304 0 z "},"Į":{"ha":217,"x_min":-22,"x_max":174,"o":"m 43 0 l 43 -65 l 109 -65 l 109 -43 l 174 -43 l 174 -65 q 155 -111 174 -92 q 109 -130 136 -130 l 43 -130 q -2 -111 17 -130 q -22 -65 -22 -92 l -22 0 q -2 46 -22 27 q 43 65 17 65 l 43 781 l 174 781 l 174 0 l 43 0 z "},"į":{"ha":217,"x_min":-22,"x_max":174,"o":"m 174 716 l 43 716 l 43 781 l 174 781 l 174 716 m 43 0 l 43 -65 l 109 -65 l 109 -43 l 174 -43 l 174 -65 q 155 -111 174 -92 q 109 -130 136 -130 l 43 -130 q -2 -111 17 -130 q -22 -65 -22 -92 l -22 0 q -2 46 -22 27 q 43 65 17 65 l 43 651 l 174 651 l 174 0 l 43 0 z "},"Ų":{"ha":477,"x_min":43,"x_max":434,"o":"m 239 0 l 239 -65 l 304 -65 l 304 -43 l 369 -43 l 369 -65 q 350 -111 369 -92 q 304 -130 331 -130 l 239 -130 q 193 -111 212 -130 q 174 -65 174 -92 l 174 0 q 82 38 120 0 q 43 130 43 76 l 43 781 l 174 781 l 174 130 l 304 130 l 304 781 l 434 781 l 434 130 q 396 38 434 76 q 304 0 358 0 l 239 0 z "},"ų":{"ha":477,"x_min":43,"x_max":434,"o":"m 304 130 l 304 -65 l 369 -65 l 369 -43 l 434 -43 l 434 -65 q 415 -111 434 -92 q 369 -130 396 -130 l 304 -130 q 258 -111 277 -130 q 239 -65 239 -92 l 239 4 q 217 0 229 0 l 174 0 q 82 38 120 0 q 43 130 43 76 l 43 651 l 174 651 l 174 130 l 304 130 m 434 0 l 347 0 l 304 130 l 304 651 l 434 651 l 434 0 z "},"Ǫ":{"ha":477,"x_min":43,"x_max":434,"o":"m 304 130 l 304 651 l 174 651 l 174 130 l 304 130 m 239 0 l 239 -65 l 304 -65 l 304 -43 l 369 -43 l 369 -65 q 350 -111 369 -92 q 304 -130 331 -130 l 239 -130 q 193 -111 212 -130 q 174 -65 174 -92 l 174 0 q 82 38 120 0 q 43 130 43 76 l 43 651 q 82 743 43 705 q 174 781 120 781 l 304 781 q 396 743 358 781 q 434 651 434 705 l 434 130 q 396 38 434 76 q 304 0 358 0 l 239 0 z "},"ǫ":{"ha":477,"x_min":43,"x_max":434,"o":"m 304 130 l 304 521 l 174 521 l 174 130 l 304 130 m 239 0 l 239 -65 l 304 -65 l 304 -43 l 369 -43 l 369 -65 q 350 -111 369 -92 q 304 -130 331 -130 l 239 -130 q 193 -111 212 -130 q 174 -65 174 -92 l 174 0 q 82 38 120 0 q 43 130 43 76 l 43 521 q 82 613 43 574 q 174 651 120 651 l 304 651 q 396 613 358 651 q 434 521 434 574 l 434 130 q 396 38 434 76 q 304 0 358 0 l 239 0 z "},"À":{"ha":477,"x_min":43,"x_max":434,"o":"m 239 798 l 123 913 l 170 960 l 285 844 l 239 798 m 275 260 l 239 651 l 202 260 l 275 260 m 434 0 l 304 0 l 290 130 l 188 130 l 174 0 l 43 0 l 129 781 l 349 781 l 434 0 z "},"à":{"ha":477,"x_min":43,"x_max":434,"o":"m 304 130 q 278 38 304 76 q 217 0 253 0 l 174 0 q 82 38 120 0 q 43 130 43 76 l 43 326 q 69 418 43 380 q 130 456 94 456 l 174 456 q 266 418 228 456 q 304 326 304 380 l 174 326 l 174 130 l 304 130 m 87 521 q 125 613 87 575 q 217 651 163 651 l 304 651 q 396 613 358 651 q 434 521 434 574 l 434 0 l 347 0 l 304 130 l 304 521 l 87 521 m 285 714 l 239 668 l 123 783 l 170 829 l 285 714 z "},"È":{"ha":477,"x_min":43,"x_max":434,"o":"m 434 781 l 434 651 l 174 651 l 174 456 l 391 456 l 391 326 l 174 326 l 174 130 l 434 130 l 434 0 l 43 0 l 43 781 l 434 781 m 285 844 l 239 798 l 123 913 l 170 960 l 285 844 z "},"è":{"ha":477,"x_min":43,"x_max":434,"o":"m 174 391 l 304 391 l 304 521 l 174 521 l 174 391 m 304 130 l 304 195 l 434 195 l 434 130 q 396 38 434 76 q 304 0 358 0 l 174 0 q 82 38 120 0 q 43 130 43 76 l 43 521 q 82 613 43 574 q 174 651 120 651 l 304 651 q 396 613 358 651 q 434 521 434 574 l 434 260 l 174 260 l 174 130 l 304 130 m 285 714 l 239 668 l 123 783 l 170 829 l 285 714 z "},"Ì":{"ha":217,"x_min":-7,"x_max":174,"o":"m 174 0 l 43 0 l 43 781 l 174 781 l 174 0 m 155 844 l 109 798 l -7 913 l 39 960 l 155 844 z "},"ì":{"ha":217,"x_min":-7,"x_max":174,"o":"m 174 0 l 43 0 l 43 651 l 174 651 l 174 0 m 155 714 l 109 668 l -7 783 l 39 829 l 155 714 z "},"Ò":{"ha":477,"x_min":43,"x_max":434,"o":"m 174 130 l 304 130 l 304 651 l 174 651 l 174 130 m 43 130 l 43 651 q 82 743 43 705 q 174 781 120 781 l 304 781 q 396 743 358 781 q 434 651 434 705 l 434 130 q 396 38 434 76 q 304 0 358 0 l 174 0 q 82 38 120 0 q 43 130 43 76 m 285 844 l 239 798 l 123 913 l 170 960 l 285 844 z "},"ò":{"ha":477,"x_min":43,"x_max":434,"o":"m 174 130 l 304 130 l 304 521 l 174 521 l 174 130 m 43 130 l 43 521 q 82 613 43 574 q 174 651 120 651 l 304 651 q 396 613 358 651 q 434 521 434 574 l 434 130 q 396 38 434 76 q 304 0 358 0 l 174 0 q 82 38 120 0 q 43 130 43 76 m 285 714 l 239 668 l 123 783 l 170 829 l 285 714 z "},"Ù":{"ha":477,"x_min":43,"x_max":434,"o":"m 304 781 l 434 781 l 434 130 q 396 38 434 76 q 304 0 358 0 l 174 0 q 82 38 120 0 q 43 130 43 76 l 43 781 l 174 781 l 174 130 l 304 130 l 304 781 m 285 844 l 239 798 l 123 913 l 170 960 l 285 844 z "},"ù":{"ha":477,"x_min":43,"x_max":434,"o":"m 304 651 l 434 651 l 434 0 l 347 0 l 304 130 l 304 651 m 304 130 q 278 38 304 76 q 217 0 253 0 l 174 0 q 82 38 120 0 q 43 130 43 76 l 43 651 l 174 651 l 174 130 l 304 130 m 285 714 l 239 668 l 123 783 l 170 829 l 285 714 z "},"Ǹ":{"ha":477,"x_min":43,"x_max":434,"o":"m 285 844 l 239 798 l 123 913 l 170 960 l 285 844 m 43 781 l 184 781 l 304 391 l 304 781 l 434 781 l 434 0 l 294 0 l 174 391 l 174 0 l 43 0 l 43 781 z "},"ǹ":{"ha":477,"x_min":43,"x_max":434,"o":"m 43 651 l 130 651 l 174 521 l 174 0 l 43 0 l 43 651 m 174 521 q 199 613 174 575 q 260 651 224 651 l 304 651 q 396 613 357 651 q 434 521 434 575 l 434 0 l 304 0 l 304 521 l 174 521 m 285 714 l 239 668 l 123 783 l 170 829 l 285 714 z "},"Ẁ":{"ha":738,"x_min":43,"x_max":694,"o":"m 415 844 l 369 798 l 254 913 l 300 960 l 415 844 m 566 0 l 432 0 l 369 391 l 306 0 l 172 0 l 43 781 l 176 781 l 239 260 l 302 781 l 436 781 l 499 260 l 562 781 l 694 781 l 566 0 z "},"ẁ":{"ha":738,"x_min":43,"x_max":694,"o":"m 415 714 l 369 668 l 254 783 l 300 829 l 415 714 m 172 0 l 43 651 l 176 651 l 239 260 l 302 651 l 436 651 l 499 260 l 562 651 l 694 651 l 566 0 l 432 0 l 369 391 l 306 0 l 172 0 z "},"Ỳ":{"ha":477,"x_min":43,"x_max":434,"o":"m 285 844 l 239 798 l 123 913 l 170 960 l 285 844 m 239 391 l 302 781 l 434 781 l 304 260 l 304 0 l 174 0 l 174 260 l 43 781 l 176 781 l 239 391 z "},"ỳ":{"ha":477,"x_min":43,"x_max":434,"o":"m 285 714 l 239 668 l 123 783 l 170 829 l 285 714 m 43 -130 l 87 0 l 172 0 l 43 651 l 176 651 l 239 260 l 302 651 l 434 651 l 306 0 l 304 0 q 266 -92 304 -54 q 174 -130 228 -130 l 43 -130 z "},"Á":{"ha":477,"x_min":43,"x_max":434,"o":"m 308 960 l 354 913 l 239 798 l 193 844 l 308 960 m 275 260 l 239 651 l 202 260 l 275 260 m 434 0 l 304 0 l 290 130 l 188 130 l 174 0 l 43 0 l 129 781 l 349 781 l 434 0 z "},"á":{"ha":477,"x_min":43,"x_max":434,"o":"m 304 130 q 278 38 304 76 q 217 0 253 0 l 174 0 q 82 38 120 0 q 43 130 43 76 l 43 326 q 69 418 43 380 q 130 456 94 456 l 174 456 q 266 418 228 456 q 304 326 304 380 l 174 326 l 174 130 l 304 130 m 87 521 q 125 613 87 575 q 217 651 163 651 l 304 651 q 396 613 358 651 q 434 521 434 574 l 434 0 l 347 0 l 304 130 l 304 521 l 87 521 m 308 829 l 354 783 l 239 668 l 193 714 l 308 829 z "},"É":{"ha":477,"x_min":43,"x_max":434,"o":"m 434 781 l 434 651 l 174 651 l 174 456 l 391 456 l 391 326 l 174 326 l 174 130 l 434 130 l 434 0 l 43 0 l 43 781 l 434 781 m 308 960 l 354 913 l 239 798 l 193 844 l 308 960 z "},"é":{"ha":477,"x_min":43,"x_max":434,"o":"m 174 391 l 304 391 l 304 521 l 174 521 l 174 391 m 304 130 l 304 195 l 434 195 l 434 130 q 396 38 434 76 q 304 0 358 0 l 174 0 q 82 38 120 0 q 43 130 43 76 l 43 521 q 82 613 43 574 q 174 651 120 651 l 304 651 q 396 613 358 651 q 434 521 434 574 l 434 260 l 174 260 l 174 130 l 304 130 m 308 829 l 354 783 l 239 668 l 193 714 l 308 829 z "},"Í":{"ha":217,"x_min":43,"x_max":224,"o":"m 174 0 l 43 0 l 43 781 l 174 781 l 174 0 m 178 960 l 224 913 l 109 798 l 62 844 l 178 960 z "},"í":{"ha":217,"x_min":43,"x_max":224,"o":"m 174 0 l 43 0 l 43 651 l 174 651 l 174 0 m 178 829 l 224 783 l 109 668 l 62 714 l 178 829 z "},"Ó":{"ha":477,"x_min":43,"x_max":434,"o":"m 174 130 l 304 130 l 304 651 l 174 651 l 174 130 m 43 130 l 43 651 q 82 743 43 705 q 174 781 120 781 l 304 781 q 396 743 358 781 q 434 651 434 705 l 434 130 q 396 38 434 76 q 304 0 358 0 l 174 0 q 82 38 120 0 q 43 130 43 76 m 308 960 l 354 913 l 239 798 l 193 844 l 308 960 z "},"ó":{"ha":477,"x_min":43,"x_max":434,"o":"m 174 130 l 304 130 l 304 521 l 174 521 l 174 130 m 43 130 l 43 521 q 82 613 43 574 q 174 651 120 651 l 304 651 q 396 613 358 651 q 434 521 434 574 l 434 130 q 396 38 434 76 q 304 0 358 0 l 174 0 q 82 38 120 0 q 43 130 43 76 m 308 829 l 354 783 l 239 668 l 193 714 l 308 829 z "},"Ú":{"ha":477,"x_min":43,"x_max":434,"o":"m 304 781 l 434 781 l 434 130 q 396 38 434 76 q 304 0 358 0 l 174 0 q 82 38 120 0 q 43 130 43 76 l 43 781 l 174 781 l 174 130 l 304 130 l 304 781 m 308 960 l 354 913 l 239 798 l 193 844 l 308 960 z "},"ú":{"ha":477,"x_min":43,"x_max":434,"o":"m 304 651 l 434 651 l 434 0 l 347 0 l 304 130 l 304 651 m 304 130 q 278 38 304 76 q 217 0 253 0 l 174 0 q 82 38 120 0 q 43 130 43 76 l 43 651 l 174 651 l 174 130 l 304 130 m 308 829 l 354 783 l 239 668 l 193 714 l 308 829 z "},"Ý":{"ha":477,"x_min":43,"x_max":434,"o":"m 308 960 l 354 913 l 239 798 l 193 844 l 308 960 m 239 391 l 302 781 l 434 781 l 304 260 l 304 0 l 174 0 l 174 260 l 43 781 l 176 781 l 239 391 z "},"ý":{"ha":477,"x_min":43,"x_max":434,"o":"m 308 829 l 354 783 l 239 668 l 193 714 l 308 829 m 43 -130 l 87 0 l 172 0 l 43 651 l 176 651 l 239 260 l 302 651 l 434 651 l 306 0 l 304 0 q 266 -92 304 -54 q 174 -130 228 -130 l 43 -130 z "},"Ć":{"ha":477,"x_min":43,"x_max":434,"o":"m 304 130 l 304 260 l 434 260 l 434 130 q 396 38 434 76 q 304 0 358 0 l 174 0 q 82 38 120 0 q 43 130 43 76 l 43 651 q 82 743 43 705 q 174 781 120 781 l 304 781 q 396 743 358 781 q 434 651 434 705 l 434 521 l 304 521 l 304 651 l 174 651 l 174 130 l 304 130 m 308 960 l 354 913 l 239 798 l 193 844 l 308 960 z "},"ć":{"ha":477,"x_min":43,"x_max":434,"o":"m 304 130 l 304 217 l 434 217 l 434 130 q 396 38 434 76 q 304 0 358 0 l 174 0 q 82 38 120 0 q 43 130 43 76 l 43 521 q 82 613 43 574 q 174 651 120 651 l 304 651 q 396 613 358 651 q 434 521 434 574 l 434 434 l 304 434 l 304 521 l 174 521 l 174 130 l 304 130 m 308 829 l 354 783 l 239 668 l 193 714 l 308 829 z "},"Ĺ":{"ha":412,"x_min":43,"x_max":369,"o":"m 43 781 l 174 781 l 174 130 l 369 130 l 369 0 l 43 0 l 43 781 m 178 960 l 224 913 l 109 798 l 62 844 l 178 960 z "},"ĺ":{"ha":217,"x_min":43,"x_max":224,"o":"m 43 781 l 174 781 l 174 0 l 130 0 q 69 38 94 0 q 43 130 43 76 l 43 781 m 178 960 l 224 913 l 109 798 l 62 844 l 178 960 z "},"Ń":{"ha":477,"x_min":43,"x_max":434,"o":"m 308 960 l 354 913 l 239 798 l 193 844 l 308 960 m 43 781 l 184 781 l 304 391 l 304 781 l 434 781 l 434 0 l 294 0 l 174 391 l 174 0 l 43 0 l 43 781 z "},"ń":{"ha":477,"x_min":43,"x_max":434,"o":"m 43 651 l 130 651 l 174 521 l 174 0 l 43 0 l 43 651 m 174 521 q 199 613 174 575 q 260 651 224 651 l 304 651 q 396 613 357 651 q 434 521 434 575 l 434 0 l 304 0 l 304 521 l 174 521 m 308 829 l 354 783 l 239 668 l 193 714 l 308 829 z "},"Ŕ":{"ha":477,"x_min":43,"x_max":434,"o":"m 304 651 l 174 651 l 174 391 l 304 391 l 304 651 m 434 651 l 434 391 q 396 298 434 336 q 333 263 368 271 l 434 0 l 294 0 l 194 260 l 174 260 l 174 0 l 43 0 l 43 781 l 304 781 q 396 743 357 781 q 434 651 434 705 m 308 960 l 354 913 l 239 798 l 193 844 l 308 960 z "},"ŕ":{"ha":477,"x_min":43,"x_max":434,"o":"m 43 651 l 130 651 l 174 521 l 174 0 l 43 0 l 43 651 m 434 521 l 434 434 l 304 434 l 304 521 l 174 521 q 199 613 174 575 q 260 651 224 651 l 304 651 q 396 613 357 651 q 434 521 434 575 m 308 829 l 354 783 l 239 668 l 193 714 l 308 829 z "},"Ś":{"ha":477,"x_min":43,"x_max":434,"o":"m 174 0 q 82 38 120 0 q 43 130 43 76 l 44 130 l 44 260 l 174 260 l 174 130 l 304 130 l 304 213 l 43 521 l 43 651 q 82 743 43 705 q 174 781 120 781 l 304 781 q 396 743 358 781 q 434 651 434 705 l 434 521 l 304 521 l 304 651 l 174 651 l 174 568 l 434 260 l 434 130 q 396 38 434 76 q 304 0 358 0 l 174 0 m 308 960 l 354 913 l 239 798 l 193 844 l 308 960 z "},"ś":{"ha":477,"x_min":43,"x_max":434,"o":"m 174 0 q 82 38 120 0 q 43 130 43 76 l 44 130 l 44 217 l 174 217 l 174 130 l 304 130 l 304 148 l 43 456 l 43 521 q 82 613 43 575 q 174 651 120 651 l 304 651 q 396 613 358 651 q 434 521 434 575 l 434 434 l 304 434 l 304 521 l 174 521 l 174 503 l 434 195 l 434 130 q 396 38 434 76 q 304 0 358 0 l 174 0 m 308 829 l 354 783 l 239 668 l 193 714 l 308 829 z "},"Ź":{"ha":477,"x_min":43,"x_max":434,"o":"m 43 0 l 43 130 l 281 651 l 43 651 l 43 781 l 434 781 l 434 651 l 196 130 l 434 130 l 434 0 l 43 0 m 308 960 l 354 913 l 239 798 l 193 844 l 308 960 z "},"ź":{"ha":477,"x_min":43,"x_max":434,"o":"m 43 0 l 43 130 l 281 521 l 43 521 l 43 651 l 434 651 l 434 521 l 196 130 l 434 130 l 434 0 l 43 0 m 308 829 l 354 783 l 239 668 l 193 714 l 308 829 z "},"Ǵ":{"ha":477,"x_min":43,"x_max":434,"o":"m 434 651 l 434 564 l 304 564 l 304 651 l 174 651 l 174 130 l 304 130 q 278 38 304 76 q 217 0 253 0 l 174 0 q 82 38 120 0 q 43 130 43 76 l 43 651 q 82 743 43 705 q 174 781 120 781 l 304 781 q 396 743 358 781 q 434 651 434 705 m 304 326 l 260 326 l 260 456 l 434 456 l 434 0 l 347 0 l 304 130 l 304 326 m 308 960 l 354 913 l 239 798 l 193 844 l 308 960 z "},"ǵ":{"ha":477,"x_min":43,"x_max":434,"o":"m 217 651 q 278 613 253 651 q 304 521 304 575 l 174 521 l 174 174 l 304 174 q 278 82 304 120 q 217 43 253 43 l 174 43 q 81 82 119 43 q 43 174 43 120 l 43 521 q 82 613 43 575 q 174 651 120 651 l 217 651 m 304 521 l 347 651 l 434 651 l 434 0 q 396 -92 434 -54 q 304 -130 358 -130 l 87 -130 l 174 0 l 304 0 l 304 521 m 308 829 l 354 783 l 239 668 l 193 714 l 308 829 z "},"Ǽ":{"ha":738,"x_min":43,"x_max":694,"o":"m 434 456 l 651 456 l 651 326 l 434 326 l 434 130 l 694 130 l 694 0 l 304 0 l 304 130 l 188 130 l 174 0 l 43 0 l 129 781 l 694 781 l 694 651 l 434 651 l 434 456 m 304 651 l 245 651 l 202 260 l 304 260 l 304 651 m 438 960 l 484 914 l 369 799 l 323 845 l 438 960 z "},"ǽ":{"ha":738,"x_min":43,"x_max":694,"o":"m 438 830 l 484 784 l 369 669 l 323 715 l 438 830 m 304 130 q 278 38 304 76 q 217 0 253 0 l 174 0 q 82 38 120 0 q 43 130 43 76 l 43 326 q 69 418 43 380 q 130 456 94 456 l 174 456 q 266 418 228 456 q 304 326 304 380 l 174 326 l 174 130 l 304 130 m 304 521 l 87 521 q 125 613 87 575 q 217 651 163 651 l 304 651 q 369 634 340 651 q 434 651 398 651 l 564 651 q 656 613 618 651 q 694 521 694 574 l 694 260 l 434 260 l 434 130 l 564 130 l 564 195 l 694 195 l 694 130 q 656 38 694 76 q 564 0 618 0 l 347 0 l 304 130 l 304 521 m 434 521 l 434 391 l 564 391 l 564 521 l 434 521 z "},"Ḱ":{"ha":477,"x_min":43,"x_max":434,"o":"m 308 960 l 354 913 l 239 798 l 193 844 l 308 960 m 174 260 l 174 0 l 43 0 l 43 781 l 174 781 l 174 391 l 294 781 l 434 781 l 281 302 l 434 0 l 281 0 l 174 260 z "},"ḱ":{"ha":477,"x_min":43,"x_max":434,"o":"m 178 960 l 224 913 l 109 798 l 62 844 l 178 960 m 43 781 l 174 781 l 174 338 l 294 651 l 434 651 l 281 252 l 434 0 l 281 0 l 174 177 l 174 0 l 43 0 l 43 781 z "},"Ḿ":{"ha":738,"x_min":43,"x_max":694,"o":"m 438 960 l 484 913 l 369 798 l 323 844 l 438 960 m 174 391 l 174 0 l 43 0 l 43 781 l 184 781 l 369 195 l 554 781 l 694 781 l 694 0 l 564 0 l 564 391 l 444 0 l 294 0 l 174 391 z "},"ḿ":{"ha":608,"x_min":43,"x_max":564,"o":"m 564 521 l 564 0 l 434 0 l 434 521 l 369 521 q 388 613 369 575 q 434 651 407 651 q 526 613 488 651 q 564 521 564 575 m 369 0 l 239 0 l 239 521 l 174 521 q 193 613 174 575 q 239 651 212 651 q 331 613 293 651 q 369 521 369 575 l 369 0 m 43 651 l 130 651 l 174 521 l 174 0 l 43 0 l 43 651 m 373 829 l 419 783 l 304 668 l 258 714 l 373 829 z "},"Ṕ":{"ha":477,"x_min":43,"x_max":434,"o":"m 304 651 l 174 651 l 174 391 l 304 391 l 304 651 m 434 651 l 434 391 q 396 298 434 336 q 304 260 357 260 l 174 260 l 174 0 l 43 0 l 43 781 l 304 781 q 396 743 357 781 q 434 651 434 705 m 308 960 l 354 913 l 239 798 l 193 844 l 308 960 z "},"ṕ":{"ha":477,"x_min":43,"x_max":434,"o":"m 174 521 q 199 613 174 575 q 260 651 224 651 l 304 651 q 396 613 357 651 q 434 521 434 575 l 434 130 q 396 38 434 76 q 304 0 357 0 l 260 0 q 199 38 224 0 q 174 130 174 76 l 304 130 l 304 521 l 174 521 m 174 -130 l 43 -130 l 43 651 l 130 651 l 174 521 l 174 -130 m 308 829 l 354 783 l 239 668 l 193 714 l 308 829 z "},"Ẃ":{"ha":738,"x_min":43,"x_max":694,"o":"m 438 960 l 484 913 l 369 798 l 323 844 l 438 960 m 566 0 l 432 0 l 369 391 l 306 0 l 172 0 l 43 781 l 176 781 l 239 260 l 302 781 l 436 781 l 499 260 l 562 781 l 694 781 l 566 0 z "},"ẃ":{"ha":738,"x_min":43,"x_max":694,"o":"m 438 829 l 484 783 l 369 668 l 323 714 l 438 829 m 172 0 l 43 651 l 176 651 l 239 260 l 302 651 l 436 651 l 499 260 l 562 651 l 694 651 l 566 0 l 432 0 l 369 391 l 306 0 l 172 0 z "},"Ø":{"ha":477,"x_min":0,"x_max":477,"o":"m 174 231 l 174 130 l 304 130 l 304 404 l 174 231 m 174 377 l 304 551 l 304 651 l 174 651 l 174 377 m 56 74 l 0 0 l 0 146 l 43 204 l 43 651 q 82 743 43 705 q 174 781 120 781 l 304 781 q 396 743 358 781 q 422 707 412 726 l 477 781 l 477 635 l 434 577 l 434 130 q 396 38 434 76 q 304 0 358 0 l 174 0 q 82 38 120 0 q 56 74 65 54 z "},"ø":{"ha":477,"x_min":0,"x_max":477,"o":"m 174 189 l 174 130 l 304 130 l 304 332 l 174 189 m 174 319 l 304 462 l 304 521 l 174 521 l 174 319 m 60 66 l 0 0 l 0 130 l 43 178 l 43 521 q 82 613 43 574 q 174 651 120 651 l 304 651 q 396 613 358 651 q 417 585 409 600 l 477 651 l 477 521 l 434 473 l 434 130 q 396 38 434 76 q 304 0 358 0 l 174 0 q 82 38 120 0 q 60 66 68 51 z "},"Ł":{"ha":412,"x_min":-22,"x_max":369,"o":"m 43 255 l -22 184 l -22 314 l 43 385 l 43 781 l 174 781 l 174 527 l 239 597 l 239 467 l 174 397 l 174 130 l 369 130 l 369 0 l 43 0 l 43 255 z "},"ł":{"ha":217,"x_min":-22,"x_max":239,"o":"m 43 255 l -22 184 l -22 314 l 43 385 l 43 781 l 174 781 l 174 527 l 239 597 l 239 467 l 174 397 l 174 0 l 130 0 q 69 38 94 0 q 43 130 43 76 l 43 255 z "},"Ɖ":{"ha":477,"x_min":0,"x_max":434,"o":"m 174 434 l 239 434 l 239 347 l 174 347 l 174 130 l 304 130 l 304 651 l 174 651 l 174 434 m 43 347 l 0 347 l 0 434 l 43 434 l 43 781 l 304 781 q 396 743 357 781 q 434 651 434 705 l 434 130 q 396 38 434 76 q 304 0 357 0 l 43 0 l 43 347 z "},"ɖ":{"ha":477,"x_min":43,"x_max":477,"o":"m 304 130 q 278 38 304 76 q 217 0 253 0 l 174 0 q 82 38 120 0 q 43 130 43 76 l 43 521 q 82 613 43 574 q 174 651 120 651 l 217 651 q 278 613 253 651 q 304 521 304 574 l 174 521 l 174 130 l 304 130 m 304 0 l 304 781 l 434 781 l 434 0 l 477 0 l 477 -130 l 434 -130 q 342 -92 380 -130 q 304 0 304 -54 z "},"ĸ":{"ha":477,"x_min":43,"x_max":434,"o":"m 43 651 l 174 651 l 174 338 l 294 651 l 434 651 l 284 260 l 281 252 l 434 0 l 281 0 l 174 177 l 174 0 l 43 0 l 43 651 z "},"ſ":{"ha":347,"x_min":43,"x_max":304,"o":"m 43 651 q 81 743 43 705 q 174 781 119 781 l 304 781 l 260 651 l 174 651 l 174 -130 l 43 -87 l 43 651 z "},"ẛ":{"ha":347,"x_min":43,"x_max":304,"o":"m 260 846 l 174 846 l 174 911 l 260 911 l 260 846 m 174 -130 l 43 -87 l 43 651 q 81 743 43 705 q 174 781 119 781 l 304 781 l 260 651 l 174 651 l 174 -130 z "},"ẜ":{"ha":347,"x_min":-22,"x_max":304,"o":"m 43 255 l -22 184 l -22 314 l 43 385 l 43 651 q 81 743 43 705 q 174 781 119 781 l 304 781 l 260 651 l 174 651 l 174 527 l 239 597 l 239 467 l 174 397 l 174 -130 l 43 -87 l 43 255 z "},"ẝ":{"ha":347,"x_min":0,"x_max":304,"o":"m 174 586 l 260 586 l 260 521 l 174 521 l 174 -130 l 43 -87 l 43 521 l 0 521 l 0 586 l 43 586 l 43 651 q 81 743 43 705 q 174 781 119 781 l 304 781 l 260 651 l 174 651 l 174 586 z "},"А":{"ha":477,"x_min":43,"x_max":434,"o":"m 275 260 l 239 651 l 202 260 l 275 260 m 434 0 l 304 0 l 290 130 l 188 130 l 174 0 l 43 0 l 129 781 l 349 781 l 434 0 z "},"а":{"ha":477,"x_min":43,"x_max":434,"o":"m 304 130 q 278 38 304 76 q 217 0 253 0 l 174 0 q 82 38 120 0 q 43 130 43 76 l 43 326 q 69 418 43 380 q 130 456 94 456 l 174 456 q 266 418 228 456 q 304 326 304 380 l 174 326 l 174 130 l 304 130 m 87 521 q 125 613 87 575 q 217 651 163 651 l 304 651 q 396 613 358 651 q 434 521 434 574 l 434 0 l 347 0 l 304 130 l 304 521 l 87 521 z "},"Б":{"ha":477,"x_min":43,"x_max":434,"o":"m 434 130 q 396 38 434 76 q 304 0 357 0 l 43 0 l 43 781 l 434 781 l 434 651 l 174 651 l 174 521 l 304 521 q 396 483 357 521 q 434 391 434 444 l 434 130 m 304 130 l 304 391 l 174 391 l 174 130 l 304 130 z "},"б":{"ha":477,"x_min":43,"x_max":434,"o":"m 304 716 l 304 781 l 434 781 l 434 716 q 396 624 434 662 q 304 586 358 586 l 174 586 l 174 391 q 199 483 174 444 q 260 521 224 521 l 304 521 q 396 483 357 521 q 434 391 434 444 l 434 130 q 396 38 434 76 q 304 0 357 0 l 174 0 q 81 38 119 0 q 43 130 43 76 l 43 586 q 81 678 43 640 q 174 716 119 716 l 304 716 m 174 391 l 174 130 l 304 130 l 304 391 l 174 391 z "},"В":{"ha":477,"x_min":43,"x_max":434,"o":"m 174 456 l 260 456 l 260 651 l 174 651 l 174 456 m 434 326 l 434 130 q 396 38 434 76 q 304 0 357 0 l 43 0 l 43 781 l 260 781 q 353 743 315 781 q 391 651 391 705 l 391 456 q 353 410 391 429 q 260 391 315 391 l 304 391 q 396 372 358 391 q 434 326 434 353 m 304 130 l 304 326 l 174 326 l 174 130 l 304 130 z "},"в":{"ha":477,"x_min":43,"x_max":434,"o":"m 391 521 l 391 391 q 353 345 391 363 q 260 326 315 326 l 304 326 q 396 307 358 326 q 434 260 434 288 l 434 130 q 396 38 434 76 q 304 0 357 0 l 43 0 l 43 651 l 260 651 q 353 613 315 651 q 391 521 391 575 m 304 260 l 174 260 l 174 130 l 304 130 l 304 260 m 260 391 l 260 521 l 174 521 l 174 391 l 260 391 z "},"Г":{"ha":412,"x_min":43,"x_max":369,"o":"m 43 0 l 43 781 l 369 781 l 369 651 l 174 651 l 174 0 l 43 0 z "},"г":{"ha":412,"x_min":43,"x_max":369,"o":"m 369 651 l 369 521 l 174 521 l 174 0 l 43 0 l 43 651 l 369 651 z "},"Д":{"ha":608,"x_min":43,"x_max":564,"o":"m 174 0 l 174 -130 l 43 -130 l 43 130 l 109 130 l 174 781 l 499 781 l 499 130 l 564 130 l 564 -130 l 434 -130 l 434 0 l 174 0 m 239 130 l 369 130 l 369 651 l 291 651 l 239 130 z "},"д":{"ha":608,"x_min":43,"x_max":564,"o":"m 278 521 l 239 130 l 369 130 l 369 521 l 278 521 m 109 130 l 161 651 l 499 651 l 499 130 l 564 130 l 564 -130 l 434 -130 l 434 0 l 174 0 l 174 -130 l 43 -130 l 43 130 l 109 130 z "},"Е":{"ha":477,"x_min":43,"x_max":434,"o":"m 434 781 l 434 651 l 174 651 l 174 456 l 391 456 l 391 326 l 174 326 l 174 130 l 434 130 l 434 0 l 43 0 l 43 781 l 434 781 z "},"е":{"ha":477,"x_min":43,"x_max":434,"o":"m 174 391 l 304 391 l 304 521 l 174 521 l 174 391 m 304 130 l 304 195 l 434 195 l 434 130 q 396 38 434 76 q 304 0 358 0 l 174 0 q 82 38 120 0 q 43 130 43 76 l 43 521 q 82 613 43 574 q 174 651 120 651 l 304 651 q 396 613 358 651 q 434 521 434 574 l 434 260 l 174 260 l 174 130 l 304 130 z "},"Ж":{"ha":738,"x_min":43,"x_max":694,"o":"m 304 376 l 184 0 l 43 0 l 168 391 l 43 781 l 184 781 l 304 406 l 304 781 l 434 781 l 434 406 l 554 781 l 694 781 l 570 391 l 694 0 l 554 0 l 434 376 l 434 0 l 304 0 l 304 376 z "},"ж":{"ha":738,"x_min":43,"x_max":694,"o":"m 304 313 l 184 0 l 43 0 l 168 326 l 43 651 l 184 651 l 304 338 l 304 651 l 434 651 l 434 338 l 554 651 l 694 651 l 569 326 l 694 0 l 554 0 l 434 313 l 434 0 l 304 0 l 304 313 z "},"З":{"ha":477,"x_min":43,"x_max":434,"o":"m 434 521 q 396 429 434 467 q 304 391 358 391 q 396 353 358 391 q 434 260 434 315 l 434 130 q 396 38 434 76 q 304 0 358 0 l 174 0 q 82 38 120 0 q 43 130 43 76 l 43 217 l 174 217 l 174 130 l 304 130 l 304 326 l 174 326 l 174 456 l 304 456 l 304 651 l 174 651 l 174 564 l 43 564 l 43 651 q 82 743 43 705 q 174 781 120 781 l 304 781 q 396 743 358 781 q 434 651 434 705 l 434 521 z "},"з":{"ha":477,"x_min":43,"x_max":434,"o":"m 434 456 q 396 363 434 401 q 304 326 358 326 q 396 288 358 326 q 434 195 434 250 l 434 130 q 396 38 434 76 q 304 0 358 0 l 174 0 q 82 38 120 0 q 43 130 43 76 l 43 217 l 174 217 l 174 130 l 304 130 l 304 260 l 195 260 l 195 391 l 304 391 l 304 521 l 174 521 l 174 434 l 43 434 l 43 521 q 82 613 43 574 q 174 651 120 651 l 304 651 q 396 613 358 651 q 434 521 434 574 l 434 456 z "},"И":{"ha":477,"x_min":43,"x_max":434,"o":"m 434 781 l 434 0 l 304 0 l 304 391 l 174 0 l 43 0 l 43 781 l 174 781 l 174 391 l 304 781 l 434 781 z "},"и":{"ha":477,"x_min":43,"x_max":434,"o":"m 434 651 l 434 0 l 304 0 l 304 326 l 174 0 l 43 0 l 43 651 l 174 651 l 174 326 l 304 651 l 434 651 z "},"К":{"ha":477,"x_min":43,"x_max":434,"o":"m 174 260 l 174 0 l 43 0 l 43 781 l 174 781 l 174 391 l 294 781 l 434 781 l 281 302 l 434 0 l 281 0 l 174 260 z "},"к":{"ha":477,"x_min":43,"x_max":434,"o":"m 43 651 l 174 651 l 174 338 l 294 651 l 434 651 l 281 252 l 434 0 l 281 0 l 174 177 l 174 0 l 43 0 l 43 651 z "},"Л":{"ha":477,"x_min":43,"x_max":434,"o":"m 434 0 l 304 0 l 304 651 l 284 651 l 176 0 l 43 0 l 172 781 l 434 781 l 434 0 z "},"л":{"ha":477,"x_min":43,"x_max":434,"o":"m 434 0 l 304 0 l 304 521 l 280 521 l 176 0 l 43 0 l 172 651 l 434 651 l 434 0 z "},"М":{"ha":738,"x_min":43,"x_max":694,"o":"m 174 391 l 174 0 l 43 0 l 43 781 l 184 781 l 369 195 l 554 781 l 694 781 l 694 0 l 564 0 l 564 391 l 444 0 l 294 0 l 174 391 z "},"м":{"ha":738,"x_min":43,"x_max":694,"o":"m 174 326 l 174 0 l 43 0 l 43 651 l 184 651 l 369 163 l 554 651 l 694 651 l 694 0 l 564 0 l 564 326 l 444 0 l 294 0 l 174 326 z "},"Н":{"ha":477,"x_min":43,"x_max":434,"o":"m 43 781 l 174 781 l 174 456 l 304 456 l 304 781 l 434 781 l 434 0 l 304 0 l 304 326 l 174 326 l 174 0 l 43 0 l 43 781 z "},"н":{"ha":477,"x_min":43,"x_max":434,"o":"m 174 260 l 174 0 l 43 0 l 43 651 l 174 651 l 174 391 l 304 391 l 304 651 l 434 651 l 434 0 l 304 0 l 304 260 l 174 260 z "},"О":{"ha":477,"x_min":43,"x_max":434,"o":"m 174 130 l 304 130 l 304 651 l 174 651 l 174 130 m 43 130 l 43 651 q 82 743 43 705 q 174 781 120 781 l 304 781 q 396 743 358 781 q 434 651 434 705 l 434 130 q 396 38 434 76 q 304 0 358 0 l 174 0 q 82 38 120 0 q 43 130 43 76 z "},"о":{"ha":477,"x_min":43,"x_max":434,"o":"m 174 130 l 304 130 l 304 521 l 174 521 l 174 130 m 43 130 l 43 521 q 82 613 43 574 q 174 651 120 651 l 304 651 q 396 613 358 651 q 434 521 434 574 l 434 130 q 396 38 434 76 q 304 0 358 0 l 174 0 q 82 38 120 0 q 43 130 43 76 z "},"П":{"ha":477,"x_min":43,"x_max":434,"o":"m 434 0 l 304 0 l 304 651 l 174 651 l 174 0 l 43 0 l 43 781 l 434 781 l 434 0 z "},"п":{"ha":477,"x_min":43,"x_max":434,"o":"m 434 0 l 304 0 l 304 521 l 174 521 l 174 0 l 43 0 l 43 651 l 434 651 l 434 0 z "},"Р":{"ha":477,"x_min":43,"x_max":434,"o":"m 304 651 l 174 651 l 174 391 l 304 391 l 304 651 m 434 651 l 434 391 q 396 298 434 336 q 304 260 357 260 l 174 260 l 174 0 l 43 0 l 43 781 l 304 781 q 396 743 357 781 q 434 651 434 705 z "},"р":{"ha":477,"x_min":43,"x_max":434,"o":"m 174 521 q 199 613 174 575 q 260 651 224 651 l 304 651 q 396 613 357 651 q 434 521 434 575 l 434 130 q 396 38 434 76 q 304 0 357 0 l 260 0 q 199 38 224 0 q 174 130 174 76 l 304 130 l 304 521 l 174 521 m 174 -130 l 43 -130 l 43 651 l 130 651 l 174 521 l 174 -130 z "},"С":{"ha":477,"x_min":43,"x_max":434,"o":"m 304 130 l 304 260 l 434 260 l 434 130 q 396 38 434 76 q 304 0 358 0 l 174 0 q 82 38 120 0 q 43 130 43 76 l 43 651 q 82 743 43 705 q 174 781 120 781 l 304 781 q 396 743 358 781 q 434 651 434 705 l 434 521 l 304 521 l 304 651 l 174 651 l 174 130 l 304 130 z "},"с":{"ha":477,"x_min":43,"x_max":434,"o":"m 304 130 l 304 217 l 434 217 l 434 130 q 396 38 434 76 q 304 0 358 0 l 174 0 q 82 38 120 0 q 43 130 43 76 l 43 521 q 82 613 43 574 q 174 651 120 651 l 304 651 q 396 613 358 651 q 434 521 434 574 l 434 434 l 304 434 l 304 521 l 174 521 l 174 130 l 304 130 z "},"Т":{"ha":477,"x_min":43,"x_max":434,"o":"m 174 651 l 43 651 l 43 781 l 434 781 l 434 651 l 304 651 l 304 0 l 174 0 l 174 651 z "},"т":{"ha":477,"x_min":43,"x_max":434,"o":"m 174 521 l 43 521 l 43 651 l 434 651 l 434 521 l 304 521 l 304 0 l 174 0 l 174 521 z "},"У":{"ha":477,"x_min":43,"x_max":434,"o":"m 43 0 l 87 130 l 172 130 l 43 781 l 176 781 l 239 391 l 302 781 l 434 781 l 306 130 l 304 130 q 266 38 304 76 q 174 0 228 0 l 43 0 z "},"у":{"ha":477,"x_min":43,"x_max":434,"o":"m 43 -130 l 87 0 l 172 0 l 43 651 l 176 651 l 239 260 l 302 651 l 434 651 l 306 0 l 304 0 q 266 -92 304 -54 q 174 -130 228 -130 l 43 -130 z "},"Ф":{"ha":738,"x_min":43,"x_max":694,"o":"m 304 195 l 304 586 l 174 586 l 174 195 l 304 195 m 564 195 l 564 586 l 434 586 l 434 195 l 564 195 m 694 195 q 656 103 694 141 q 564 65 618 65 l 434 65 l 434 0 l 304 0 l 304 65 l 174 65 q 82 103 120 65 q 43 195 43 141 l 43 586 q 82 678 43 640 q 174 716 120 716 l 304 716 l 304 781 l 434 781 l 434 716 l 564 716 q 656 678 618 716 q 694 586 694 640 l 694 195 z "},"ф":{"ha":738,"x_min":43,"x_max":694,"o":"m 434 -130 l 304 -130 l 304 781 l 434 781 l 434 -130 m 217 651 q 278 613 253 651 q 304 521 304 575 l 174 521 l 174 130 l 304 130 q 278 38 304 76 q 217 0 253 0 l 174 0 q 82 38 120 0 q 43 130 43 76 l 43 521 q 82 613 43 575 q 174 651 120 651 l 217 651 m 521 651 l 564 651 q 656 613 618 651 q 694 521 694 575 l 694 130 q 656 38 694 76 q 564 0 618 0 l 521 0 q 459 38 485 0 q 434 130 434 76 l 564 130 l 564 521 l 434 521 q 459 613 434 575 q 521 651 485 651 z "},"Х":{"ha":477,"x_min":43,"x_max":434,"o":"m 309 391 l 434 0 l 294 0 l 239 260 l 184 0 l 43 0 l 169 391 l 43 781 l 184 781 l 239 521 l 294 781 l 434 781 l 309 391 z "},"х":{"ha":477,"x_min":43,"x_max":434,"o":"m 309 326 l 434 0 l 294 0 l 239 195 l 184 0 l 43 0 l 169 326 l 43 651 l 184 651 l 239 456 l 294 651 l 434 651 l 309 326 z "},"Ц":{"ha":543,"x_min":43,"x_max":499,"o":"m 434 130 l 499 130 l 499 -130 l 369 -130 l 369 0 l 43 0 l 43 781 l 174 781 l 174 130 l 304 130 l 304 781 l 434 781 l 434 130 z "},"ц":{"ha":543,"x_min":43,"x_max":499,"o":"m 434 130 l 499 130 l 499 -130 l 369 -130 l 369 0 l 43 0 l 43 651 l 174 651 l 174 130 l 304 130 l 304 651 l 434 651 l 434 130 z "},"Ч":{"ha":477,"x_min":43,"x_max":434,"o":"m 434 0 l 304 0 l 304 781 l 434 781 l 434 0 m 174 391 l 304 391 q 278 298 304 336 q 217 260 253 260 l 174 260 q 81 298 119 260 q 43 391 43 336 l 43 781 l 174 781 l 174 391 z "},"ч":{"ha":477,"x_min":43,"x_max":434,"o":"m 434 0 l 304 0 l 304 651 l 434 651 l 434 0 m 174 326 l 304 326 q 278 233 304 271 q 217 195 253 195 l 174 195 q 81 233 119 195 q 43 326 43 271 l 43 651 l 174 651 l 174 326 z "},"Ш":{"ha":608,"x_min":43,"x_max":564,"o":"m 434 781 l 564 781 l 564 0 l 43 0 l 43 781 l 174 781 l 174 130 l 239 130 l 239 781 l 369 781 l 369 130 l 434 130 l 434 781 z "},"ш":{"ha":608,"x_min":43,"x_max":564,"o":"m 434 651 l 564 651 l 564 0 l 43 0 l 43 651 l 174 651 l 174 130 l 239 130 l 239 651 l 369 651 l 369 130 l 434 130 l 434 651 z "},"Щ":{"ha":673,"x_min":43,"x_max":629,"o":"m 564 130 l 629 130 l 629 -130 l 499 -130 l 499 0 l 43 0 l 43 781 l 174 781 l 174 130 l 239 130 l 239 781 l 369 781 l 369 130 l 434 130 l 434 781 l 564 781 l 564 130 z "},"щ":{"ha":673,"x_min":43,"x_max":629,"o":"m 564 130 l 629 130 l 629 -130 l 499 -130 l 499 0 l 43 0 l 43 651 l 174 651 l 174 130 l 239 130 l 239 651 l 369 651 l 369 130 l 434 130 l 434 651 l 564 651 l 564 130 z "},"Ъ":{"ha":608,"x_min":43,"x_max":564,"o":"m 174 651 l 43 651 l 43 781 l 304 781 l 304 521 l 434 521 q 526 483 488 521 q 564 391 564 444 l 564 130 q 526 38 564 76 q 434 0 488 0 l 174 0 l 174 651 m 434 391 l 304 391 l 304 130 l 434 130 l 434 391 z "},"ъ":{"ha":608,"x_min":43,"x_max":564,"o":"m 174 521 l 43 521 l 43 651 l 304 651 l 304 456 l 434 456 q 526 418 488 456 q 564 326 564 380 l 564 130 q 526 38 564 76 q 434 0 488 0 l 174 0 l 174 521 m 434 326 l 304 326 l 304 130 l 434 130 l 434 326 z "},"Ы":{"ha":673,"x_min":43,"x_max":629,"o":"m 629 0 l 499 0 l 499 781 l 629 781 l 629 0 m 304 391 l 174 391 l 174 130 l 304 130 l 304 391 m 174 521 l 304 521 q 396 483 357 521 q 434 391 434 444 l 434 130 q 396 38 434 76 q 304 0 357 0 l 43 0 l 43 781 l 174 781 l 174 521 z "},"ы":{"ha":673,"x_min":43,"x_max":629,"o":"m 174 456 l 304 456 q 396 418 357 456 q 434 326 434 380 l 434 130 q 396 38 434 76 q 304 0 357 0 l 43 0 l 43 651 l 174 651 l 174 456 m 629 0 l 499 0 l 499 651 l 629 651 l 629 0 m 304 326 l 174 326 l 174 130 l 304 130 l 304 326 z "},"Ь":{"ha":477,"x_min":43,"x_max":434,"o":"m 174 521 l 304 521 q 396 483 357 521 q 434 391 434 444 l 434 130 q 396 38 434 76 q 304 0 357 0 l 43 0 l 43 781 l 174 781 l 174 521 m 304 391 l 174 391 l 174 130 l 304 130 l 304 391 z "},"ь":{"ha":477,"x_min":43,"x_max":434,"o":"m 174 456 l 304 456 q 396 418 357 456 q 434 326 434 380 l 434 130 q 396 38 434 76 q 304 0 357 0 l 43 0 l 43 651 l 174 651 l 174 456 m 304 326 l 174 326 l 174 130 l 304 130 l 304 326 z "},"Э":{"ha":477,"x_min":43,"x_max":434,"o":"m 304 326 l 141 326 l 141 456 l 304 456 l 304 651 l 174 651 l 174 586 l 43 586 l 43 651 q 81 743 43 705 q 174 781 119 781 l 304 781 q 396 743 358 781 q 434 651 434 705 l 434 130 q 396 38 434 76 q 304 0 358 0 l 174 0 q 81 38 119 0 q 43 130 43 76 l 43 195 l 174 195 l 174 130 l 304 130 l 304 326 z "},"э":{"ha":477,"x_min":43,"x_max":434,"o":"m 304 260 l 141 260 l 141 391 l 304 391 l 304 521 l 174 521 l 174 456 l 43 456 l 43 521 q 81 613 43 574 q 174 651 119 651 l 304 651 q 396 613 358 651 q 434 521 434 574 l 434 130 q 396 38 434 76 q 304 0 358 0 l 174 0 q 81 38 119 0 q 43 130 43 76 l 43 195 l 174 195 l 174 130 l 304 130 l 304 260 z "},"Ю":{"ha":673,"x_min":43,"x_max":629,"o":"m 499 651 l 412 651 l 412 130 l 499 130 l 499 651 m 174 326 l 174 0 l 43 0 l 43 781 l 174 781 l 174 456 l 282 456 l 282 651 q 320 743 282 705 q 412 781 359 781 l 499 781 q 591 743 553 781 q 629 651 629 705 l 629 130 q 591 38 629 76 q 499 0 553 0 l 412 0 q 320 38 359 0 q 282 130 282 76 l 282 326 l 174 326 z "},"ю":{"ha":673,"x_min":43,"x_max":629,"o":"m 499 521 l 412 521 l 412 130 l 499 130 l 499 521 m 174 260 l 174 0 l 43 0 l 43 651 l 174 651 l 174 391 l 282 391 l 282 521 q 320 613 282 575 q 412 651 359 651 l 499 651 q 591 613 553 651 q 629 521 629 574 l 629 130 q 591 38 629 76 q 499 0 553 0 l 412 0 q 320 38 359 0 q 282 130 282 76 l 282 260 l 174 260 z "},"Я":{"ha":477,"x_min":43,"x_max":434,"o":"m 174 651 l 174 391 l 304 391 l 304 651 l 174 651 m 43 651 q 82 743 43 705 q 174 781 120 781 l 434 781 l 434 0 l 304 0 l 304 260 l 283 260 l 184 0 l 43 0 l 144 263 q 82 298 109 271 q 43 391 43 336 l 43 651 z "},"я":{"ha":477,"x_min":43,"x_max":434,"o":"m 174 326 l 304 326 l 304 521 l 174 521 l 174 326 m 258 195 l 184 0 l 43 0 l 122 205 q 81 234 100 215 q 43 326 43 272 l 43 521 q 82 613 43 575 q 174 651 120 651 l 434 651 l 434 0 l 304 0 l 304 195 l 258 195 z "},"Һ":{"ha":477,"x_min":43,"x_max":434,"o":"m 43 781 l 174 781 l 174 586 l 304 586 q 396 548 357 586 q 434 456 434 510 l 434 0 l 304 0 l 304 456 l 174 456 l 174 0 l 43 0 l 43 781 z "},"һ":{"ha":477,"x_min":43,"x_max":434,"o":"m 43 781 l 174 781 l 174 0 l 43 0 l 43 781 m 174 391 q 199 483 174 445 q 260 521 224 521 l 304 521 q 396 483 357 521 q 434 391 434 445 l 434 0 l 304 0 l 304 391 l 174 391 z "},"Ә":{"ha":477,"x_min":43,"x_max":434,"o":"m 304 326 l 174 326 l 174 130 l 304 130 l 304 326 m 434 130 q 396 38 434 76 q 304 0 358 0 l 174 0 q 81 38 119 0 q 43 130 43 76 l 43 456 l 304 456 l 304 651 l 174 651 l 174 586 l 43 586 l 43 651 q 81 743 43 705 q 174 781 119 781 l 304 781 q 396 743 358 781 q 434 651 434 705 l 434 130 z "},"ә":{"ha":477,"x_min":43,"x_max":434,"o":"m 174 260 l 174 130 l 304 130 l 304 260 l 174 260 m 43 130 l 43 391 l 304 391 l 304 521 l 174 521 l 174 477 l 43 477 l 43 521 q 81 613 43 575 q 174 651 119 651 l 304 651 q 396 613 358 651 q 434 521 434 575 l 434 130 q 396 38 434 76 q 304 0 358 0 l 174 0 q 81 38 119 0 q 43 130 43 76 z "},"Џ":{"ha":477,"x_min":43,"x_max":434,"o":"m 304 0 l 304 -130 l 174 -130 l 174 0 l 43 0 l 43 781 l 174 781 l 174 130 l 304 130 l 304 781 l 434 781 l 434 0 l 304 0 z "},"џ":{"ha":477,"x_min":43,"x_max":434,"o":"m 304 0 l 304 -130 l 174 -130 l 174 0 l 43 0 l 43 651 l 174 651 l 174 130 l 304 130 l 304 651 l 434 651 l 434 0 l 304 0 z "},"Ґ":{"ha":412,"x_min":43,"x_max":369,"o":"m 282 781 l 282 911 l 369 911 l 369 651 l 174 651 l 174 0 l 43 0 l 43 781 l 282 781 z "},"ґ":{"ha":412,"x_min":43,"x_max":369,"o":"m 282 651 l 282 781 l 369 781 l 369 521 l 174 521 l 174 0 l 43 0 l 43 651 l 282 651 z "},"Ү":{"ha":477,"x_min":43,"x_max":434,"o":"m 239 391 l 302 781 l 434 781 l 304 260 l 304 0 l 174 0 l 174 260 l 43 781 l 176 781 l 239 391 z "},"ү":{"ha":477,"x_min":43,"x_max":434,"o":"m 239 260 l 302 651 l 434 651 l 304 130 l 304 -130 l 174 -130 l 174 130 l 43 651 l 176 651 l 239 260 z "},"Ұ":{"ha":477,"x_min":43,"x_max":434,"o":"m 315 304 l 304 260 l 304 0 l 174 0 l 174 260 l 163 304 l 43 304 l 43 391 l 141 391 l 43 781 l 176 781 l 239 391 l 302 781 l 434 781 l 336 391 l 434 391 l 434 304 l 315 304 z "},"ұ":{"ha":477,"x_min":43,"x_max":434,"o":"m 315 174 l 304 130 l 304 -130 l 174 -130 l 174 130 l 163 174 l 43 174 l 43 260 l 141 260 l 43 651 l 176 651 l 239 260 l 302 651 l 434 651 l 336 260 l 434 260 l 434 174 l 315 174 z "},"Є":{"ha":477,"x_min":43,"x_max":434,"o":"m 304 651 l 174 651 l 174 456 l 336 456 l 336 326 l 174 326 l 174 130 l 304 130 l 304 195 l 434 195 l 434 130 q 396 38 434 76 q 304 0 358 0 l 174 0 q 81 38 119 0 q 43 130 43 76 l 43 651 q 81 743 43 705 q 174 781 119 781 l 304 781 q 396 743 358 781 q 434 651 434 705 l 434 586 l 304 586 l 304 651 z "},"є":{"ha":477,"x_min":43,"x_max":434,"o":"m 304 521 l 174 521 l 174 391 l 336 391 l 336 260 l 174 260 l 174 130 l 304 130 l 304 195 l 434 195 l 434 130 q 396 38 434 76 q 304 0 358 0 l 174 0 q 81 38 119 0 q 43 130 43 76 l 43 521 q 81 613 43 574 q 174 651 119 651 l 304 651 q 396 613 358 651 q 434 521 434 574 l 434 456 l 304 456 l 304 521 z "},"Ѕ":{"ha":477,"x_min":43,"x_max":434,"o":"m 174 0 q 82 38 120 0 q 43 130 43 76 l 44 130 l 44 260 l 174 260 l 174 130 l 304 130 l 304 213 l 43 521 l 43 651 q 82 743 43 705 q 174 781 120 781 l 304 781 q 396 743 358 781 q 434 651 434 705 l 434 521 l 304 521 l 304 651 l 174 651 l 174 568 l 434 260 l 434 130 q 396 38 434 76 q 304 0 358 0 l 174 0 z "},"ѕ":{"ha":477,"x_min":43,"x_max":434,"o":"m 174 0 q 82 38 120 0 q 43 130 43 76 l 44 130 l 44 217 l 174 217 l 174 130 l 304 130 l 304 148 l 43 456 l 43 521 q 82 613 43 575 q 174 651 120 651 l 304 651 q 396 613 358 651 q 434 521 434 575 l 434 434 l 304 434 l 304 521 l 174 521 l 174 503 l 434 195 l 434 130 q 396 38 434 76 q 304 0 358 0 l 174 0 z "},"І":{"ha":217,"x_min":43,"x_max":174,"o":"m 174 0 l 43 0 l 43 781 l 174 781 l 174 0 z "},"і":{"ha":217,"x_min":43,"x_max":174,"o":"m 174 0 l 43 0 l 43 651 l 174 651 l 174 0 m 43 781 l 174 781 l 174 716 l 43 716 l 43 781 z "},"Ј":{"ha":477,"x_min":43,"x_max":434,"o":"m 174 0 q 82 38 120 0 q 43 130 43 76 l 44 130 l 44 260 l 174 260 l 174 130 l 304 130 l 304 781 l 434 781 l 434 130 q 396 38 434 76 q 304 0 358 0 l 174 0 z "},"ј":{"ha":260,"x_min":-43,"x_max":217,"o":"m 87 781 l 217 781 l 217 716 l 87 716 l 87 781 m 87 651 l 217 651 l 217 0 q 179 -92 217 -54 q 87 -130 141 -130 l -43 -130 l 43 0 l 87 0 l 87 651 z "},"Ө":{"ha":477,"x_min":43,"x_max":434,"o":"m 304 434 l 304 651 l 174 651 l 174 434 l 304 434 m 304 347 l 174 347 l 174 130 l 304 130 l 304 347 m 434 130 q 396 38 434 76 q 304 0 358 0 l 174 0 q 82 38 120 0 q 43 130 43 76 l 43 651 q 82 743 43 705 q 174 781 120 781 l 304 781 q 396 743 358 781 q 434 651 434 705 l 434 130 z "},"ө":{"ha":477,"x_min":43,"x_max":434,"o":"m 304 369 l 304 521 l 174 521 l 174 369 l 304 369 m 304 282 l 174 282 l 174 130 l 304 130 l 304 282 m 434 130 q 396 38 434 76 q 304 0 358 0 l 174 0 q 82 38 120 0 q 43 130 43 76 l 43 521 q 82 613 43 574 q 174 651 120 651 l 304 651 q 396 613 358 651 q 434 521 434 574 l 434 130 z "},"Њ":{"ha":738,"x_min":43,"x_max":694,"o":"m 434 326 l 434 130 l 564 130 l 564 326 l 434 326 m 174 326 l 174 0 l 43 0 l 43 781 l 174 781 l 174 456 l 304 456 l 304 781 l 434 781 l 434 456 l 564 456 q 656 418 618 456 q 694 326 694 380 l 694 130 q 656 38 694 76 q 564 0 618 0 l 304 0 l 304 326 l 174 326 z "},"њ":{"ha":738,"x_min":43,"x_max":694,"o":"m 174 260 l 174 0 l 43 0 l 43 651 l 174 651 l 174 391 l 304 391 l 304 651 l 434 651 l 434 391 l 564 391 q 656 353 618 391 q 694 260 694 315 l 694 130 q 656 38 694 76 q 564 0 618 0 l 304 0 l 304 260 l 174 260 m 564 260 l 434 260 l 434 130 l 564 130 l 564 260 z "},"Љ":{"ha":738,"x_min":43,"x_max":694,"o":"m 434 781 l 434 456 l 564 456 q 656 418 618 456 q 694 326 694 380 l 694 130 q 656 38 694 76 q 564 0 618 0 l 304 0 l 304 651 l 284 651 l 176 0 l 43 0 l 172 781 l 434 781 m 434 326 l 434 130 l 564 130 l 564 326 l 434 326 z "},"љ":{"ha":738,"x_min":43,"x_max":694,"o":"m 434 260 l 434 130 l 564 130 l 564 260 l 434 260 m 434 651 l 434 391 l 564 391 q 656 353 618 391 q 694 260 694 315 l 694 130 q 656 38 694 76 q 564 0 618 0 l 304 0 l 304 521 l 280 521 l 176 0 l 43 0 l 172 651 l 434 651 z "},"Ћ":{"ha":608,"x_min":43,"x_max":564,"o":"m 499 781 l 499 651 l 304 651 l 304 521 l 434 521 q 526 483 488 521 q 564 391 564 445 l 564 0 l 434 0 l 434 391 l 304 391 l 304 0 l 174 0 l 174 651 l 43 651 l 43 781 l 499 781 z "},"ћ":{"ha":608,"x_min":43,"x_max":564,"o":"m 564 0 l 434 0 l 434 326 l 304 326 l 304 0 l 174 0 l 174 586 l 43 586 l 43 716 l 174 716 l 174 781 l 304 781 l 304 716 l 499 716 l 499 586 l 304 586 l 304 456 l 434 456 q 526 418 488 456 q 564 326 564 380 l 564 0 z "},"Ђ":{"ha":608,"x_min":43,"x_max":564,"o":"m 434 -130 l 391 -130 l 391 0 l 434 0 l 434 391 l 304 391 l 304 0 l 174 0 l 174 651 l 43 651 l 43 781 l 499 781 l 499 651 l 304 651 l 304 521 l 434 521 q 526 483 488 521 q 564 391 564 445 l 564 0 q 526 -92 564 -54 q 434 -130 488 -130 z "},"ђ":{"ha":608,"x_min":43,"x_max":564,"o":"m 434 -130 l 391 -130 l 391 0 l 434 0 l 434 326 l 304 326 l 304 0 l 174 0 l 174 586 l 43 586 l 43 716 l 174 716 l 174 781 l 304 781 l 304 716 l 499 716 l 499 586 l 304 586 l 304 456 l 434 456 q 526 418 488 456 q 564 326 564 380 l 564 0 q 526 -92 564 -54 q 434 -130 488 -130 z "},"Ӏ":{"ha":217,"x_min":43,"x_max":174,"o":"m 174 0 l 43 0 l 43 781 l 174 781 l 174 0 z "},"ӏ":{"ha":217,"x_min":54,"x_max":163,"o":"m 163 0 l 54 0 l 54 781 l 163 781 l 163 0 z "},"Ѳ":{"ha":477,"x_min":43,"x_max":434,"o":"m 174 391 l 174 130 l 304 130 l 304 309 l 279 309 q 222 333 245 309 q 198 391 198 357 l 174 391 m 304 391 l 304 651 l 174 651 l 174 472 l 198 472 q 256 448 232 472 q 279 391 279 425 l 304 391 m 304 0 l 174 0 q 82 38 120 0 q 43 130 43 76 l 43 651 q 82 743 43 705 q 174 781 120 781 l 304 781 q 396 743 358 781 q 434 651 434 705 l 434 130 q 396 38 434 76 q 304 0 358 0 z "},"ѳ":{"ha":477,"x_min":43,"x_max":434,"o":"m 174 326 l 174 130 l 304 130 l 304 244 l 279 244 q 222 268 245 244 q 198 326 198 292 l 174 326 m 304 326 l 304 521 l 174 521 l 174 407 l 198 407 q 256 383 232 407 q 279 326 279 359 l 304 326 m 304 0 l 174 0 q 82 38 120 0 q 43 130 43 76 l 43 521 q 82 613 43 574 q 174 651 120 651 l 304 651 q 396 613 358 651 q 434 521 434 574 l 434 130 q 396 38 434 76 q 304 0 358 0 z "},"Ӓ":{"ha":477,"x_min":43,"x_max":434,"o":"m 369 846 l 282 846 l 282 911 l 369 911 l 369 846 m 195 846 l 109 846 l 109 911 l 195 911 l 195 846 m 275 260 l 239 651 l 202 260 l 275 260 m 434 0 l 304 0 l 290 130 l 188 130 l 174 0 l 43 0 l 129 781 l 349 781 l 434 0 z "},"ӓ":{"ha":477,"x_min":43,"x_max":434,"o":"m 304 130 q 278 38 304 76 q 217 0 253 0 l 174 0 q 82 38 120 0 q 43 130 43 76 l 43 326 q 69 418 43 380 q 130 456 94 456 l 174 456 q 266 418 228 456 q 304 326 304 380 l 174 326 l 174 130 l 304 130 m 87 521 q 125 613 87 575 q 217 651 163 651 l 304 651 q 396 613 358 651 q 434 521 434 574 l 434 0 l 347 0 l 304 130 l 304 521 l 87 521 m 369 716 l 282 716 l 282 781 l 369 781 l 369 716 m 195 716 l 109 716 l 109 781 l 195 781 l 195 716 z "},"Ё":{"ha":477,"x_min":43,"x_max":434,"o":"m 434 781 l 434 651 l 174 651 l 174 456 l 391 456 l 391 326 l 174 326 l 174 130 l 434 130 l 434 0 l 43 0 l 43 781 l 434 781 m 369 846 l 282 846 l 282 911 l 369 911 l 369 846 m 195 846 l 109 846 l 109 911 l 195 911 l 195 846 z "},"ё":{"ha":477,"x_min":43,"x_max":434,"o":"m 174 391 l 304 391 l 304 521 l 174 521 l 174 391 m 304 130 l 304 195 l 434 195 l 434 130 q 396 38 434 76 q 304 0 358 0 l 174 0 q 82 38 120 0 q 43 130 43 76 l 43 521 q 82 613 43 574 q 174 651 120 651 l 304 651 q 396 613 358 651 q 434 521 434 574 l 434 260 l 174 260 l 174 130 l 304 130 m 369 716 l 282 716 l 282 781 l 369 781 l 369 716 m 195 716 l 109 716 l 109 781 l 195 781 l 195 716 z "},"Ї":{"ha":217,"x_min":0,"x_max":217,"o":"m 174 0 l 43 0 l 43 781 l 174 781 l 174 0 m 217 846 l 130 846 l 130 911 l 217 911 l 217 846 m 87 846 l 0 846 l 0 911 l 87 911 l 87 846 z "},"ї":{"ha":217,"x_min":0,"x_max":217,"o":"m 174 0 l 43 0 l 43 651 l 174 651 l 174 0 m 217 716 l 130 716 l 130 781 l 217 781 l 217 716 m 87 716 l 0 716 l 0 781 l 87 781 l 87 716 z "},"Ӥ":{"ha":477,"x_min":43,"x_max":434,"o":"m 369 846 l 282 846 l 282 911 l 369 911 l 369 846 m 195 846 l 109 846 l 109 911 l 195 911 l 195 846 m 434 781 l 434 0 l 304 0 l 304 391 l 174 0 l 43 0 l 43 781 l 174 781 l 174 391 l 304 781 l 434 781 z "},"ӥ":{"ha":477,"x_min":43,"x_max":434,"o":"m 369 716 l 282 716 l 282 781 l 369 781 l 369 716 m 195 716 l 109 716 l 109 781 l 195 781 l 195 716 m 434 651 l 434 0 l 304 0 l 304 326 l 174 0 l 43 0 l 43 651 l 174 651 l 174 326 l 304 651 l 434 651 z "},"Ӧ":{"ha":477,"x_min":43,"x_max":434,"o":"m 174 130 l 304 130 l 304 651 l 174 651 l 174 130 m 43 130 l 43 651 q 82 743 43 705 q 174 781 120 781 l 304 781 q 396 743 358 781 q 434 651 434 705 l 434 130 q 396 38 434 76 q 304 0 358 0 l 174 0 q 82 38 120 0 q 43 130 43 76 m 369 846 l 282 846 l 282 911 l 369 911 l 369 846 m 195 846 l 109 846 l 109 911 l 195 911 l 195 846 z "},"ӧ":{"ha":477,"x_min":43,"x_max":434,"o":"m 174 130 l 304 130 l 304 521 l 174 521 l 174 130 m 43 130 l 43 521 q 82 613 43 574 q 174 651 120 651 l 304 651 q 396 613 358 651 q 434 521 434 574 l 434 130 q 396 38 434 76 q 304 0 358 0 l 174 0 q 82 38 120 0 q 43 130 43 76 m 369 716 l 282 716 l 282 781 l 369 781 l 369 716 m 195 716 l 109 716 l 109 781 l 195 781 l 195 716 z "},"Ӵ":{"ha":477,"x_min":43,"x_max":434,"o":"m 369 846 l 282 846 l 282 911 l 369 911 l 369 846 m 195 846 l 109 846 l 109 911 l 195 911 l 195 846 m 304 781 l 434 781 l 434 0 l 304 0 l 304 781 m 43 781 l 174 781 l 174 391 l 304 391 q 278 298 304 336 q 217 260 253 260 l 174 260 q 81 298 119 260 q 43 391 43 336 l 43 781 z "},"ӵ":{"ha":477,"x_min":43,"x_max":434,"o":"m 369 716 l 282 716 l 282 781 l 369 781 l 369 716 m 195 716 l 109 716 l 109 781 l 195 781 l 195 716 m 304 651 l 434 651 l 434 0 l 304 0 l 304 651 m 43 651 l 174 651 l 174 326 l 304 326 q 278 233 304 271 q 217 195 253 195 l 174 195 q 81 233 119 195 q 43 326 43 271 l 43 651 z "},"Ӟ":{"ha":477,"x_min":43,"x_max":434,"o":"m 434 521 q 396 429 434 467 q 304 391 358 391 q 396 353 358 391 q 434 260 434 315 l 434 130 q 396 38 434 76 q 304 0 358 0 l 174 0 q 82 38 120 0 q 43 130 43 76 l 43 217 l 174 217 l 174 130 l 304 130 l 304 326 l 174 326 l 174 456 l 304 456 l 304 651 l 174 651 l 174 564 l 43 564 l 43 651 q 82 743 43 705 q 174 781 120 781 l 304 781 q 396 743 358 781 q 434 651 434 705 l 434 521 m 369 846 l 282 846 l 282 911 l 369 911 l 369 846 m 195 846 l 109 846 l 109 911 l 195 911 l 195 846 z "},"ӟ":{"ha":477,"x_min":43,"x_max":434,"o":"m 434 456 q 396 363 434 401 q 304 326 358 326 q 396 288 358 326 q 434 195 434 250 l 434 130 q 396 38 434 76 q 304 0 358 0 l 174 0 q 82 38 120 0 q 43 130 43 76 l 43 217 l 174 217 l 174 130 l 304 130 l 304 260 l 195 260 l 195 391 l 304 391 l 304 521 l 174 521 l 174 434 l 43 434 l 43 521 q 82 613 43 574 q 174 651 120 651 l 304 651 q 396 613 358 651 q 434 521 434 574 l 434 456 m 369 716 l 282 716 l 282 781 l 369 781 l 369 716 m 195 716 l 109 716 l 109 781 l 195 781 l 195 716 z "},"Ӭ":{"ha":477,"x_min":43,"x_max":434,"o":"m 174 651 l 174 586 l 43 586 l 43 651 q 81 743 43 705 q 174 781 119 781 l 304 781 q 396 743 358 781 q 434 651 434 705 l 434 130 q 396 38 434 76 q 304 0 358 0 l 174 0 q 81 38 119 0 q 43 130 43 76 l 43 195 l 174 195 l 174 130 l 304 130 l 304 326 l 141 326 l 141 456 l 304 456 l 304 651 l 174 651 m 195 846 l 109 846 l 109 911 l 195 911 l 195 846 m 369 846 l 282 846 l 282 911 l 369 911 l 369 846 z "},"ӭ":{"ha":477,"x_min":43,"x_max":434,"o":"m 174 521 l 174 456 l 43 456 l 43 521 q 81 613 43 574 q 174 651 119 651 l 304 651 q 396 613 358 651 q 434 521 434 574 l 434 130 q 396 38 434 76 q 304 0 358 0 l 174 0 q 81 38 119 0 q 43 130 43 76 l 43 195 l 174 195 l 174 130 l 304 130 l 304 260 l 141 260 l 141 391 l 304 391 l 304 521 l 174 521 m 195 716 l 109 716 l 109 781 l 195 781 l 195 716 m 369 716 l 282 716 l 282 781 l 369 781 l 369 716 z "},"Ӝ":{"ha":738,"x_min":43,"x_max":694,"o":"m 326 846 l 239 846 l 239 911 l 326 911 l 326 846 m 499 846 l 412 846 l 412 911 l 499 911 l 499 846 m 434 0 l 304 0 l 304 376 l 184 0 l 43 0 l 168 391 l 43 781 l 184 781 l 304 406 l 304 781 l 434 781 l 434 406 l 554 781 l 694 781 l 570 391 l 694 0 l 554 0 l 434 376 l 434 0 z "},"ӝ":{"ha":738,"x_min":43,"x_max":694,"o":"m 326 716 l 239 716 l 239 781 l 326 781 l 326 716 m 499 716 l 412 716 l 412 781 l 499 781 l 499 716 m 434 338 l 554 651 l 694 651 l 569 326 l 694 0 l 554 0 l 434 313 l 434 0 l 304 0 l 304 313 l 184 0 l 43 0 l 168 326 l 43 651 l 184 651 l 304 338 l 304 651 l 434 651 l 434 338 z "},"Ӫ":{"ha":477,"x_min":43,"x_max":434,"o":"m 434 130 q 396 38 434 76 q 304 0 358 0 l 174 0 q 82 38 120 0 q 43 130 43 76 l 43 651 q 82 743 43 705 q 174 781 120 781 l 304 781 q 396 743 358 781 q 434 651 434 705 l 434 130 m 195 846 l 109 846 l 109 911 l 195 911 l 195 846 m 369 846 l 282 846 l 282 911 l 369 911 l 369 846 m 174 434 l 304 434 l 304 651 l 174 651 l 174 434 m 304 347 l 174 347 l 174 130 l 304 130 l 304 347 z "},"ӫ":{"ha":477,"x_min":43,"x_max":434,"o":"m 434 130 q 396 38 434 76 q 304 0 358 0 l 174 0 q 82 38 120 0 q 43 130 43 76 l 43 521 q 82 613 43 574 q 174 651 120 651 l 304 651 q 396 613 358 651 q 434 521 434 574 l 434 130 m 195 716 l 109 716 l 109 781 l 195 781 l 195 716 m 369 716 l 282 716 l 282 781 l 369 781 l 369 716 m 174 369 l 304 369 l 304 521 l 174 521 l 174 369 m 304 282 l 174 282 l 174 130 l 304 130 l 304 282 z "},"Ӛ":{"ha":477,"x_min":43,"x_max":434,"o":"m 369 846 l 282 846 l 282 911 l 369 911 l 369 846 m 195 846 l 109 846 l 109 911 l 195 911 l 195 846 m 304 326 l 174 326 l 174 130 l 304 130 l 304 326 m 174 651 l 174 586 l 43 586 l 43 651 q 81 743 43 705 q 174 781 119 781 l 304 781 q 396 743 358 781 q 434 651 434 705 l 434 130 q 396 38 434 76 q 304 0 358 0 l 174 0 q 81 38 119 0 q 43 130 43 76 l 43 456 l 304 456 l 304 651 l 174 651 z "},"ӛ":{"ha":477,"x_min":43,"x_max":434,"o":"m 369 716 l 282 716 l 282 781 l 369 781 l 369 716 m 195 716 l 109 716 l 109 781 l 195 781 l 195 716 m 304 260 l 174 260 l 174 130 l 304 130 l 304 260 m 174 521 l 174 477 l 43 477 l 43 521 q 81 613 43 575 q 174 651 119 651 l 304 651 q 396 613 358 651 q 434 521 434 575 l 434 130 q 396 38 434 76 q 304 0 358 0 l 174 0 q 81 38 119 0 q 43 130 43 76 l 43 391 l 304 391 l 304 521 l 174 521 z "},"Ӱ":{"ha":477,"x_min":43,"x_max":434,"o":"m 43 0 l 87 130 l 172 130 l 43 781 l 176 781 l 239 391 l 302 781 l 434 781 l 306 130 l 304 130 q 266 38 304 76 q 174 0 228 0 l 43 0 m 369 846 l 282 846 l 282 911 l 369 911 l 369 846 m 195 846 l 109 846 l 109 911 l 195 911 l 195 846 z "},"ӱ":{"ha":477,"x_min":43,"x_max":434,"o":"m 43 -130 l 87 0 l 172 0 l 43 651 l 176 651 l 239 260 l 302 651 l 434 651 l 306 0 l 304 0 q 266 -92 304 -54 q 174 -130 228 -130 l 43 -130 m 369 716 l 282 716 l 282 781 l 369 781 l 369 716 m 195 716 l 109 716 l 109 781 l 195 781 l 195 716 z "},"Ӹ":{"ha":673,"x_min":43,"x_max":629,"o":"m 467 846 l 380 846 l 380 911 l 467 911 l 467 846 m 293 846 l 206 846 l 206 911 l 293 911 l 293 846 m 434 130 q 396 38 434 76 q 304 0 357 0 l 43 0 l 43 781 l 174 781 l 174 521 l 304 521 q 396 483 357 521 q 434 391 434 444 l 434 130 m 499 0 l 499 781 l 629 781 l 629 0 l 499 0 m 304 130 l 304 391 l 174 391 l 174 130 l 304 130 z "},"ӹ":{"ha":673,"x_min":43,"x_max":629,"o":"m 467 716 l 380 716 l 380 781 l 467 781 l 467 716 m 293 716 l 206 716 l 206 781 l 293 781 l 293 716 m 499 0 l 499 651 l 629 651 l 629 0 l 499 0 m 304 130 l 304 326 l 174 326 l 174 130 l 304 130 m 434 130 q 396 38 434 76 q 304 0 357 0 l 43 0 l 43 651 l 174 651 l 174 456 l 304 456 q 396 418 357 456 q 434 326 434 380 l 434 130 z "},"Ѐ":{"ha":477,"x_min":43,"x_max":434,"o":"m 434 781 l 434 651 l 174 651 l 174 456 l 391 456 l 391 326 l 174 326 l 174 130 l 434 130 l 434 0 l 43 0 l 43 781 l 434 781 m 285 844 l 239 798 l 123 913 l 170 960 l 285 844 z "},"ѐ":{"ha":477,"x_min":43,"x_max":434,"o":"m 174 391 l 304 391 l 304 521 l 174 521 l 174 391 m 304 130 l 304 195 l 434 195 l 434 130 q 396 38 434 76 q 304 0 358 0 l 174 0 q 82 38 120 0 q 43 130 43 76 l 43 521 q 82 613 43 574 q 174 651 120 651 l 304 651 q 396 613 358 651 q 434 521 434 574 l 434 260 l 174 260 l 174 130 l 304 130 m 285 714 l 239 668 l 123 783 l 170 829 l 285 714 z "},"Ѝ":{"ha":477,"x_min":43,"x_max":434,"o":"m 285 844 l 239 798 l 123 913 l 170 960 l 285 844 m 434 781 l 434 0 l 304 0 l 304 391 l 174 0 l 43 0 l 43 781 l 174 781 l 174 391 l 304 781 l 434 781 z "},"ѝ":{"ha":477,"x_min":43,"x_max":434,"o":"m 285 714 l 239 668 l 123 783 l 170 829 l 285 714 m 434 651 l 434 0 l 304 0 l 304 326 l 174 0 l 43 0 l 43 651 l 174 651 l 174 326 l 304 651 l 434 651 z "},"Ѓ":{"ha":412,"x_min":43,"x_max":369,"o":"m 43 0 l 43 781 l 369 781 l 369 651 l 174 651 l 174 0 l 43 0 m 308 960 l 354 913 l 239 798 l 193 844 l 308 960 z "},"ѓ":{"ha":412,"x_min":43,"x_max":369,"o":"m 308 829 l 354 783 l 239 668 l 193 714 l 308 829 m 174 0 l 43 0 l 43 651 l 369 651 l 369 521 l 174 521 l 174 0 z "},"Ќ":{"ha":477,"x_min":43,"x_max":434,"o":"m 308 960 l 354 913 l 239 798 l 193 844 l 308 960 m 174 260 l 174 0 l 43 0 l 43 781 l 174 781 l 174 391 l 294 781 l 434 781 l 281 302 l 434 0 l 281 0 l 174 260 z "},"ќ":{"ha":477,"x_min":43,"x_max":434,"o":"m 308 829 l 354 783 l 239 668 l 193 714 l 308 829 m 43 651 l 174 651 l 174 338 l 294 651 l 434 651 l 281 252 l 434 0 l 281 0 l 174 177 l 174 0 l 43 0 l 43 651 z "},"Й":{"ha":477,"x_min":43,"x_max":434,"o":"m 282 879 l 282 944 l 347 944 l 347 879 q 328 833 347 852 q 282 814 309 814 l 195 814 q 149 833 168 814 q 130 879 130 852 l 130 944 l 195 944 l 195 879 l 282 879 m 434 781 l 434 0 l 304 0 l 304 391 l 174 0 l 43 0 l 43 781 l 174 781 l 174 391 l 304 781 l 434 781 z "},"й":{"ha":477,"x_min":43,"x_max":434,"o":"m 282 749 l 282 814 l 347 814 l 347 749 q 328 703 347 722 q 282 684 309 684 l 195 684 q 149 703 168 684 q 130 749 130 722 l 130 814 l 195 814 l 195 749 l 282 749 m 434 651 l 434 0 l 304 0 l 304 326 l 174 0 l 43 0 l 43 651 l 174 651 l 174 326 l 304 651 l 434 651 z "},"Ў":{"ha":477,"x_min":43,"x_max":434,"o":"m 43 0 l 87 130 l 172 130 l 43 781 l 176 781 l 239 391 l 302 781 l 434 781 l 306 130 l 304 130 q 266 38 304 76 q 174 0 228 0 l 43 0 m 282 879 l 282 944 l 347 944 l 347 879 q 328 833 347 852 q 282 814 309 814 l 195 814 q 149 833 168 814 q 130 879 130 852 l 130 944 l 195 944 l 195 879 l 282 879 z "},"ў":{"ha":477,"x_min":43,"x_max":434,"o":"m 43 -130 l 87 0 l 172 0 l 43 651 l 176 651 l 239 260 l 302 651 l 434 651 l 306 0 l 304 0 q 266 -92 304 -54 q 174 -130 228 -130 l 43 -130 m 282 749 l 282 814 l 347 814 l 347 749 q 328 703 347 722 q 282 684 309 684 l 195 684 q 149 703 168 684 q 130 749 130 722 l 130 814 l 195 814 l 195 749 l 282 749 z "},"Ӂ":{"ha":738,"x_min":43,"x_max":694,"o":"m 434 0 l 304 0 l 304 376 l 184 0 l 43 0 l 168 391 l 43 781 l 184 781 l 304 406 l 304 781 l 434 781 l 434 406 l 554 781 l 694 781 l 570 391 l 694 0 l 554 0 l 434 376 l 434 0 m 412 879 l 412 944 l 477 944 l 477 879 q 458 833 477 852 q 412 814 439 814 l 326 814 q 279 833 298 814 q 260 879 260 852 l 260 944 l 326 944 l 326 879 l 412 879 z "},"ӂ":{"ha":738,"x_min":43,"x_max":694,"o":"m 434 338 l 554 651 l 694 651 l 569 326 l 694 0 l 554 0 l 434 313 l 434 0 l 304 0 l 304 313 l 184 0 l 43 0 l 168 326 l 43 651 l 184 651 l 304 338 l 304 651 l 434 651 l 434 338 m 412 749 l 412 814 l 477 814 l 477 749 q 458 703 477 722 q 412 684 439 684 l 326 684 q 279 703 298 684 q 260 749 260 722 l 260 814 l 326 814 l 326 749 l 412 749 z "},"Ӑ":{"ha":477,"x_min":43,"x_max":434,"o":"m 282 879 l 282 944 l 347 944 l 347 879 q 328 833 347 852 q 282 814 309 814 l 195 814 q 149 833 168 814 q 130 879 130 852 l 130 944 l 195 944 l 195 879 l 282 879 m 275 260 l 239 651 l 202 260 l 275 260 m 434 0 l 304 0 l 290 130 l 188 130 l 174 0 l 43 0 l 129 781 l 349 781 l 434 0 z "},"ӑ":{"ha":477,"x_min":43,"x_max":434,"o":"m 304 130 q 278 38 304 76 q 217 0 253 0 l 174 0 q 82 38 120 0 q 43 130 43 76 l 43 326 q 69 418 43 380 q 130 456 94 456 l 174 456 q 266 418 228 456 q 304 326 304 380 l 174 326 l 174 130 l 304 130 m 87 521 q 125 613 87 575 q 217 651 163 651 l 304 651 q 396 613 358 651 q 434 521 434 574 l 434 0 l 347 0 l 304 130 l 304 521 l 87 521 m 304 749 l 304 814 l 369 814 l 369 749 q 350 703 369 722 q 304 684 331 684 l 217 684 q 171 703 190 684 q 152 749 152 722 l 152 814 l 217 814 l 217 749 l 304 749 z "},"Ӗ":{"ha":477,"x_min":43,"x_max":434,"o":"m 434 781 l 434 651 l 174 651 l 174 456 l 391 456 l 391 326 l 174 326 l 174 130 l 434 130 l 434 0 l 43 0 l 43 781 l 434 781 m 282 879 l 282 944 l 347 944 l 347 879 q 328 833 347 852 q 282 814 309 814 l 195 814 q 149 833 168 814 q 130 879 130 852 l 130 944 l 195 944 l 195 879 l 282 879 z "},"ӗ":{"ha":477,"x_min":43,"x_max":434,"o":"m 174 391 l 304 391 l 304 521 l 174 521 l 174 391 m 304 130 l 304 195 l 434 195 l 434 130 q 396 38 434 76 q 304 0 358 0 l 174 0 q 82 38 120 0 q 43 130 43 76 l 43 521 q 82 613 43 574 q 174 651 120 651 l 304 651 q 396 613 358 651 q 434 521 434 574 l 434 260 l 174 260 l 174 130 l 304 130 m 282 749 l 282 814 l 347 814 l 347 749 q 328 703 347 722 q 282 684 309 684 l 195 684 q 149 703 168 684 q 130 749 130 722 l 130 814 l 195 814 l 195 749 l 282 749 z "},"Ӕ":{"ha":738,"x_min":43,"x_max":694,"o":"m 202 260 l 304 260 l 304 651 l 245 651 l 202 260 m 304 130 l 188 130 l 174 0 l 43 0 l 129 781 l 694 781 l 694 651 l 434 651 l 434 456 l 651 456 l 651 326 l 434 326 l 434 130 l 694 130 l 694 0 l 304 0 l 304 130 z "},"ӕ":{"ha":738,"x_min":43,"x_max":694,"o":"m 369 634 q 434 651 398 651 l 564 651 q 656 613 618 651 q 694 521 694 574 l 694 260 l 434 260 l 434 130 l 564 130 l 564 195 l 694 195 l 694 130 q 656 38 694 76 q 564 0 618 0 l 347 0 l 304 130 l 304 521 l 87 521 q 125 613 87 575 q 217 651 163 651 l 304 651 q 369 634 340 651 m 217 0 l 174 0 q 82 38 120 0 q 43 130 43 76 l 43 326 q 69 418 43 380 q 130 456 94 456 l 174 456 q 266 418 228 456 q 304 326 304 380 l 174 326 l 174 130 l 304 130 q 278 38 304 76 q 217 0 253 0 m 434 391 l 564 391 l 564 521 l 434 521 l 434 391 z "},"Ӣ":{"ha":477,"x_min":43,"x_max":434,"o":"m 434 781 l 434 0 l 304 0 l 304 391 l 174 0 l 43 0 l 43 781 l 174 781 l 174 391 l 304 781 l 434 781 m 369 846 l 109 846 l 109 911 l 369 911 l 369 846 z "},"ӣ":{"ha":477,"x_min":43,"x_max":434,"o":"m 434 0 l 304 0 l 304 326 l 174 0 l 43 0 l 43 651 l 174 651 l 174 326 l 304 651 l 434 651 l 434 0 m 369 716 l 109 716 l 109 781 l 369 781 l 369 716 z "},"Ӯ":{"ha":477,"x_min":43,"x_max":434,"o":"m 43 0 l 87 130 l 172 130 l 43 781 l 176 781 l 239 391 l 302 781 l 434 781 l 306 130 l 304 130 q 266 38 304 76 q 174 0 228 0 l 43 0 m 369 846 l 109 846 l 109 911 l 369 911 l 369 846 z "},"ӯ":{"ha":477,"x_min":43,"x_max":434,"o":"m 43 -130 l 87 0 l 172 0 l 43 651 l 176 651 l 239 260 l 302 651 l 434 651 l 306 0 l 304 0 q 266 -92 304 -54 q 174 -130 228 -130 l 43 -130 m 369 716 l 109 716 l 109 781 l 369 781 l 369 716 z "},"Ӳ":{"ha":477,"x_min":43,"x_max":446,"o":"m 43 0 l 87 130 l 172 130 l 43 781 l 176 781 l 239 391 l 302 781 l 434 781 l 306 130 l 304 130 q 266 38 304 76 q 174 0 228 0 l 43 0 m 400 960 l 446 913 l 331 798 l 285 844 l 400 960 m 216 960 l 262 913 l 146 798 l 100 844 l 216 960 z "},"ӳ":{"ha":477,"x_min":43,"x_max":446,"o":"m 43 -130 l 87 0 l 172 0 l 43 651 l 176 651 l 239 260 l 302 651 l 434 651 l 306 0 l 304 0 q 266 -92 304 -54 q 174 -130 228 -130 l 43 -130 m 400 829 l 446 783 l 331 668 l 285 714 l 400 829 m 216 829 l 262 783 l 146 668 l 100 714 l 216 829 z "},"Җ":{"ha":738,"x_min":43,"x_max":694,"o":"m 694 -130 l 608 -130 l 608 0 l 554 0 l 434 376 l 434 0 l 304 0 l 304 376 l 184 0 l 43 0 l 168 391 l 43 781 l 184 781 l 304 406 l 304 781 l 434 781 l 434 406 l 554 781 l 694 781 l 570 391 l 653 130 l 694 130 l 694 -130 z "},"җ":{"ha":738,"x_min":43,"x_max":694,"o":"m 694 -130 l 608 -130 l 608 0 l 554 0 l 434 313 l 434 0 l 304 0 l 304 313 l 184 0 l 43 0 l 168 326 l 43 651 l 184 651 l 304 338 l 304 651 l 434 651 l 434 338 l 554 651 l 694 651 l 569 326 l 644 130 l 694 130 l 694 -130 z "},"Қ":{"ha":477,"x_min":43,"x_max":434,"o":"m 434 -130 l 347 -130 l 347 0 l 281 0 l 174 260 l 174 0 l 43 0 l 43 781 l 174 781 l 174 391 l 294 781 l 434 781 l 281 302 l 368 130 l 434 130 l 434 -130 z "},"қ":{"ha":477,"x_min":43,"x_max":434,"o":"m 434 -130 l 347 -130 l 347 0 l 281 0 l 174 177 l 174 0 l 43 0 l 43 651 l 174 651 l 174 338 l 294 651 l 434 651 l 281 252 l 355 130 l 434 130 l 434 -130 z "},"Ң":{"ha":477,"x_min":43,"x_max":477,"o":"m 434 130 l 477 130 l 477 -130 l 391 -130 l 391 0 l 304 0 l 304 326 l 174 326 l 174 0 l 43 0 l 43 781 l 174 781 l 174 456 l 304 456 l 304 781 l 434 781 l 434 130 z "},"ң":{"ha":477,"x_min":43,"x_max":477,"o":"m 304 651 l 434 651 l 434 130 l 477 130 l 477 -130 l 391 -130 l 391 0 l 304 0 l 304 260 l 174 260 l 174 0 l 43 0 l 43 651 l 174 651 l 174 391 l 304 391 l 304 651 z "},"Ҭ":{"ha":477,"x_min":43,"x_max":434,"o":"m 304 130 l 347 130 l 347 -130 l 260 -130 l 260 0 l 174 0 l 174 651 l 43 651 l 43 781 l 434 781 l 434 651 l 304 651 l 304 130 z "},"ҭ":{"ha":477,"x_min":43,"x_max":434,"o":"m 304 130 l 347 130 l 347 -130 l 260 -130 l 260 0 l 174 0 l 174 521 l 43 521 l 43 651 l 434 651 l 434 521 l 304 521 l 304 130 z "},"Ҳ":{"ha":477,"x_min":43,"x_max":434,"o":"m 434 -130 l 347 -130 l 347 0 l 294 0 l 239 260 l 184 0 l 43 0 l 169 391 l 43 781 l 184 781 l 239 521 l 294 781 l 434 781 l 309 391 l 393 130 l 434 130 l 434 -130 z "},"ҳ":{"ha":477,"x_min":43,"x_max":434,"o":"m 434 -130 l 347 -130 l 347 0 l 294 0 l 239 195 l 184 0 l 43 0 l 169 326 l 43 651 l 184 651 l 239 456 l 294 651 l 434 651 l 309 326 l 384 130 l 434 130 l 434 -130 z "},"Ҷ":{"ha":477,"x_min":43,"x_max":477,"o":"m 434 130 l 477 130 l 477 -130 l 391 -130 l 391 0 l 304 0 l 304 781 l 434 781 l 434 130 m 174 391 l 304 391 q 278 298 304 336 q 217 260 253 260 l 174 260 q 81 298 119 260 q 43 391 43 336 l 43 781 l 174 781 l 174 391 z "},"ҷ":{"ha":477,"x_min":43,"x_max":477,"o":"m 434 130 l 477 130 l 477 -130 l 391 -130 l 391 0 l 304 0 l 304 651 l 434 651 l 434 130 m 174 326 l 304 326 q 278 233 304 271 q 217 195 253 195 l 174 195 q 81 233 119 195 q 43 326 43 271 l 43 651 l 174 651 l 174 326 z "},"Ӷ":{"ha":412,"x_min":43,"x_max":369,"o":"m 43 781 l 369 781 l 369 651 l 174 651 l 174 130 l 217 130 l 217 -130 l 130 -130 l 130 0 l 43 0 l 43 781 z "},"ӷ":{"ha":412,"x_min":43,"x_max":369,"o":"m 43 651 l 369 651 l 369 521 l 174 521 l 174 130 l 217 130 l 217 -130 l 130 -130 l 130 0 l 43 0 l 43 651 z "},"Ԥ":{"ha":477,"x_min":43,"x_max":477,"o":"m 174 0 l 43 0 l 43 781 l 434 781 l 434 130 l 477 130 l 477 -130 l 391 -130 l 391 0 l 304 0 l 304 651 l 174 651 l 174 0 z "},"ԥ":{"ha":477,"x_min":43,"x_max":477,"o":"m 174 0 l 43 0 l 43 651 l 434 651 l 434 130 l 477 130 l 477 -130 l 391 -130 l 391 0 l 304 0 l 304 521 l 174 521 l 174 0 z "},"Ԧ":{"ha":477,"x_min":43,"x_max":477,"o":"m 434 130 l 477 130 l 477 -130 l 391 -130 l 391 0 l 304 0 l 304 456 l 174 456 l 174 0 l 43 0 l 43 781 l 174 781 l 174 586 l 304 586 q 396 548 357 586 q 434 456 434 510 l 434 130 z "},"ԧ":{"ha":477,"x_min":43,"x_max":477,"o":"m 43 781 l 174 781 l 174 0 l 43 0 l 43 781 m 434 130 l 477 130 l 477 -130 l 391 -130 l 391 0 l 304 0 l 304 391 l 174 391 q 199 483 174 445 q 260 521 224 521 l 304 521 q 396 483 357 521 q 434 391 434 445 l 434 130 z "},"Ԯ":{"ha":477,"x_min":43,"x_max":477,"o":"m 434 130 l 477 130 l 477 -130 l 391 -130 l 391 0 l 304 0 l 304 651 l 284 651 l 176 0 l 43 0 l 172 781 l 434 781 l 434 130 z "},"ԯ":{"ha":477,"x_min":43,"x_max":477,"o":"m 434 130 l 477 130 l 477 -130 l 391 -130 l 391 0 l 304 0 l 304 521 l 280 521 l 176 0 l 43 0 l 172 651 l 434 651 l 434 130 z "},"Ӌ":{"ha":477,"x_min":43,"x_max":434,"o":"m 434 0 l 347 0 l 347 -130 l 260 -130 l 260 130 l 304 130 l 304 781 l 434 781 l 434 0 m 174 391 l 304 391 q 278 298 304 336 q 217 260 253 260 l 174 260 q 81 298 119 260 q 43 391 43 336 l 43 781 l 174 781 l 174 391 z "},"ӌ":{"ha":477,"x_min":43,"x_max":434,"o":"m 434 0 l 347 0 l 347 -130 l 260 -130 l 260 130 l 304 130 l 304 651 l 434 651 l 434 0 m 174 326 l 304 326 q 278 233 304 271 q 217 195 253 195 l 174 195 q 81 233 119 195 q 43 326 43 271 l 43 651 l 174 651 l 174 326 z "},"Ҙ":{"ha":477,"x_min":43,"x_max":434,"o":"m 174 0 q 82 38 120 0 q 43 130 43 76 l 43 217 l 174 217 l 174 130 l 304 130 l 304 326 l 174 326 l 174 456 l 304 456 l 304 651 l 174 651 l 174 564 l 43 564 l 43 651 q 82 743 43 705 q 174 781 120 781 l 304 781 q 396 743 358 781 q 434 651 434 705 l 434 521 q 396 429 434 467 q 377 391 377 410 q 406 343 377 372 q 434 260 434 315 l 434 130 q 396 38 434 76 q 304 0 358 0 l 304 -65 q 284 -111 304 -92 q 239 -130 265 -130 l 174 -130 q 127 -111 146 -130 q 109 -65 109 -92 l 239 -65 l 239 0 l 174 0 z "},"ҙ":{"ha":477,"x_min":43,"x_max":434,"o":"m 174 0 q 82 38 120 0 q 43 130 43 76 l 43 217 l 174 217 l 174 130 l 304 130 l 304 260 l 195 260 l 195 391 l 304 391 l 304 521 l 174 521 l 174 434 l 43 434 l 43 521 q 82 613 43 574 q 174 651 120 651 l 304 651 q 396 613 358 651 q 434 521 434 574 l 434 456 q 396 363 434 401 q 377 326 377 345 q 406 278 377 307 q 434 195 434 250 l 434 130 q 396 38 434 76 q 304 0 358 0 l 304 -65 q 284 -111 304 -92 q 239 -130 265 -130 l 174 -130 q 127 -111 146 -130 q 109 -65 109 -92 l 239 -65 l 239 0 l 174 0 z "},"Ҫ":{"ha":477,"x_min":43,"x_max":434,"o":"m 304 0 l 304 -65 q 284 -111 304 -92 q 239 -130 265 -130 l 174 -130 q 127 -111 146 -130 q 109 -65 109 -92 l 239 -65 l 239 0 l 174 0 q 82 38 120 0 q 43 130 43 76 l 43 651 q 82 743 43 705 q 174 781 120 781 l 304 781 q 396 743 358 781 q 434 651 434 705 l 434 521 l 304 521 l 304 651 l 174 651 l 174 130 l 304 130 l 304 260 l 434 260 l 434 130 q 396 38 434 76 q 304 0 358 0 z "},"ҫ":{"ha":477,"x_min":43,"x_max":434,"o":"m 304 0 l 304 -65 q 284 -111 304 -92 q 239 -130 265 -130 l 174 -130 q 127 -111 146 -130 q 109 -65 109 -92 l 239 -65 l 239 0 l 174 0 q 82 38 120 0 q 43 130 43 76 l 43 521 q 82 613 43 574 q 174 651 120 651 l 304 651 q 396 613 358 651 q 434 521 434 574 l 434 434 l 304 434 l 304 521 l 174 521 l 174 130 l 304 130 l 304 217 l 434 217 l 434 130 q 396 38 434 76 q 304 0 358 0 z "},"Ғ":{"ha":543,"x_min":43,"x_max":499,"o":"m 304 434 l 434 434 l 434 347 l 304 347 l 304 0 l 174 0 l 174 347 l 43 347 l 43 434 l 174 434 l 174 781 l 499 781 l 499 651 l 304 651 l 304 434 z "},"ғ":{"ha":543,"x_min":43,"x_max":499,"o":"m 304 369 l 434 369 l 434 282 l 304 282 l 304 0 l 174 0 l 174 282 l 43 282 l 43 369 l 174 369 l 174 651 l 499 651 l 499 521 l 304 521 l 304 369 z "},"Ҡ":{"ha":608,"x_min":43,"x_max":564,"o":"m 174 651 l 43 651 l 43 781 l 304 781 l 304 391 l 424 781 l 564 781 l 411 302 l 564 0 l 412 0 l 304 260 l 304 0 l 174 0 l 174 651 z "},"ҡ":{"ha":608,"x_min":43,"x_max":564,"o":"m 174 521 l 43 521 l 43 651 l 304 651 l 304 338 l 424 651 l 564 651 l 411 252 l 564 0 l 412 0 l 304 177 l 304 0 l 174 0 l 174 521 z "},"Ҥ":{"ha":608,"x_min":43,"x_max":564,"o":"m 564 781 l 564 651 l 434 651 l 434 0 l 304 0 l 304 326 l 174 326 l 174 0 l 43 0 l 43 781 l 174 781 l 174 456 l 304 456 l 304 781 l 564 781 z "},"ҥ":{"ha":608,"x_min":43,"x_max":564,"o":"m 564 651 l 564 521 l 434 521 l 434 0 l 304 0 l 304 260 l 174 260 l 174 0 l 43 0 l 43 651 l 174 651 l 174 391 l 304 391 l 304 651 l 564 651 z "},"Ԑ":{"ha":477,"x_min":43,"x_max":434,"o":"m 43 521 l 43 651 q 81 743 43 705 q 174 781 119 781 l 304 781 q 396 743 357 781 q 434 651 434 705 l 434 564 l 304 564 l 304 651 l 174 651 l 174 456 l 304 456 l 304 326 l 174 326 l 174 130 l 304 130 l 304 217 l 434 217 l 434 130 q 396 38 434 76 q 304 0 357 0 l 174 0 q 81 38 119 0 q 43 130 43 76 l 43 260 q 81 353 43 315 q 174 391 119 391 q 81 429 119 391 q 43 521 43 467 z "},"ԑ":{"ha":477,"x_min":43,"x_max":434,"o":"m 43 456 l 43 521 q 81 613 43 574 q 174 651 119 651 l 304 651 q 396 613 357 651 q 434 521 434 574 l 434 434 l 304 434 l 304 521 l 174 521 l 174 391 l 282 391 l 282 260 l 174 260 l 174 130 l 304 130 l 304 217 l 434 217 l 434 130 q 396 38 434 76 q 304 0 357 0 l 174 0 q 81 38 119 0 q 43 130 43 76 l 43 195 q 81 288 43 250 q 174 326 119 326 q 81 363 119 326 q 43 456 43 401 z "},"Ԁ":{"ha":477,"x_min":43,"x_max":434,"o":"m 43 130 l 43 391 q 82 483 43 444 q 174 521 120 521 l 304 521 l 304 781 l 434 781 l 434 0 l 174 0 q 82 38 120 0 q 43 130 43 76 m 174 130 l 304 130 l 304 391 l 174 391 l 174 130 z "},"ԁ":{"ha":477,"x_min":43,"x_max":434,"o":"m 43 130 l 43 326 q 82 418 43 380 q 174 456 120 456 l 304 456 l 304 651 l 434 651 l 434 0 l 174 0 q 82 38 120 0 q 43 130 43 76 m 174 130 l 304 130 l 304 326 l 174 326 l 174 130 z "},"Ҹ":{"ha":477,"x_min":43,"x_max":434,"o":"m 434 0 l 304 0 l 304 781 l 434 781 l 434 0 m 271 391 l 304 391 q 279 298 304 336 q 271 289 275 293 l 271 130 l 206 130 l 206 260 l 174 260 q 81 298 119 260 q 43 391 43 336 l 43 781 l 174 781 l 174 391 l 206 391 l 206 521 l 271 521 l 271 391 z "},"ҹ":{"ha":477,"x_min":43,"x_max":434,"o":"m 434 0 l 304 0 l 304 651 l 434 651 l 434 0 m 271 326 l 304 326 q 279 233 304 271 q 271 224 275 228 l 271 98 l 206 98 l 206 195 l 174 195 q 81 233 119 195 q 43 326 43 271 l 43 651 l 174 651 l 174 326 l 206 326 l 206 423 l 271 423 l 271 326 z "},"Ӈ":{"ha":477,"x_min":43,"x_max":434,"o":"m 434 0 q 396 -92 434 -54 q 304 -130 358 -130 l 260 -130 l 260 0 l 304 0 l 304 326 l 174 326 l 174 0 l 43 0 l 43 781 l 174 781 l 174 456 l 304 456 l 304 781 l 434 781 l 434 0 z "},"ӈ":{"ha":477,"x_min":43,"x_max":434,"o":"m 434 0 q 396 -92 434 -54 q 304 -130 358 -130 l 260 -130 l 260 0 l 304 0 l 304 260 l 174 260 l 174 0 l 43 0 l 43 651 l 174 651 l 174 391 l 304 391 l 304 651 l 434 651 l 434 0 z "},"Ԓ":{"ha":477,"x_min":43,"x_max":434,"o":"m 434 0 q 396 -92 434 -54 q 304 -130 358 -130 l 260 -130 l 260 0 l 304 0 l 304 651 l 284 651 l 176 0 l 43 0 l 172 781 l 434 781 l 434 0 z "},"ԓ":{"ha":477,"x_min":43,"x_max":434,"o":"m 434 0 q 396 -92 434 -54 q 304 -130 358 -130 l 260 -130 l 260 0 l 304 0 l 304 521 l 280 521 l 176 0 l 43 0 l 172 651 l 434 651 l 434 0 z "},"Ӆ":{"ha":477,"x_min":43,"x_max":477,"o":"m 391 -130 l 304 -130 l 347 0 l 304 0 l 304 651 l 284 651 l 176 0 l 43 0 l 172 781 l 434 781 l 434 130 l 477 130 l 391 -130 z "},"ӆ":{"ha":477,"x_min":43,"x_max":477,"o":"m 391 -130 l 304 -130 l 347 0 l 304 0 l 304 521 l 280 521 l 176 0 l 43 0 l 172 651 l 434 651 l 434 130 l 477 130 l 391 -130 z "},"Ӊ":{"ha":477,"x_min":43,"x_max":477,"o":"m 391 -130 l 304 -130 l 347 0 l 304 0 l 304 326 l 174 326 l 174 0 l 43 0 l 43 781 l 174 781 l 174 456 l 304 456 l 304 781 l 434 781 l 434 130 l 477 130 l 391 -130 z "},"ӊ":{"ha":477,"x_min":43,"x_max":477,"o":"m 391 -130 l 304 -130 l 347 0 l 304 0 l 304 260 l 174 260 l 174 0 l 43 0 l 43 651 l 174 651 l 174 391 l 304 391 l 304 651 l 434 651 l 434 130 l 477 130 l 391 -130 z "},"Ӎ":{"ha":738,"x_min":43,"x_max":738,"o":"m 651 -130 l 564 -130 l 608 0 l 564 0 l 564 391 l 444 0 l 294 0 l 174 391 l 174 0 l 43 0 l 43 781 l 184 781 l 369 195 l 554 781 l 694 781 l 694 130 l 738 130 l 651 -130 z "},"ӎ":{"ha":738,"x_min":43,"x_max":738,"o":"m 651 -130 l 564 -130 l 608 0 l 564 0 l 564 326 l 444 0 l 294 0 l 174 326 l 174 0 l 43 0 l 43 651 l 184 651 l 369 163 l 554 651 l 694 651 l 694 130 l 738 130 l 651 -130 z "},"Ҋ":{"ha":477,"x_min":43,"x_max":477,"o":"m 391 -130 l 304 -130 l 347 0 l 304 0 l 304 391 l 174 0 l 43 0 l 43 781 l 174 781 l 174 391 l 304 781 l 434 781 l 434 130 l 477 130 l 391 -130 m 282 814 l 195 814 q 149 833 168 814 q 130 879 130 852 l 130 944 l 195 944 l 195 879 l 282 879 l 282 944 l 347 944 l 347 879 q 328 833 347 852 q 282 814 309 814 z "},"ҋ":{"ha":477,"x_min":43,"x_max":477,"o":"m 391 -130 l 304 -130 l 347 0 l 304 0 l 304 326 l 174 0 l 43 0 l 43 651 l 174 651 l 174 326 l 304 651 l 434 651 l 434 130 l 477 130 l 391 -130 m 282 684 l 195 684 q 149 703 168 684 q 130 749 130 722 l 130 814 l 195 814 l 195 749 l 282 749 l 282 814 l 347 814 l 347 749 q 328 703 347 722 q 282 684 309 684 z "},"Ɑ":{"ha":477,"x_min":43,"x_max":434,"o":"m 434 0 l 347 0 l 304 130 l 304 781 l 434 781 l 434 0 m 217 781 q 278 743 253 781 q 304 651 304 705 l 174 651 l 174 130 l 304 130 q 278 38 304 76 q 217 0 253 0 l 174 0 q 82 38 120 0 q 43 130 43 76 l 43 651 q 82 743 43 705 q 174 781 120 781 l 217 781 z "},"ɑ":{"ha":477,"x_min":43,"x_max":434,"o":"m 434 0 l 347 0 l 304 130 l 304 651 l 434 651 l 434 0 m 217 651 q 278 613 253 651 q 304 521 304 574 l 174 521 l 174 130 l 304 130 q 278 38 304 76 q 217 0 253 0 l 174 0 q 82 38 120 0 q 43 130 43 76 l 43 521 q 82 613 43 574 q 174 651 120 651 l 217 651 z "},"Ɒ":{"ha":477,"x_min":43,"x_max":434,"o":"m 174 130 l 304 130 l 304 651 l 174 651 q 199 743 174 705 q 260 781 224 781 l 304 781 q 396 743 357 781 q 434 651 434 705 l 434 130 q 396 38 434 76 q 304 0 357 0 l 260 0 q 199 38 224 0 q 174 130 174 76 m 174 781 l 174 130 l 130 0 l 43 0 l 43 781 l 174 781 z "},"ɒ":{"ha":477,"x_min":43,"x_max":434,"o":"m 174 130 l 304 130 l 304 521 l 174 521 q 199 613 174 574 q 260 651 224 651 l 304 651 q 396 613 357 651 q 434 521 434 574 l 434 130 q 396 38 434 76 q 304 0 357 0 l 260 0 q 199 38 224 0 q 174 130 174 76 m 174 651 l 174 130 l 130 0 l 43 0 l 43 651 l 174 651 z "},"Ꞑ":{"ha":477,"x_min":43,"x_max":477,"o":"m 391 0 l 294 0 l 174 391 l 174 0 l 43 0 l 43 781 l 184 781 l 304 391 l 304 781 l 434 781 l 434 130 l 477 130 l 477 -130 l 391 -130 l 391 0 z "},"ꞑ":{"ha":477,"x_min":43,"x_max":477,"o":"m 434 130 l 477 130 l 477 -130 l 391 -130 l 391 0 l 304 0 l 304 521 l 174 521 q 199 613 174 575 q 260 651 224 651 l 304 651 q 396 613 357 651 q 434 521 434 575 l 434 130 m 174 0 l 43 0 l 43 651 l 130 651 l 174 521 l 174 0 z "},"Ꜧ":{"ha":477,"x_min":43,"x_max":434,"o":"m 304 -130 l 239 -130 l 239 0 l 304 0 l 304 326 l 174 326 l 174 0 l 43 0 l 43 781 l 174 781 l 174 456 l 304 456 l 304 781 l 434 781 l 434 0 q 396 -92 434 -54 q 304 -130 358 -130 z "},"ꜧ":{"ha":477,"x_min":43,"x_max":434,"o":"m 174 0 l 43 0 l 43 781 l 174 781 l 174 0 m 304 -130 l 239 -130 l 239 0 l 304 0 l 304 521 l 174 521 q 199 613 174 575 q 260 651 224 651 l 304 651 q 396 613 357 651 q 434 521 434 575 l 434 0 q 396 -92 434 -54 q 304 -130 358 -130 z "},"Ꝏ":{"ha":738,"x_min":43,"x_max":694,"o":"m 304 130 l 304 651 l 174 651 l 174 130 l 304 130 m 434 130 l 564 130 l 564 651 l 434 651 l 434 130 m 369 764 q 434 781 398 781 l 564 781 q 656 743 618 781 q 694 651 694 705 l 694 130 q 656 38 694 76 q 564 0 618 0 l 434 0 q 369 17 398 0 q 304 0 340 0 l 174 0 q 82 38 120 0 q 43 130 43 76 l 43 651 q 82 743 43 705 q 174 781 120 781 l 304 781 q 369 764 340 781 z "},"ꝏ":{"ha":738,"x_min":43,"x_max":694,"o":"m 304 130 l 304 521 l 174 521 l 174 130 l 304 130 m 434 130 l 564 130 l 564 521 l 434 521 l 434 130 m 369 634 q 434 651 398 651 l 564 651 q 656 613 618 651 q 694 521 694 574 l 694 130 q 656 38 694 76 q 564 0 618 0 l 434 0 q 369 17 398 0 q 304 0 340 0 l 174 0 q 82 38 120 0 q 43 130 43 76 l 43 521 q 82 613 43 574 q 174 651 120 651 l 304 651 q 369 634 340 651 z "},"Ș":{"ha":477,"x_min":43,"x_max":434,"o":"m 174 0 q 82 38 120 0 q 43 130 43 76 l 44 130 l 44 260 l 174 260 l 174 130 l 304 130 l 304 213 l 43 521 l 43 651 q 82 743 43 705 q 174 781 120 781 l 304 781 q 396 743 358 781 q 434 651 434 705 l 434 521 l 304 521 l 304 651 l 174 651 l 174 568 l 434 260 l 434 130 q 396 38 434 76 q 304 0 358 0 l 174 0 m 159 -178 l 113 -132 l 182 -63 l 274 -63 l 159 -178 z "},"ș":{"ha":477,"x_min":43,"x_max":434,"o":"m 174 0 q 82 38 120 0 q 43 130 43 76 l 44 130 l 44 217 l 174 217 l 174 130 l 304 130 l 304 148 l 43 456 l 43 521 q 82 613 43 575 q 174 651 120 651 l 304 651 q 396 613 358 651 q 434 521 434 575 l 434 434 l 304 434 l 304 521 l 174 521 l 174 503 l 434 195 l 434 130 q 396 38 434 76 q 304 0 358 0 l 174 0 m 159 -178 l 113 -132 l 182 -63 l 274 -63 l 159 -178 z "},"Ț":{"ha":477,"x_min":43,"x_max":434,"o":"m 304 0 l 174 0 l 174 651 l 43 651 l 43 781 l 434 781 l 434 651 l 304 651 l 304 0 m 159 -178 l 113 -132 l 182 -63 l 274 -63 l 159 -178 z "},"ț":{"ha":347,"x_min":43,"x_max":304,"o":"m 239 130 l 304 130 l 304 0 l 239 0 q 147 38 185 0 q 109 130 109 76 l 109 521 l 43 521 l 43 651 l 109 651 l 109 781 l 239 781 l 239 651 l 304 651 l 304 521 l 239 521 l 239 130 m 189 -178 l 142 -132 l 212 -63 l 304 -63 l 189 -178 z "},"Ỻ":{"ha":608,"x_min":43,"x_max":564,"o":"m 369 130 l 564 130 l 564 0 l 43 0 l 43 781 l 174 781 l 174 130 l 239 130 l 239 781 l 369 781 l 369 130 z "},"ỻ":{"ha":608,"x_min":43,"x_max":564,"o":"m 467 629 l 564 629 l 564 543 l 467 543 l 467 0 l 423 0 q 362 38 387 0 q 336 130 336 76 l 336 543 l 271 543 l 271 0 l 228 0 q 166 38 192 0 q 141 130 141 76 l 141 543 l 43 543 l 43 629 l 141 629 l 141 781 l 271 781 l 271 629 l 336 629 l 336 781 l 467 781 l 467 629 z "},"ː":{"ha":217,"x_min":43,"x_max":174,"o":"m 109 174 l 174 0 l 43 0 l 109 174 m 43 651 l 174 651 l 109 477 l 43 651 z "},"ˑ":{"ha":217,"x_min":43,"x_max":174,"o":"m 43 651 l 174 651 l 109 477 l 43 651 z "},"№":{"ha":738,"x_min":43,"x_max":694,"o":"m 694 391 l 499 391 l 499 456 l 694 456 l 694 391 m 597 521 q 528 559 556 521 q 499 651 499 597 q 528 743 499 705 q 597 781 556 781 q 666 743 637 781 q 694 651 694 705 q 666 559 694 597 q 597 521 637 521 m 597 586 q 628 605 615 586 q 640 651 640 624 q 628 697 640 678 q 597 716 615 716 q 566 697 578 716 q 553 651 553 678 q 566 605 553 624 q 597 586 578 586 m 43 781 l 184 781 l 304 391 l 304 781 l 434 781 l 434 0 l 294 0 l 174 391 l 174 0 l 43 0 l 43 781 z "}}}
